{
.appVersion = "3414";
.formatVersion = 3;
DisplayStrings = (
"ा ि
/iMatra_reph-deva/iMatra_reph_anusvara-deva ी/iiMatra_reph-deva/iiMatra_reph_anusvara-deva"
);
axes = (
{
name = Weight;
tag = wght;
}
);
classes = (
{
automatic = 1;

glyphs = (
{
color = 5;
glyphname = A;
kernLeft = A;
kernRight = A;
lastChange = "2025-08-12 00:08:04 +0000";
layers = (
{
anchors = (
{
name = bottom;
pos = (348,0);
},
{
name = ogonek;
pos = (644,2);
},
{
name = top;
pos = (348,725);
}
);
layerId = "30C2FD74-1A74-41AC-9C29-B288AE1DBDD7";
shapes = (
{
closed = 1;
nodes = (
(540,221,l),
(540,296,l),
(152,296,l),
(152,221,l)
);
},
{
pos = (0,725);
ref = V;
scale = (1,-1);
}
);
width = 696;
},
{
anchors = (
{
name = bottom;
pos = (373,0);
},
{
name = ogonek;
pos = (659,0);
},
{
name = top;
pos = (373,725);
}
);
layerId = "9398AC28-6BE1-4A79-9C94-3CBC2F226CE7";
shapes = (
{
closed = 1;
nodes = (
(570,182,l),
(570,317,l),
(182,317,l),
(182,182,l)
);
},
{
pos = (0,725);
ref = V;
scale = (1,-1);
}
);
width = 745;
},
{
anchors = (
{
name = bottom;
pos = (332,0);
},
{
name = ogonek;
pos = (625,0);
},
{
name = top;
pos = (332,725);
}
);
layerId = "C1DB0BE6-5704-4A8C-8C00-D80E72C16D98";
shapes = (
{
closed = 1;
nodes = (
(510,237,l),
(510,282,l),
(152,282,l),
(152,237,l)
);
},
{
pos = (0,725);
ref = V;
scale = (1,-1);
}
);
width = 664;
}
);
metricLeft = "=V";
metricRight = "=V";
unicode = 65;
},
{
glyphname = AE;
kernLeft = A;
kernRight = E;
lastChange = "2025-06-05 19:08:24 +0000";
layers = (
{
anchors = (
{
name = bottom;
pos = (502,0);
},
{
name = top;
pos = (502,725);
}
);
layerId = "30C2FD74-1A74-41AC-9C29-B288AE1DBDD7";
shapes = (
{
closed = 1;
nodes = (
(104,0,l),
(169,182,l),
(470,182,l),
(470,0,l),
(550,0,l),
(550,725,l),
(292,725,l),
(20,0,l)
);
},
{
closed = 1;
nodes = (
(342,650,l),
(470,650,l),
(470,257,l),
(195,257,l)
);
},
{
pos = (381,0);
ref = E;
}
);
width = 971;
},
{
anchors = (
{
name = bottom;
pos = (496,0);
},
{
name = top;
pos = (496,725);
}
);
layerId = "9398AC28-6BE1-4A79-9C94-3CBC2F226CE7";
shapes = (
{
closed = 1;
nodes = (
(178,0,l),
(228,152,l),
(469,152,l),
(469,0,l),
(624,0,l),
(624,725,l),
(262,725,l),
(10,0,l)
);
},
{
closed = 1;
nodes = (
(377,590,l),
(469,590,l),
(469,287,l),
(271,287,l)
);
},
{
pos = (390,0);
ref = E;
}
);
width = 990;
},
{
anchors = (
{
name = bottom;
pos = (497,0);
},
{
name = top;
pos = (497,725);
}
);
layerId = "C1DB0BE6-5704-4A8C-8C00-D80E72C16D98";
shapes = (
{
closed = 1;
nodes = (
(80,0,l),
(152,197,l),
(475,197,l),
(475,0,l),
(525,0,l),
(525,725,l),
(301,725,l),
(25,0,l)
);
},
{
closed = 1;
nodes = (
(336,680,l),
(475,680,l),
(475,242,l),
(168,242,l)
);
},
{
pos = (376,0);
ref = E;
}
);
width = 976;
}
);
metricLeft = "=A";
metricRight = "=E";
unicode = 198;
},
{
color = 5;
glyphname = B;
kernLeft = I;
kernRight = B;
lastChange = "2025-08-10 21:41:21 +0000";
layers = (
{
anchors = (
{
name = bottom;
pos = (329,0);
},
{
name = top;
pos = (333,725);
}
);
layerId = "30C2FD74-1A74-41AC-9C29-B288AE1DBDD7";
shapes = (
{
closed = 1;
nodes = (
(334,0,l),
(489,0,o),
(580,73,o),
(580,197,cs),
(580,308,o),
(494,392,o),
(379,392,c),
(380,368,l),
(478,368,o),
(550,460,o),
(550,538,cs),
(550,661,o),
(476,725,o),
(333,725,c),
(90,725,l),
(90,0,l)
);
},
{
closed = 1;
nodes = (
(170,338,l),
(324,338,ls),
(425,338,o),
(500,277,o),
(500,196,cs),
(500,120,o),
(438,75,o),
(334,75,c),
(170,75,l)
);
},
{
closed = 1;
nodes = (
(170,650,l),
(327,650,l),
(421,650,o),
(470,611,o),
(470,535,cs),
(470,453,o),
(401,410,o),
(307,410,cs),
(170,410,l)
);
}
);
width = 630;
},
{
anchors = (
{
name = bottom;
pos = (339,0);
},
{
name = top;
pos = (342,725);
}
);
layerId = "9398AC28-6BE1-4A79-9C94-3CBC2F226CE7";
shapes = (
{
closed = 1;
nodes = (
(365,0,ls),
(538,0,o),
(641,81,o),
(641,217,cs),
(641,294,o),
(575,368,o),
(464,415,c),
(464,339,l),
(556,383,o),
(610,447,o),
(610,512,cs),
(610,646,o),
(515,725,o),
(355,725,cs),
(80,725,l),
(80,0,l)
);
},
{
closed = 1;
nodes = (
(235,310,l),
(363,310,ls),
(428,310,o),
(476,270,o),
(476,217,cs),
(476,170,o),
(436,135,o),
(383,135,cs),
(235,135,l)
);
},
{
closed = 1;
nodes = (
(235,595,l),
(366,595,ls),
(411,595,o),
(445,565,o),
(445,525,cs),
(445,479,o),
(403,445,o),
(346,445,cs),
(235,445,l)
);
}
);
width = 681;
},
{
anchors = (
{
name = bottom;
pos = (319,0);
},
{
name = top;
pos = (323,725);
}
);
layerId = "C1DB0BE6-5704-4A8C-8C00-D80E72C16D98";
shapes = (
{
closed = 1;
nodes = (
(331,0,l),
(481,0,o),
(570,80,o),
(570,198,cs),
(570,303,o),
(490,381,o),
(383,381,c),
(383,372,l),
(473,372,o),
(540,437,o),
(540,537,cs),
(540,661,o),
(468,725,o),
(331,725,c),
(100,725,l),
(100,0,l)
);
},
{
closed = 1;
nodes = (
(145,350,l),
(312,350,l),
(431,350,o),
(525,284,o),
(525,197,cs),
(525,108,o),
(446,45,o),
(322,45,c),
(145,45,l)
);
},
{
closed = 1;
nodes = (
(145,680,l),
(325,680,l),
(433,680,o),
(495,631,o),
(495,538,cs),
(495,444,o),
(413,395,o),
(305,395,c),
(145,395,l)
);
}
);
width = 630;
}
);
metricLeft = "=I";
metricRight = "=O-10";
unicode = 66;
},
{
color = 5;
glyphname = C;
kernLeft = O;
kernRight = C;
lastChange = "2025-08-10 21:36:34 +0000";
layers = (
{
anchors = (
{
name = bottom;
pos = (392,0);
},
{
name = top;
pos = (392,745);
}
);
layerId = "30C2FD74-1A74-41AC-9C29-B288AE1DBDD7";
shapes = (
{
closed = 1;
nodes = (
(517,-12,o),
(624,57,o),
(670,173,c),
(595,206,l),
(557,119,o),
(478,68,o),
(382,68,cs),
(247,68,o),
(145,194,o),
(145,362,cs),
(145,531,o),
(247,657,o),
(382,657,cs),
(478,657,o),
(557,605,o),
(595,518,c),
(670,551,l),
(624,668,o),
(517,737,o),
(382,737,cs),
(198,737,o),
(60,576,o),
(60,362,cs),
(60,148,o),
(198,-12,o),
(382,-12,cs)
);
}
);
width = 710;
},
{
anchors = (
{
name = bottom;
pos = (401,-1);
},
{
name = top;
pos = (401,725);
}
);
layerId = "9398AC28-6BE1-4A79-9C94-3CBC2F226CE7";
shapes = (
{
closed = 1;
nodes = (
(546,-13,o),
(664,73,o),
(705,187,c),
(568,253,l),
(542,181,o),
(482,137,o),
(401,137,cs),
(295,137,o),
(215,238,o),
(215,373,cs),
(215,495,o),
(295,586,o),
(401,586,cs),
(482,586,o),
(542,543,o),
(568,472,c),
(705,538,l),
(665,651,o),
(546,736,o),
(401,736,cs),
(200,736,o),
(50,580,o),
(50,373,cs),
(50,152,o),
(200,-13,o),
(401,-13,cs)
);
}
);
width = 735;
},
{
anchors = (
{
name = bottom;
pos = (403,0);
},
{
name = top;
pos = (403,725);
}
);
layerId = "C1DB0BE6-5704-4A8C-8C00-D80E72C16D98";
shapes = (
{
closed = 1;
nodes = (
(525,-10,o),
(626,55,o),
(675,169,c),
(635,187,l),
(589,90,o),
(498,36,o),
(403,36,cs),
(241,36,o),
(120,176,o),
(120,363,cs),
(120,549,o),
(241,689,o),
(403,689,cs),
(499,689,o),
(590,635,o),
(635,538,c),
(675,556,l),
(628,670,o),
(526,735,o),
(403,735,cs),
(213,735,o),
(70,577,o),
(70,363,cs),
(70,149,o),
(213,-10,o),
(403,-10,cs)
);
}
);
width = 725;
}
);
metricLeft = "=O";
metricRight = "=O-20";
unicode = 67;
},
{
color = 5;
glyphname = D;
kernLeft = I;
kernRight = O;
lastChange = "2025-08-10 21:37:59 +0000";
layers = (
{
anchors = (
{
name = bottom;
pos = (364,0);
},
{
name = center;
pos = (160,363);
},
{
name = top;
pos = (364,725);
}
);
layerId = "30C2FD74-1A74-41AC-9C29-B288AE1DBDD7";
shapes = (
{
closed = 1;
nodes = (
(295,0,ls),
(504,0,o),
(660,156,o),
(660,363,cs),
(660,570,o),
(504,725,o),
(295,725,cs),
(90,725,l),
(90,0,l)
);
},
{
closed = 1;
nodes = (
(170,650,l),
(295,650,ls),
(456,650,o),
(576,527,o),
(576,363,cs),
(576,198,o),
(456,75,o),
(295,75,cs),
(170,75,l)
);
}
);
width = 720;
},
{
anchors = (
{
name = bottom;
pos = (379,0);
},
{
name = center;
pos = (198,363);
},
{
name = top;
pos = (367,725);
}
);
layerId = "9398AC28-6BE1-4A79-9C94-3CBC2F226CE7";
shapes = (
{
closed = 1;
nodes = (
(323,0,ls),
(544,0,o),
(690,156,o),
(690,363,cs),
(690,570,o),
(544,725,o),
(323,725,cs),
(80,725,l),
(80,0,l)
);
},
{
closed = 1;
nodes = (
(235,590,l),
(327,590,ls),
(457,590,o),
(535,493,o),
(535,363,cs),
(535,233,o),
(457,135,o),
(327,135,cs),
(235,135,l)
);
}
);
width = 740;
},
{
anchors = (
{
name = bottom;
pos = (364,0);
},
{
name = center;
pos = (155,363);
},
{
name = top;
pos = (364,725);
}
);
layerId = "C1DB0BE6-5704-4A8C-8C00-D80E72C16D98";
shapes = (
{
closed = 1;
nodes = (
(308,0,l),
(509,0,o),
(660,156,o),
(660,363,c),
(660,570,o),
(509,725,o),
(308,725,c),
(100,725,l),
(100,0,l)
);
},
{
closed = 1;
nodes = (
(145,680,l),
(306,680,l),
(480,680,o),
(615,544,o),
(615,363,c),
(615,181,o),
(480,45,o),
(306,45,c),
(145,45,l)
);
}
);
width = 730;
}
);
metricLeft = "=I";
metricRight = "=O";
unicode = 68;
},
{
color = 5;
glyphname = E;
kernLeft = H;
kernRight = E;
lastChange = "2025-08-10 21:38:20 +0000";
layers = (
{
anchors = (
{
name = bottom;
pos = (330,0);
},
{
name = ogonek;
pos = (470,0);
},
{
name = top;
pos = (330,745);
}
);
layerId = "30C2FD74-1A74-41AC-9C29-B288AE1DBDD7";
shapes = (
{
closed = 1;
nodes = (
(550,0,l),
(550,75,l),
(161,75,l),
(161,0,l)
);
},
{
ref = F;
}
);
width = 590;
},
{
anchors = (
{
name = bottom;
pos = (331,0);
},
{
name = ogonek;
pos = (481,0);
},
{
name = top;
pos = (331,725);
}
);
layerId = "9398AC28-6BE1-4A79-9C94-3CBC2F226CE7";
shapes = (
{
closed = 1;
nodes = (
(570,0,l),
(570,135,l),
(230,135,l),
(230,0,l)
);
},
{
ref = F;
}
);
width = 600;
},
{
anchors = (
{
name = bottom;
pos = (330,0);
},
{
name = ogonek;
pos = (460,0);
},
{
name = top;
pos = (330,745);
}
);
layerId = "C1DB0BE6-5704-4A8C-8C00-D80E72C16D98";
shapes = (
{
closed = 1;
nodes = (
(550,0,l),
(550,45,l),
(144,45,l),
(144,0,l)
);
},
{
ref = F;
}
);
width = 600;
}
);
metricLeft = "=I";
metricRight = "=F+10";
unicode = 69;
},
{
glyphname = Schwa;
kernLeft = O;
kernRight = O;
lastChange = "2025-06-12 03:05:10 +0000";
layers = (
{
layerId = "C1DB0BE6-5704-4A8C-8C00-D80E72C16D98";
shapes = (
{
closed = 1;
nodes = (
(682,323,l),
(682,368,l),
(347,368,l),
(347,323,l)
);
},
{
pos = (790,0);
ref = G.cv06;
scale = (-1,1);
}
);
width = 790;
},
{
layerId = "30C2FD74-1A74-41AC-9C29-B288AE1DBDD7";
shapes = (
{
closed = 1;
nodes = (
(681,315,l),
(681,385,l),
(351,385,l),
(351,315,l)
);
},
{
pos = (789,0);
ref = G.cv06;
scale = (-1,1);
}
);
width = 789;
},
{
layerId = "9398AC28-6BE1-4A79-9C94-3CBC2F226CE7";
shapes = (
{
closed = 1;
nodes = (
(613,275,l),
(613,405,l),
(356,405,l),
(356,275,l)
);
},
{
pos = (790,0);
ref = G.cv06;
scale = (-1,1);
}
);
width = 790;
}
);
metricLeft = "=O";
metricRight = "=O";
unicode = 399;
},
{
color = 5;
glyphname = F;
kernLeft = H;
kernRight = F;
lastChange = "2025-08-10 21:38:17 +0000";
layers = (
{
anchors = (
{
name = bottom;
pos = (293,0);
},
{
name = top;
pos = (293,725);
}
);
layerId = "30C2FD74-1A74-41AC-9C29-B288AE1DBDD7";
shapes = (
{
closed = 1;
nodes = (
(170,0,l),
(170,325,l),
(520,325,l),
(520,400,l),
(170,400,l),
(170,650,l),
(550,650,l),
(550,725,l),
(90,725,l),
(90,0,l)
);
}
);
width = 580;
},
{
anchors = (
{
name = bottom;
pos = (308,0);
},
{
name = top;
pos = (308,725);
}
);
layerId = "9398AC28-6BE1-4A79-9C94-3CBC2F226CE7";
shapes = (
{
closed = 1;
nodes = (
(235,0,l),
(235,295,l),
(520,295,l),
(520,430,l),
(235,430,l),
(235,590,l),
(570,590,l),
(570,725,l),
(80,725,l),
(80,0,l)
);
}
);
width = 590;
},
{
anchors = (
{
name = bottom;
pos = (298,0);
},
{
name = top;
pos = (298,725);
}
);
layerId = "C1DB0BE6-5704-4A8C-8C00-D80E72C16D98";
shapes = (
{
closed = 1;
nodes = (
(145,0,l),
(145,340,l),
(510,340,l),
(510,385,l),
(145,385,l),
(145,680,l),
(550,680,l),
(550,725,l),
(100,725,l),
(100,0,l)
);
}
);
width = 590;
}
);
metricLeft = "=I";
unicode = 70;
},
{
color = 5;
glyphname = G;
kernLeft = O;
kernRight = G;
lastChange = "2025-08-10 21:40:31 +0000";
layers = (
{
anchors = (
{
name = bottom;
pos = (385,0);
},
{
name = top;
pos = (395,725);
}
);
layerId = "30C2FD74-1A74-41AC-9C29-B288AE1DBDD7";
shapes = (
{
closed = 1;
nodes = (
(720,0,l),
(720,385,l),
(640,385,l),
(640,0,l)
);
},
{
closed = 1;
nodes = (
(560,-10,o),
(648,112,o),
(670,323,c),
(670,385,l),
(402,385,l),
(402,315,l),
(656,315,l),
(620,351,l),
(620,310,l),
(598,155,o),
(516,66,o),
(382,66,cs),
(249,66,o),
(142,195,o),
(142,362,cs),
(142,530,o),
(258,659,o),
(402,659,cs),
(505,659,o),
(579,606,o),
(612,518,c),
(687,551,l),
(643,674,o),
(539,737,o),
(402,737,c),
(207,737,o),
(60,576,o),
(60,362,cs),
(60,149,o),
(198,-10,o),
(382,-10,c)
);
}
);
width = 810;
},
{
anchors = (
{
name = bottom;
pos = (388,0);
},
{
name = top;
pos = (398,725);
}
);
layerId = "9398AC28-6BE1-4A79-9C94-3CBC2F226CE7";
shapes = (
{
closed = 1;
nodes = (
(720,0,l),
(720,405,l),
(585,405,l),
(585,0,l)
);
},
{
closed = 1;
nodes = (
(556,-10,o),
(689,147,o),
(700,356,c),
(700,405,l),
(396,405,l),
(396,275,l),
(656,275,l),
(585,335,l),
(585,273,l),
(577,191,o),
(498,130,o),
(400,130,cs),
(289,130,o),
(205,230,o),
(205,363,cs),
(205,497,o),
(287,597,o),
(396,597,cs),
(479,597,o),
(533,551,o),
(568,472,c),
(705,538,l),
(652,671,o),
(551,737,o),
(396,737,cs),
(198,737,o),
(50,577,o),
(50,363,cs),
(50,150,o),
(196,-10,o),
(390,-10,cs)
);
}
);
width = 800;
},
{
anchors = (
{
name = bottom;
pos = (381,0);
},
{
name = top;
pos = (401,725);
}
);
layerId = "C1DB0BE6-5704-4A8C-8C00-D80E72C16D98";
shapes = (
{
closed = 1;
nodes = (
(720,0,l),
(720,368,l),
(670,368,l),
(670,0,l)
);
},
{
closed = 1;
nodes = (
(562,-10,o),
(669,111,o),
(691,319,c),
(690,368,l),
(407,368,l),
(407,323,l),
(672,323,l),
(650,349,l),
(650,319,l),
(625,141,o),
(533,35,o),
(386,35,c),
(234,35,o),
(120,176,o),
(120,362,cs),
(120,549,o),
(233,689,o),
(397,689,c),
(508,689,o),
(603,635,o),
(644,538,c),
(684,556,l),
(640,673,o),
(535,735,o),
(397,735,c),
(204,735,o),
(70,576,o),
(70,362,cs),
(70,148,o),
(205,-10,o),
(386,-10,c)
);
}
);
width = 820;
}
);
metricLeft = "=O";
metricRight = "=I";
unicode = 71;
},
{
color = 5;
glyphname = G.cv06;
kernLeft = O;
kernRight = G;
lastChange = "2025-06-10 01:59:19 +0000";
layers = (
{
anchors = (
{
name = bottom;
pos = (392,0);
},
{
name = top;
pos = (412,725);
}
);
layerId = "30C2FD74-1A74-41AC-9C29-B288AE1DBDD7";
shapes = (
{
closed = 1;
nodes = (
(611,-11,o),
(729,113,o),
(729,323,c),
(729,385,l),
(412,385,l),
(412,315,l),
(686,315,l),
(650,351,l),
(650,310,l),
(650,155,o),
(562,64,o),
(412,64,c),
(257,64,o),
(140,192,o),
(140,362,cs),
(140,532,o),
(257,659,o),
(412,659,c),
(515,659,o),
(595,606,o),
(628,516,c),
(700,541,l),
(656,663,o),
(549,735,o),
(412,735,c),
(211,735,o),
(60,575,o),
(60,362,cs),
(60,149,o),
(211,-11,o),
(412,-11,c)
);
}
);
width = 789;
},
{
anchors = (
{
name = bottom;
pos = (389,0);
},
{
name = top;
pos = (397,725);
}
);
layerId = "9398AC28-6BE1-4A79-9C94-3CBC2F226CE7";
shapes = (
{
closed = 1;
nodes = (
(607,-12,o),
(740,114,o),
(740,326,cs),
(740,405,l),
(406,405,l),
(406,275,l),
(656,275,l),
(585,335,l),
(585,273,ls),
(585,182,o),
(510,128,o),
(400,128,cs),
(283,128,o),
(205,229,o),
(205,363,cs),
(205,497,o),
(284,597,o),
(399,597,cs),
(484,597,o),
(555,546,o),
(578,474,c),
(715,528,l),
(676,659,o),
(555,737,o),
(399,737,cs),
(196,737,o),
(50,577,o),
(50,363,cs),
(50,149,o),
(194,-12,o),
(400,-12,cs)
);
}
);
width = 790;
},
{
anchors = (
{
name = bottom;
pos = (400,0);
},
{
name = top;
pos = (400,725);
}
);
layerId = "C1DB0BE6-5704-4A8C-8C00-D80E72C16D98";
shapes = (
{
closed = 1;
nodes = (
(603,-11,o),
(720,112,o),
(720,319,c),
(720,368,l),
(407,368,l),
(407,323,l),
(692,323,l),
(670,349,l),
(670,319,l),
(670,144,o),
(572,40,o),
(406,40,c),
(244,40,o),
(123,178,o),
(123,362,cs),
(123,546,o),
(245,684,o),
(407,684,c),
(513,684,o),
(609,628,o),
(649,533,c),
(696,549,l),
(654,666,o),
(540,735,o),
(407,735,c),
(214,735,o),
(70,575,o),
(70,362,cs),
(70,149,o),
(214,-11,o),
(406,-11,c)
);
}
);
width = 790;
}
);
metricLeft = "=O";
metricRight = "=O";
},
{
color = 5;
glyphname = H;
kernLeft = H;
kernRight = H;
lastChange = "2025-08-10 21:41:08 +0000";
layers = (
{
anchors = (
{
name = bottom;
pos = (360,0);
},
{
name = center;
pos = (360,362);
},
{
name = top;
pos = (360,725);
},
{
name = topleft;
pos = (25,725);
}
);
layerId = "30C2FD74-1A74-41AC-9C29-B288AE1DBDD7";
shapes = (
{
closed = 1;
nodes = (
(170,0,l),
(170,325,l),
(550,325,l),
(550,0,l),
(630,0,l),
(630,725,l),
(550,725,l),
(550,400,l),
(170,400,l),
(170,725,l),
(90,725,l),
(90,0,l)
);
}
);
width = 720;
},
{
anchors = (
{
name = bottom;
pos = (370,0);
},
{
name = center;
pos = (370,362);
},
{
name = top;
pos = (370,725);
},
{
name = topleft;
pos = (25,725);
}
);
layerId = "9398AC28-6BE1-4A79-9C94-3CBC2F226CE7";
shapes = (
{
closed = 1;
nodes = (
(235,0,l),
(235,295,l),
(505,295,l),
(505,0,l),
(660,0,l),
(660,725,l),
(505,725,l),
(505,430,l),
(235,430,l),
(235,725,l),
(80,725,l),
(80,0,l)
);
}
);
width = 740;
},
{
anchors = (
{
name = bottom;
pos = (350,0);
},
{
name = center;
pos = (350,363);
},
{
name = top;
pos = (350,725);
},
{
name = topleft;
pos = (10,725);
}
);
layerId = "C1DB0BE6-5704-4A8C-8C00-D80E72C16D98";
shapes = (
{
closed = 1;
nodes = (
(145,0,l),
(145,340,l),
(555,340,l),
(555,0,l),
(600,0,l),
(600,725,l),
(550,725,l),
(555,385,l),
(145,385,l),
(145,725,l),
(100,725,l),
(100,0,l)
);
}
);
width = 700;
}
);
metricLeft = "=I";
metricRight = "=I";
unicode = 72;
},
{
color = 5;
glyphname = I;
kernLeft = H;
kernRight = H;
lastChange = "2023-12-10 20:18:50 +0000";
layers = (
{
anchors = (
{
name = bottom;
pos = (130,0);
},
{
name = ogonek;
pos = (140,0);
},
{
name = top;
pos = (130,725);
}
);
layerId = "30C2FD74-1A74-41AC-9C29-B288AE1DBDD7";
shapes = (
{
closed = 1;
nodes = (
(170,0,l),
(170,725,l),
(90,725,l),
(90,0,l)
);
}
);
width = 260;
},
{
anchors = (
{
name = bottom;
pos = (158,0);
},
{
name = ogonek;
pos = (185,0);
},
{
name = top;
pos = (158,725);
}
);
layerId = "9398AC28-6BE1-4A79-9C94-3CBC2F226CE7";
shapes = (
{
closed = 1;
nodes = (
(235,0,l),
(235,725,l),
(80,725,l),
(80,0,l)
);
}
);
width = 315;
},
{
anchors = (
{
name = bottom;
pos = (125,0);
},
{
name = ogonek;
pos = (130,0);
},
{
name = top;
pos = (125,725);
}
);
layerId = "C1DB0BE6-5704-4A8C-8C00-D80E72C16D98";
shapes = (
{
closed = 1;
nodes = (
(150,0,l),
(150,725,l),
(100,725,l),
(100,0,l)
);
}
);
width = 250;
}
);
unicode = 73;
},
{
color = 5;
glyphname = I.cv07;
kernLeft = H;
kernRight = H;
lastChange = "2024-01-10 02:42:25 +0000";
layers = (
{
anchors = (
{
name = bottom;
pos = (275,0);
},
{
name = ogonek;
pos = (295,0);
},
{
name = top;
pos = (275,725);
}
);
layerId = "30C2FD74-1A74-41AC-9C29-B288AE1DBDD7";
shapes = (
{
closed = 1;
nodes = (
(460,655,l),
(460,725,l),
(90,725,l),
(90,655,l)
);
},
{
closed = 1;
nodes = (
(460,0,l),
(460,70,l),
(90,70,l),
(90,0,l)
);
},
{
pos = (147,0);
ref = I;
}
);
width = 550;
},
{
anchors = (
{
name = bottom;
pos = (276,0);
},
{
name = ogonek;
pos = (296,0);
},
{
name = top;
pos = (285,725);
}
);
layerId = "9398AC28-6BE1-4A79-9C94-3CBC2F226CE7";
shapes = (
{
closed = 1;
nodes = (
(490,590,l),
(490,725,l),
(80,725,l),
(80,590,l)
);
},
{
closed = 1;
nodes = (
(490,0,l),
(490,135,l),
(80,135,l),
(80,0,l)
);
},
{
pos = (127,0);
ref = I;
}
);
width = 570;
},
{
anchors = (
{
name = bottom;
pos = (275,0);
},
{
name = ogonek;
pos = (295,0);
},
{
name = top;
pos = (275,725);
}
);
layerId = "C1DB0BE6-5704-4A8C-8C00-D80E72C16D98";
shapes = (
{
closed = 1;
nodes = (
(450,680,l),
(450,725,l),
(100,725,l),
(100,680,l)
);
},
{
closed = 1;
nodes = (
(450,0,l),
(450,45,l),
(100,45,l),
(100,0,l)
);
},
{
pos = (151,0);
ref = I;
}
);
width = 550;
}
);
metricLeft = "=I";
metricRight = "=I";
},
{
color = 5;
glyphname = J;
kernLeft = J;
kernRight = J;
lastChange = "2025-08-10 21:43:14 +0000";
layers = (
{
anchors = (
{
name = bottom;
pos = (334,0);
},
{
name = top;
pos = (386,725);
}
);
layerId = "30C2FD74-1A74-41AC-9C29-B288AE1DBDD7";
shapes = (
{
closed = 1;
nodes = (
(377,-10,o),
(426,108,o),
(426,205,cs),
(426,725,l),
(346,725,l),
(346,205,ls),
(346,145,o),
(319,70,o),
(223,70,cs),
(172,70,o),
(135,101,o),
(105,168,c),
(30,135,l),
(69,36,o),
(130,-10,o),
(223,-10,cs)
);
}
);
width = 496;
},
{
anchors = (
{
name = bottom;
pos = (394,0);
},
{
name = top;
pos = (441,725);
}
);
layerId = "9398AC28-6BE1-4A79-9C94-3CBC2F226CE7";
shapes = (
{
closed = 1;
nodes = (
(455,-10,o),
(518,120,o),
(518,240,cs),
(518,725,l),
(363,725,l),
(363,233,ls),
(363,185,o),
(343,130,o),
(269,130,cs),
(222,130,o),
(185,163,o),
(162,226,c),
(25,160,l),
(63,48,o),
(147,-10,o),
(269,-10,cs)
);
}
);
width = 578;
},
{
anchors = (
{
name = bottom;
pos = (294,0);
},
{
name = top;
pos = (353,725);
}
);
layerId = "C1DB0BE6-5704-4A8C-8C00-D80E72C16D98";
shapes = (
{
closed = 1;
nodes = (
(304,-10,o),
(374,72,o),
(374,191,cs),
(374,725,l),
(329,725,l),
(329,194,ls),
(329,99,o),
(276,35,o),
(195,35,cs),
(148,35,o),
(102,67,o),
(75,125,c),
(35,107,l),
(68,30,o),
(123,-10,o),
(195,-10,cs)
);
}
);
width = 454;
}
);
metricLeft = "=O/2";
metricRight = "=O+10";
unicode = 74;
},
{
color = 5;
glyphname = J.cv08;
kernLeft = J;
kernRight = T;
lastChange = "2025-06-05 19:34:17 +0000";
layers = (
{
anchors = (
{
name = bottom;
pos = (329,0);
},
{
name = top;
pos = (341,725);
}
);
layerId = "30C2FD74-1A74-41AC-9C29-B288AE1DBDD7";
shapes = (
{
closed = 1;
nodes = (
(571,655,l),
(571,725,l),
(141,725,l),
(141,655,l)
);
},
{
ref = J;
}
);
width = 601;
},
{
anchors = (
{
name = bottom;
pos = (394,0);
},
{
name = top;
pos = (403,725);
}
);
layerId = "9398AC28-6BE1-4A79-9C94-3CBC2F226CE7";
shapes = (
{
closed = 1;
nodes = (
(668,590,l),
(668,725,l),
(168,725,l),
(168,590,l)
);
},
{
ref = J;
}
);
width = 688;
},
{
anchors = (
{
name = bottom;
pos = (304,0);
},
{
name = top;
pos = (329,725);
}
);
layerId = "C1DB0BE6-5704-4A8C-8C00-D80E72C16D98";
shapes = (
{
closed = 1;
nodes = (
(545,680,l),
(545,725,l),
(145,725,l),
(145,680,l)
);
},
{
ref = J;
}
);
width = 585;
}
);
metricLeft = "=J";
metricRight = "=J-40";
},
{
color = 5;
glyphname = K;
kernLeft = H;
kernRight = K;
lastChange = "2025-08-10 21:44:41 +0000";
layers = (
{
anchors = (
{
name = bottom;
pos = (329,0);
},
{
name = top;
pos = (329,725);
}
);
layerId = "30C2FD74-1A74-41AC-9C29-B288AE1DBDD7";
shapes = (
{
closed = 1;
nodes = (
(170,0,l),
(170,232,l),
(273,343,l),
(534,0,l),
(635,0,l),
(309,436,l),
(305,379,l),
(627,725,l),
(523,725,l),
(139,310,l),
(170,310,l),
(170,725,l),
(90,725,l),
(90,0,l)
);
}
);
width = 665;
},
{
anchors = (
{
name = bottom;
pos = (358,0);
},
{
name = top;
pos = (358,725);
}
);
layerId = "9398AC28-6BE1-4A79-9C94-3CBC2F226CE7";
shapes = (
{
closed = 1;
nodes = (
(235,0,l),
(235,204,l),
(314,290,l),
(528,0,l),
(720,0,l),
(383,461,l),
(374,358,l),
(714,725,l),
(520,725,l),
(172,352,l),
(235,352,l),
(235,725,l),
(80,725,l),
(80,0,l)
);
}
);
width = 740;
},
{
anchors = (
{
name = bottom;
pos = (322,0);
},
{
name = top;
pos = (322,725);
}
);
layerId = "C1DB0BE6-5704-4A8C-8C00-D80E72C16D98";
shapes = (
{
closed = 1;
nodes = (
(145,0,l),
(145,241,l),
(259,364,l),
(553,0,l),
(610,0,l),
(278,418,l),
(278,386,l),
(592,725,l),
(530,725,l),
(121,285,l),
(145,285,l),
(145,725,l),
(100,725,l),
(100,0,l)
);
}
);
width = 650;
}
);
metricLeft = "=I";
metricRight = "=F";
unicode = 75;
},
{
color = 5;
glyphname = L;
kernLeft = H;
kernRight = L;
lastChange = "2025-08-10 21:44:57 +0000";
layers = (
{
anchors = (
{
name = bottom;
pos = (295,0);
},
{
name = center;
pos = (130,363);
},
{
name = dot;
pos = (335,362);
},
{
name = top;
pos = (130,725);
},
{
name = topright;
pos = (335,536);
}
);
layerId = "30C2FD74-1A74-41AC-9C29-B288AE1DBDD7";
shapes = (
{
closed = 1;
nodes = (
(500,0,l),
(500,75,l),
(170,75,l),
(170,725,l),
(90,725,l),
(90,0,l)
);
}
);
width = 530;
},
{
anchors = (
{
name = bottom;
pos = (315,0);
},
{
name = center;
pos = (158,363);
},
{
name = dot;
pos = (393,362);
},
{
name = top;
pos = (158,725);
},
{
name = topright;
pos = (393,546);
}
);
layerId = "9398AC28-6BE1-4A79-9C94-3CBC2F226CE7";
shapes = (
{
closed = 1;
nodes = (
(550,0,l),
(550,135,l),
(235,135,l),
(235,725,l),
(80,725,l),
(80,0,l)
);
}
);
width = 570;
},
{
anchors = (
{
name = bottom;
pos = (295,0);
},
{
name = center;
pos = (125,363);
},
{
name = dot;
pos = (320,362);
},
{
name = top;
pos = (125,725);
},
{
name = topright;
pos = (320,526);
}
);
layerId = "C1DB0BE6-5704-4A8C-8C00-D80E72C16D98";
shapes = (
{
closed = 1;
nodes = (
(490,0,l),
(490,45,l),
(145,45,l),
(145,725,l),
(100,725,l),
(100,0,l)
);
}
);
width = 530;
}
);
metricLeft = "=I";
metricRight = "=F";
unicode = 76;
},
{
color = 5;
glyphname = M;
kernLeft = H;
kernRight = H;
lastChange = "2025-08-10 21:45:59 +0000";
layers = (
{
anchors = (
{
name = bottom;
pos = (470,0);
},
{
name = top;
pos = (470,725);
}
);
layerId = "30C2FD74-1A74-41AC-9C29-B288AE1DBDD7";
shapes = (
{
closed = 1;
nodes = (
(170,0,l),
(170,611,l),
(155,601,l),
(443,0,l),
(497,0,l),
(786,601,l),
(770,611,l),
(770,0,l),
(850,0,l),
(850,725,l),
(760,725,l),
(451,85,l),
(490,85,l),
(180,725,l),
(90,725,l),
(90,0,l)
);
}
);
width = 940;
},
{
anchors = (
{
name = bottom;
pos = (480,0);
},
{
name = top;
pos = (480,725);
}
);
layerId = "9398AC28-6BE1-4A79-9C94-3CBC2F226CE7";
shapes = (
{
closed = 1;
nodes = (
(235,0,l),
(235,549,l),
(188,535,l),
(425,0,l),
(535,0,l),
(782,535,l),
(725,549,l),
(725,0,l),
(880,0,l),
(880,725,l),
(705,725,l),
(444,120,l),
(524,120,l),
(255,725,l),
(80,725,l),
(80,0,l)
);
}
);
width = 960;
},
{
anchors = (
{
name = bottom;
pos = (460,0);
},
{
name = top;
pos = (460,725);
}
);
layerId = "C1DB0BE6-5704-4A8C-8C00-D80E72C16D98";
shapes = (
{
closed = 1;
nodes = (
(145,0,l),
(145,636,l),
(140,628,l),
(437,0,l),
(483,0,l),
(778,628,l),
(775,636,l),
(775,0,l),
(820,0,l),
(820,725,l),
(772,725,l),
(453,49,l),
(464,49,l),
(148,725,l),
(100,725,l),
(100,0,l)
);
}
);
width = 920;
}
);
metricLeft = "=I";
metricRight = "=I";
unicode = 77;
},
{
color = 5;
glyphname = N;
kernLeft = H;
kernRight = H;
lastChange = "2025-08-10 21:46:42 +0000";
layers = (
{
anchors = (
{
name = bottom;
pos = (380,0);
},
{
name = top;
pos = (380,725);
}
);
layerId = "30C2FD74-1A74-41AC-9C29-B288AE1DBDD7";
shapes = (
{
closed = 1;
nodes = (
(170,0,l),
(170,605,l),
(153,605,l),
(590,0,l),
(670,0,l),
(670,725,l),
(590,725,l),
(590,124,l),
(607,124,l),
(170,725,l),
(90,725,l),
(90,0,l)
);
}
);
width = 760;
},
{
anchors = (
{
name = bottom;
pos = (405,0);
},
{
name = top;
pos = (405,725);
}
);
layerId = "9398AC28-6BE1-4A79-9C94-3CBC2F226CE7";
shapes = (
{
closed = 1;
nodes = (
(235,0,l),
(235,516,l),
(197,501,l),
(590,0,l),
(730,0,l),
(730,725,l),
(575,725,l),
(575,213,l),
(619,228,l),
(219,725,l),
(80,725,l),
(80,0,l)
);
}
);
width = 810;
},
{
anchors = (
{
name = bottom;
pos = (375,0);
},
{
name = top;
pos = (375,725);
}
);
layerId = "C1DB0BE6-5704-4A8C-8C00-D80E72C16D98";
shapes = (
{
closed = 1;
nodes = (
(145,0,l),
(145,646,l),
(139,646,l),
(608,0,l),
(650,0,l),
(650,725,l),
(605,725,l),
(605,83,l),
(608,83,l),
(142,725,l),
(100,725,l),
(100,0,l)
);
}
);
width = 750;
}
);
metricLeft = "=I";
metricRight = "=I";
unicode = 78;
},
{
color = 0;
glyphname = Eng;
kernLeft = H;
kernRight = H;
lastChange = "2025-02-11 02:25:01 +0000";
layers = (
{
layerId = "C1DB0BE6-5704-4A8C-8C00-D80E72C16D98";
shapes = (
{
ref = N;
},
{
closed = 1;
nodes = (
(610,2,l),
(610,-103,o),
(562,-165,o),
(481,-165,cs),
(434,-165,o),
(395,-135,o),
(368,-77,c),
(321,-98,l),
(354,-175,o),
(409,-215,o),
(481,-215,cs),
(594,-215,o),
(660,-134,o),
(660,2,c)
);
}
);
width = 760;
},
{
layerId = "30C2FD74-1A74-41AC-9C29-B288AE1DBDD7";
shapes = (
{
ref = N;
},
{
closed = 1;
nodes = (
(590,2,l),
(590,-94,o),
(544,-151,o),
(467,-151,cs),
(416,-151,o),
(379,-120,o),
(349,-53,c),
(274,-86,l),
(313,-185,o),
(374,-231,o),
(467,-231,cs),
(595,-231,o),
(670,-144,o),
(670,2,c)
);
}
);
width = 760;
},
{
layerId = "9398AC28-6BE1-4A79-9C94-3CBC2F226CE7";
shapes = (
{
ref = N;
},
{
closed = 1;
nodes = (
(590,1,l),
(589,-54,o),
(554,-86,o),
(496,-86,cs),
(449,-86,o),
(412,-53,o),
(389,10,c),
(252,-56,l),
(290,-168,o),
(374,-226,o),
(496,-226,cs),
(639,-226,o),
(726,-142,o),
(730,1,c)
);
}
);
width = 810;
}
);
metricLeft = "=N";
metricRight = "=N";
unicode = 330;
},
{
color = 5;
glyphname = O;
kernLeft = O;
kernRight = O;
lastChange = "2025-08-10 21:47:23 +0000";
layers = (
{
anchors = (
{
name = bottom;
pos = (403,0);
},
{
name = center;
pos = (403,363);
},
{
name = ogonek;
pos = (453,0);
},
{
name = top;
pos = (403,725);
},
{
name = topright;
pos = (541,707);
}
);
layerId = "30C2FD74-1A74-41AC-9C29-B288AE1DBDD7";
shapes = (
{
closed = 1;
nodes = (
(599,-12,o),
(746,149,o),
(746,363,cs),
(746,577,o),
(599,737,o),
(403,737,cs),
(207,737,o),
(60,577,o),
(60,363,cs),
(60,149,o),
(207,-12,o),
(403,-12,cs)
);
},
{
closed = 1;
nodes = (
(253,68,o),
(140,194,o),
(140,363,cs),
(140,531,o),
(253,657,o),
(403,657,cs),
(553,657,o),
(666,531,o),
(666,363,cs),
(666,194,o),
(553,68,o),
(403,68,cs)
);
}
);
width = 806;
},
{
anchors = (
{
name = bottom;
pos = (405,0);
},
{
name = center;
pos = (405,363);
},
{
name = ogonek;
pos = (455,0);
},
{
name = top;
pos = (405,725);
},
{
name = topright;
pos = (545,707);
}
);
layerId = "9398AC28-6BE1-4A79-9C94-3CBC2F226CE7";
shapes = (
{
closed = 1;
nodes = (
(608,-12,o),
(760,149,o),
(760,363,cs),
(760,577,o),
(608,737,o),
(405,737,cs),
(202,737,o),
(50,577,o),
(50,363,cs),
(50,149,o),
(202,-12,o),
(405,-12,cs)
);
},
{
closed = 1;
nodes = (
(296,138,o),
(215,234,o),
(215,363,cs),
(215,491,o),
(296,587,o),
(405,587,cs),
(514,587,o),
(595,491,o),
(595,363,cs),
(595,234,o),
(514,138,o),
(405,138,cs)
);
}
);
width = 810;
},
{
anchors = (
{
name = bottom;
pos = (405,0);
},
{
name = center;
pos = (405,363);
},
{
name = ogonek;
pos = (455,0);
},
{
name = top;
pos = (405,725);
},
{
name = topright;
pos = (540,707);
}
);
layerId = "C1DB0BE6-5704-4A8C-8C00-D80E72C16D98";
shapes = (
{
closed = 1;
nodes = (
(596,-10,o),
(740,150,o),
(740,363,cs),
(740,576,o),
(596,735,o),
(405,735,cs),
(214,735,o),
(70,576,o),
(70,363,cs),
(70,150,o),
(214,-10,o),
(405,-10,cs)
);
},
{
closed = 1;
nodes = (
(242,35,o),
(115,178,o),
(115,363,cs),
(115,547,o),
(242,690,o),
(405,690,cs),
(568,690,o),
(695,547,o),
(695,363,cs),
(695,178,o),
(568,35,o),
(405,35,cs)
);
}
);
width = 810;
}
);
metricRight = "=|";
unicode = 79;
},
{
color = 5;
glyphname = P;
kernLeft = H;
kernRight = P;
lastChange = "2025-08-10 21:48:04 +0000";
layers = (
{
anchors = (
{
name = bottom;
pos = (325,0);
},
{
name = top;
pos = (324,725);
}
);
layerId = "30C2FD74-1A74-41AC-9C29-B288AE1DBDD7";
shapes = (
{
closed = 1;
nodes = (
(170,0,l),
(170,270,l),
(346,270,ls),
(498,270,o),
(600,361,o),
(600,497,cs),
(600,634,o),
(498,725,o),
(346,725,cs),
(90,725,l),
(90,0,l)
);
},
{
closed = 1;
nodes = (
(170,650,l),
(350,650,ls),
(452,650,o),
(520,589,o),
(520,498,cs),
(520,406,o),
(452,345,o),
(350,345,cs),
(170,345,l)
);
}
);
width = 650;
},
{
anchors = (
{
name = bottom;
pos = (370,0);
},
{
name = top;
pos = (339,725);
}
);
layerId = "9398AC28-6BE1-4A79-9C94-3CBC2F226CE7";
shapes = (
{
closed = 1;
nodes = (
(235,0,l),
(235,250,l),
(366,250,ls),
(530,250,o),
(640,345,o),
(640,487,cs),
(640,630,o),
(530,725,o),
(366,725,cs),
(80,725,l),
(80,0,l)
);
},
{
closed = 1;
nodes = (
(235,590,l),
(367,590,ls),
(438,590,o),
(485,549,o),
(485,487,cs),
(485,426,o),
(438,385,o),
(367,385,cs),
(235,385,l)
);
}
);
width = 680;
},
{
anchors = (
{
name = bottom;
pos = (320,0);
},
{
name = top;
pos = (319,725);
}
);
layerId = "C1DB0BE6-5704-4A8C-8C00-D80E72C16D98";
shapes = (
{
closed = 1;
nodes = (
(145,0,l),
(145,280,l),
(339,280,ls),
(494,280,o),
(580,362,o),
(580,502,cs),
(580,642,o),
(494,725,o),
(339,725,cs),
(100,725,l),
(100,0,l)
);
},
{
closed = 1;
nodes = (
(145,680,l),
(339,680,ls),
(462,680,o),
(535,614,o),
(535,503,cs),
(535,391,o),
(462,325,o),
(339,325,cs),
(145,325,l)
);
}
);
width = 640;
}
);
metricLeft = "=I";
metricRight = "=O-10";
unicode = 80;
},
{
glyphname = Thorn;
kernLeft = H;
kernRight = P;
lastChange = "2025-03-31 21:33:30 +0000";
layers = (
{
layerId = "30C2FD74-1A74-41AC-9C29-B288AE1DBDD7";
shapes = (
{
closed = 1;
nodes = (
(140,0,l),
(140,145,l),
(296,145,ls),
(462,145,o),
(560,226,o),
(560,362,cs),
(560,499,o),
(462,580,o),
(296,580,cs),
(140,580,l),
(140,725,l),
(60,725,l),
(60,0,l)
);
},
{
closed = 1;
nodes = (
(140,505,l),
(300,505,ls),
(413,505,o),
(480,452,o),
(480,363,cs),
(480,273,o),
(413,220,o),
(300,220,cs),
(140,220,l)
);
}
);
width = 610;
},
{
layerId = "9398AC28-6BE1-4A79-9C94-3CBC2F226CE7";
shapes = (
{
closed = 1;
nodes = (
(205,0,l),
(205,135,l),
(316,135,ls),
(495,135,o),
(600,219,o),
(600,362,cs),
(600,505,o),
(495,590,o),
(316,590,cs),
(205,590,l),
(205,725,l),
(50,725,l),
(50,0,l)
);
},
{
closed = 1;
nodes = (
(205,455,l),
(317,455,ls),
(397,455,o),
(445,420,o),
(445,362,cs),
(445,304,o),
(397,270,o),
(317,270,cs),
(205,270,l)
);
}
);
width = 640;
},
{
layerId = "C1DB0BE6-5704-4A8C-8C00-D80E72C16D98";
shapes = (
{
closed = 1;
nodes = (
(120,0,l),
(120,150,l),
(314,150,ls),
(449,150,o),
(550,241,o),
(550,362,cs),
(550,484,o),
(449,575,o),
(314,575,cs),
(120,575,l),
(120,725,l),
(70,725,l),
(70,0,l)
);
},
{
closed = 1;
nodes = (
(120,530,l),
(314,530,ls),
(420,530,o),
(500,458,o),
(500,363,cs),
(500,267,o),
(420,195,o),
(314,195,cs),
(120,195,l)
);
}
);
width = 610;
}
);
metricLeft = "=O";
metricRight = "=O-10";
unicode = 222;
},
{
color = 5;
glyphname = Q;
kernLeft = O;
kernRight = O;
lastChange = "2025-08-10 21:48:27 +0000";
layers = (
{
anchors = (
{
name = bottom;
pos = (403,0);
},
{
name = top;
pos = (403,725);
}
);
layerId = "30C2FD74-1A74-41AC-9C29-B288AE1DBDD7";
shapes = (
{
closed = 1;
nodes = (
(696,-47,l),
(444,324,l),
(381,281,l),
(633,-90,l)
);
},
{
ref = O;
}
);
width = 806;
},
{
anchors = (
{
name = bottom;
pos = (405,0);
},
{
name = top;
pos = (405,725);
}
);
layerId = "9398AC28-6BE1-4A79-9C94-3CBC2F226CE7";
shapes = (
{
closed = 1;
nodes = (
(740,-35,l),
(478,346,l),
(362,267,l),
(621,-114,l)
);
},
{
ref = O;
}
);
width = 810;
},
{
anchors = (
{
name = bottom;
pos = (405,0);
},
{
name = top;
pos = (405,725);
}
);
layerId = "C1DB0BE6-5704-4A8C-8C00-D80E72C16D98";
shapes = (
{
closed = 1;
nodes = (
(677,-38,l),
(436,317,l),
(396,290,l),
(637,-66,l)
);
},
{
ref = O;
}
);
width = 810;
}
);
metricLeft = "=O";
metricRight = "=O";
unicode = 81;
},
{
color = 5;
glyphname = S;
kernLeft = S;
kernRight = S;
lastChange = "2025-08-13 13:28:25 +0000";
layers = (
{
anchors = (
{
name = bottom;
pos = (332,0);
},
{
name = top;
pos = (316,725);
}
);
layerId = "30C2FD74-1A74-41AC-9C29-B288AE1DBDD7";
shapes = (
{
closed = 1;
nodes = (
(470,-11,o),
(573,75,o),
(573,191,cs),
(573,290,o),
(512,354,o),
(395,389,cs),
(277,424,ls),
(197,448,o),
(169,485,o),
(169,546,cs),
(169,617,o),
(231,659,o),
(313,659,cs),
(393,659,o),
(465,620,o),
(498,543,c),
(564,575,l),
(529,676,o),
(430,735,o),
(312,735,cs),
(185,735,o),
(89,655,o),
(89,540,cs),
(89,448,o),
(138,386,o),
(243,355,cs),
(377,315,ls),
(451,293,o),
(493,257,o),
(493,184,cs),
(493,113,o),
(424,65,o),
(332,65,cs),
(245,65,o),
(166,123,o),
(126,224,c),
(60,192,l),
(100,67,o),
(205,-11,o),
(332,-11,cs)
);
}
);
width = 633;
},
{
anchors = (
{
name = bottom;
pos = (350,0);
},
{
name = top;
pos = (331,745);
}
);
layerId = "9398AC28-6BE1-4A79-9C94-3CBC2F226CE7";
shapes = (
{
closed = 1;
nodes = (
(502,-11,o),
(616,84,o),
(616,211,cs),
(616,311,o),
(557,380,o),
(437,419,cs),
(294,465,ls),
(251,479,o),
(239,504,o),
(239,531,cs),
(239,566,o),
(277,590,o),
(331,590,cs),
(404,590,o),
(449,555,o),
(478,494,c),
(606,556,l),
(569,668,o),
(471,735,o),
(341,735,cs),
(194,735,o),
(83,642,o),
(83,515,cs),
(83,415,o),
(142,360,o),
(252,324,cs),
(398,276,ls),
(439,262,o),
(461,233,o),
(461,197,cs),
(461,160,o),
(424,134,o),
(370,134,cs),
(289,134,o),
(218,187,o),
(182,260,c),
(50,197,l),
(86,81,o),
(219,-11,o),
(350,-11,cs)
);
}
);
width = 666;
},
{
anchors = (
{
name = bottom;
pos = (334,0);
},
{
name = top;
pos = (322,725);
}
);
layerId = "C1DB0BE6-5704-4A8C-8C00-D80E72C16D98";
shapes = (
{
closed = 1;
nodes = (
(466,-10,o),
(565,72,o),
(565,183,cs),
(565,276,o),
(505,342,o),
(408,371,cs),
(282,409,ls),
(198,434,o),
(145,488,o),
(145,552,cs),
(145,629,o),
(220,690,o),
(313,690,cs),
(400,690,o),
(479,653,o),
(516,572,c),
(556,590,l),
(510,696,o),
(416,735,o),
(312,735,cs),
(191,735,o),
(100,664,o),
(100,553,cs),
(100,463,o),
(158,396,o),
(260,367,cs),
(399,327,ls),
(461,309,o),
(520,265,o),
(520,184,cs),
(520,101,o),
(437,35,o),
(334,35,cs),
(251,35,o),
(165,91,o),
(112,187,c),
(70,168,l),
(126,57,o),
(223,-10,o),
(335,-10,cs)
);
}
);
width = 635;
}
);
metricLeft = "=O";
metricRight = "=O";
unicode = 83;
},
{
color = 5;
glyphname = Germandbls;
kernLeft = S;
kernRight = S;
lastChange = "2023-12-13 00:16:01 +0000";
layers = (
{
layerId = "C1DB0BE6-5704-4A8C-8C00-D80E72C16D98";
shapes = (
{
closed = 1;
nodes = (
(522,-12,o),
(600,80,o),
(600,201,cs),
(600,317,o),
(451,411,o),
(293,411,c),
(323,402,l),
(540,537,l),
(540,644,o),
(450,725,o),
(331,725,cs),
(100,725,l),
(100,0,l),
(150,0,l),
(150,680,l),
(325,680,ls),
(419,680,o),
(490,628,o),
(490,559,c),
(265,415,l),
(265,368,l),
(428,368,o),
(553,293,o),
(553,200,cs),
(553,111,o),
(492,35,o),
(393,35,cs),
(326,35,o),
(295,46,o),
(241,66,c),
(227,18,l),
(280,1,o),
(319,-12,o),
(391,-12,cs)
);
}
);
width = 660;
},
{
layerId = "30C2FD74-1A74-41AC-9C29-B288AE1DBDD7";
shapes = (
{
closed = 1;
nodes = (
(507,-12,o),
(620,80,o),
(620,202,cs),
(620,309,o),
(521,388,o),
(389,412,c),
(390,388,l),
(550,498,l),
(550,671,o),
(476,725,o),
(333,725,cs),
(90,725,l),
(90,0,l),
(170,0,l),
(170,650,l),
(327,650,ls),
(421,650,o),
(470,621,o),
(470,545,c),
(287,410,l),
(287,338,l),
(432,338,o),
(540,291,o),
(540,201,cs),
(540,125,o),
(462,63,o),
(384,63,cs),
(334,63,o),
(303,72,o),
(240,93,c),
(220,18,l),
(283,-3,o),
(314,-12,o),
(384,-12,cs)
);
}
);
width = 670;
},
{
layerId = "9398AC28-6BE1-4A79-9C94-3CBC2F226CE7";
shapes = (
{
closed = 1;
nodes = (
(572,-12,o),
(661,77,o),
(661,207,cs),
(661,314,o),
(579,395,o),
(424,425,c),
(424,349,l),
(600,502,l),
(600,649,o),
(503,725,o),
(335,725,cs),
(80,725,l),
(80,0,l),
(235,0,l),
(235,595,l),
(346,595,ls),
(398,595,o),
(435,588,o),
(435,535,c),
(316,434,l),
(316,310,l),
(419,310,o),
(496,266,o),
(496,207,cs),
(496,159,o),
(455,123,o),
(413,123,cs),
(363,123,o),
(333,130,o),
(299,143,c),
(259,18,l),
(289,5,o),
(363,-12,o),
(405,-12,cs)
);
}
);
width = 701;
}
);
metricLeft = "=B";
metricRight = "=B";
unicode = 7838;
},
{
color = 5;
glyphname = T;
kernLeft = T;
kernRight = T;
lastChange = "2025-08-10 22:09:29 +0000";
layers = (
{
anchors = (
{
name = bottom;
pos = (290,0);
},
{
name = center;
pos = (290,363);
},
{
name = top;
pos = (290,725);
}
);
layerId = "30C2FD74-1A74-41AC-9C29-B288AE1DBDD7";
shapes = (
{
closed = 1;
nodes = (
(331,0,l),
(331,650,l),
(565,650,l),
(565,725,l),
(15,725,l),
(15,650,l),
(251,650,l),
(251,0,l)
);
}
);
width = 580;
},
{
anchors = (
{
name = bottom;
pos = (305,0);
},
{
name = center;
pos = (305,362);
},
{
name = top;
pos = (305,725);
}
);
layerId = "9398AC28-6BE1-4A79-9C94-3CBC2F226CE7";
shapes = (
{
closed = 1;
nodes = (
(384,0,l),
(384,590,l),
(600,590,l),
(600,725,l),
(10,725,l),
(10,590,l),
(229,590,l),
(229,0,l)
);
}
);
width = 610;
},
{
anchors = (
{
name = bottom;
pos = (305,0);
},
{
name = center;
pos = (305,363);
},
{
name = top;
pos = (305,725);
}
);
layerId = "C1DB0BE6-5704-4A8C-8C00-D80E72C16D98";
shapes = (
{
closed = 1;
nodes = (
(328,0,l),
(328,680,l),
(590,680,l),
(590,725,l),
(20,725,l),
(20,680,l),
(283,680,l),
(283,0,l)
);
}
);
width = 610;
}
);
metricLeft = "=|F/2";
metricRight = "=F/2";
unicode = 84;
},
{
color = 5;
glyphname = U;
kernLeft = U;
kernRight = U;
lastChange = "2025-08-10 22:09:58 +0000";
layers = (
{
anchors = (
{
name = bottom;
pos = (355,0);
},
{
name = ogonek;
pos = (375,0);
},
{
name = top;
pos = (355,725);
},
{
name = topright;
pos = (590,725);
}
);
layerId = "30C2FD74-1A74-41AC-9C29-B288AE1DBDD7";
shapes = (
{
closed = 1;
nodes = (
(520,-12,o),
(630,98,o),
(630,263,cs),
(630,725,l),
(550,725,l),
(550,263,ls),
(550,137,o),
(478,63,o),
(355,63,cs),
(232,63,o),
(160,137,o),
(160,263,cs),
(160,725,l),
(80,725,l),
(80,263,ls),
(80,98,o),
(190,-12,o),
(355,-12,cs)
);
}
);
width = 710;
},
{
anchors = (
{
name = bottom;
pos = (375,0);
},
{
name = ogonek;
pos = (395,0);
},
{
name = top;
pos = (375,725);
},
{
name = topright;
pos = (580,725);
}
);
layerId = "9398AC28-6BE1-4A79-9C94-3CBC2F226CE7";
shapes = (
{
closed = 1;
nodes = (
(558,-12,o),
(680,110,o),
(680,293,cs),
(680,725,l),
(525,725,l),
(525,303,ls),
(525,193,o),
(469,133,o),
(375,133,cs),
(281,133,o),
(225,193,o),
(225,303,cs),
(225,725,l),
(70,725,l),
(70,293,ls),
(70,110,o),
(192,-12,o),
(375,-12,cs)
);
}
);
width = 750;
},
{
anchors = (
{
name = bottom;
pos = (355,0);
},
{
name = ogonek;
pos = (375,0);
},
{
name = top;
pos = (355,725);
},
{
name = topright;
pos = (595,725);
}
);
layerId = "C1DB0BE6-5704-4A8C-8C00-D80E72C16D98";
shapes = (
{
closed = 1;
nodes = (
(525,-12,o),
(620,89,o),
(620,261,cs),
(620,725,l),
(575,725,l),
(575,257,ls),
(575,123,o),
(487,33,o),
(355,33,cs),
(223,33,o),
(135,123,o),
(135,257,cs),
(135,725,l),
(90,725,l),
(90,261,ls),
(90,89,o),
(185,-12,o),
(355,-12,cs)
);
}
);
width = 710;
}
);
metricLeft = "=O+20";
metricRight = "=O+20";
unicode = 85;
},
{
color = 5;
glyphname = V;
kernLeft = V;
kernRight = V;
lastChange = "2025-08-10 21:34:23 +0000";
layers = (
{
anchors = (
{
name = bottom;
pos = (348,0);
},
{
name = top;
pos = (348,725);
}
);
layerId = "30C2FD74-1A74-41AC-9C29-B288AE1DBDD7";
shapes = (
{
closed = 1;
nodes = (
(393,0,l),
(676,725,l),
(589,725,l),
(340,71,l),
(356,71,l),
(106,725,l),
(20,725,l),
(303,0,l)
);
}
);
width = 696;
},
{
anchors = (
{
name = bottom;
pos = (373,0);
},
{
name = top;
pos = (373,725);
}
);
layerId = "9398AC28-6BE1-4A79-9C94-3CBC2F226CE7";
shapes = (
{
closed = 1;
nodes = (
(470,0,l),
(735,725,l),
(568,725,l),
(366,147,l),
(380,147,l),
(178,725,l),
(10,725,l),
(275,0,l)
);
}
);
width = 745;
},
{
anchors = (
{
name = bottom;
pos = (332,0);
},
{
name = top;
pos = (332,725);
}
);
layerId = "C1DB0BE6-5704-4A8C-8C00-D80E72C16D98";
shapes = (
{
closed = 1;
nodes = (
(358,0,l),
(639,725,l),
(587,725,l),
(327,46,l),
(338,46,l),
(77,725,l),
(25,725,l),
(306,0,l)
);
}
);
width = 664;
}
);
metricRight = "=|V";
unicode = 86;
},
{
color = 5;
glyphname = W;
kernLeft = W;
kernRight = W;
lastChange = "2025-08-10 22:10:49 +0000";
layers = (
{
anchors = (
{
name = bottom;
pos = (496,0);
},
{
name = top;
pos = (496,725);
}
);
layerId = "30C2FD74-1A74-41AC-9C29-B288AE1DBDD7";
shapes = (
{
closed = 1;
nodes = (
(314,0,l),
(505,650,l),
(487,650,l),
(678,0,l),
(763,0,l),
(977,725,l),
(896,725,l),
(710,78,l),
(728,78,l),
(539,725,l),
(454,725,l),
(264,78,l),
(281,78,l),
(96,725,l),
(15,725,l),
(229,0,l)
);
}
);
width = 992;
},
{
anchors = (
{
name = bottom;
pos = (510,0);
},
{
name = top;
pos = (510,725);
}
);
layerId = "9398AC28-6BE1-4A79-9C94-3CBC2F226CE7";
shapes = (
{
closed = 1;
nodes = (
(380,0,l),
(536,580,l),
(484,580,l),
(640,0,l),
(820,0,l),
(1015,725,l),
(847,725,l),
(700,121,l),
(745,121,l),
(590,725,l),
(430,725,l),
(275,121,l),
(320,121,l),
(173,725,l),
(5,725,l),
(200,0,l)
);
}
);
width = 1020;
},
{
anchors = (
{
name = bottom;
pos = (487,0);
},
{
name = top;
pos = (487,725);
}
);
layerId = "C1DB0BE6-5704-4A8C-8C00-D80E72C16D98";
shapes = (
{
closed = 1;
nodes = (
(281,0,l),
(496,686,l),
(478,686,l),
(693,0,l),
(731,0,l),
(954,725,l),
(905,725,l),
(699,44,l),
(725,45,l),
(511,725,l),
(463,725,l),
(249,45,l),
(275,44,l),
(69,725,l),
(20,725,l),
(243,0,l)
);
}
);
width = 974;
}
);
metricLeft = "=V-5";
metricRight = "=V-5";
unicode = 87;
},
{
color = 5;
glyphname = X;
kernLeft = W;
kernRight = W;
lastChange = "2025-08-10 22:12:10 +0000";
layers = (
{
anchors = (
{
name = bottom;
pos = (318,0);
},
{
name = top;
pos = (318,725);
}
);
layerId = "30C2FD74-1A74-41AC-9C29-B288AE1DBDD7";
shapes = (
{
closed = 1;
nodes = (
(118,0,l),
(341,314,l),
(294,314,l),
(515,0,l),
(615,0,l),
(362,362,l),
(606,725,l),
(506,725,l),
(294,409,l),
(341,409,l),
(128,725,l),
(28,725,l),
(272,362,l),
(20,0,l)
);
}
);
width = 635;
},
{
anchors = (
{
name = bottom;
pos = (350,0);
},
{
name = top;
pos = (350,725);
}
);
layerId = "9398AC28-6BE1-4A79-9C94-3CBC2F226CE7";
shapes = (
{
closed = 1;
nodes = (
(198,0,l),
(404,288,l),
(297,289,l),
(502,0,l),
(690,0,l),
(437,363,l),
(690,725,l),
(502,725,l),
(297,437,l),
(404,437,l),
(198,725,l),
(10,725,l),
(264,363,l),
(10,0,l)
);
}
);
width = 700;
},
{
anchors = (
{
name = bottom;
pos = (305,0);
},
{
name = top;
pos = (305,725);
}
);
layerId = "C1DB0BE6-5704-4A8C-8C00-D80E72C16D98";
shapes = (
{
closed = 1;
nodes = (
(84,0,l),
(308,324,l),
(300,324,l),
(525,0,l),
(584,0,l),
(329,363,l),
(572,725,l),
(513,725,l),
(300,402,l),
(308,402,l),
(94,725,l),
(35,725,l),
(278,363,l),
(25,0,l)
);
}
);
width = 609;
}
);
metricLeft = "=V";
metricRight = "=V";
unicode = 88;
},
{
color = 5;
glyphname = Y;
kernLeft = Y;
kernRight = Y;
lastChange = "2025-08-10 22:13:03 +0000";
layers = (
{
anchors = (
{
name = bottom;
pos = (321,0);
},
{
name = top;
pos = (321,725);
}
);
layerId = "30C2FD74-1A74-41AC-9C29-B288AE1DBDD7";
shapes = (
{
closed = 1;
nodes = (
(361,0,l),
(361,296,l),
(621,725,l),
(532,725,l),
(305,348,l),
(337,348,l),
(109,725,l),
(20,725,l),
(281,296,l),
(281,0,l)
);
}
);
width = 641;
},
{
anchors = (
{
name = bottom;
pos = (335,0);
},
{
name = top;
pos = (335,725);
}
);
layerId = "9398AC28-6BE1-4A79-9C94-3CBC2F226CE7";
shapes = (
{
closed = 1;
nodes = (
(413,0,l),
(413,276,l),
(660,725,l),
(483,725,l),
(304,379,l),
(367,379,l),
(187,725,l),
(10,725,l),
(258,275,l),
(258,0,l)
);
}
);
width = 670;
},
{
anchors = (
{
name = bottom;
pos = (315,0);
},
{
name = top;
pos = (315,725);
}
);
layerId = "C1DB0BE6-5704-4A8C-8C00-D80E72C16D98";
shapes = (
{
closed = 1;
nodes = (
(338,0,l),
(338,283,l),
(605,725,l),
(550,725,l),
(305,319,l),
(327,319,l),
(80,725,l),
(25,725,l),
(292,283,l),
(292,0,l)
);
}
);
width = 630;
}
);
metricLeft = "=V";
metricRight = "=V";
unicode = 89;
},
{
color = 5;
glyphname = Z;
kernLeft = Z;
kernRight = Z;
lastChange = "2025-08-10 22:12:55 +0000";
layers = (
{
anchors = (
{
name = bottom;
pos = (295,0);
},
{
name = center;
pos = (295,363);
},
{
name = top;
pos = (295,725);
}
);
layerId = "30C2FD74-1A74-41AC-9C29-B288AE1DBDD7";
shapes = (
{
closed = 1;
nodes = (
(565,0,l),
(565,75,l),
(121,75,l),
(556,651,l),
(556,725,l),
(50,725,l),
(50,650,l),
(461,650,l),
(25,74,l),
(25,0,l)
);
}
);
width = 590;
},
{
anchors = (
{
name = bottom;
pos = (288,0);
},
{
name = center;
pos = (288,363);
},
{
name = top;
pos = (288,725);
}
);
layerId = "9398AC28-6BE1-4A79-9C94-3CBC2F226CE7";
shapes = (
{
closed = 1;
nodes = (
(560,0,l),
(560,135,l),
(202,135,l),
(550,590,l),
(550,725,l),
(35,725,l),
(35,590,l),
(364,590,l),
(15,135,l),
(15,0,l)
);
}
);
width = 575;
},
{
anchors = (
{
name = bottom;
pos = (300,0);
},
{
name = center;
pos = (300,362);
},
{
name = top;
pos = (300,725);
}
);
layerId = "C1DB0BE6-5704-4A8C-8C00-D80E72C16D98";
shapes = (
{
closed = 1;
nodes = (
(570,0,l),
(570,45,l),
(91,45,l),
(560,680,l),
(560,725,l),
(57,725,l),
(57,680,l),
(500,680,l),
(30,45,l),
(30,0,l)
);
}
);
width = 600;
}
);
metricLeft = "=V+5";
metricRight = "=V+5";
unicode = 90;
},
{
color = 5;
glyphname = a;
kernLeft = a;
kernRight = a;
lastChange = "2025-08-09 03:10:14 +0000";
layers = (
{
anchors = (
{
name = bottom;
pos = (272,0);
},
{
name = ogonek;
pos = (490,0);
},
{
name = top;
pos = (275,549);
}
);
guides = (
{
pos = (657,149);
}
);
layerId = "30C2FD74-1A74-41AC-9C29-B288AE1DBDD7";
shapes = (
{
closed = 1;
nodes = (
(314,-12,o),
(395,38,o),
(426,105,c),
(415,105,l),
(415,0,l),
(490,0,l),
(490,348,l),
(415,348,l),
(415,232,ls),
(415,134,o),
(341,60,o),
(242,60,cs),
(172,60,o),
(120,105,o),
(120,166,cs),
(120,219,o),
(157,257,o),
(219,269,cs),
(291,281,o),
(382,264,o),
(431,231,c),
(431,303,l),
(379,337,o),
(275,352,o),
(201,338,cs),
(100,319,o),
(40,255,o),
(40,166,cs),
(40,64,o),
(124,-12,o),
(237,-12,cs)
);
},
{
closed = 1;
nodes = (
(490,347,l),
(487,475,o),
(405,556,o),
(270,556,cs),
(182,556,o),
(115,509,o),
(80,429,c),
(150,402,l),
(173,454,o),
(220,484,o),
(276,484,cs),
(362,484,o),
(414,430,o),
(415,347,c)
);
}
);
width = 570;
},
{
anchors = (
{
name = bottom;
pos = (284,0);
},
{
name = ogonek;
pos = (530,0);
},
{
name = top;
pos = (300,556);
}
);
layerId = "9398AC28-6BE1-4A79-9C94-3CBC2F226CE7";
shapes = (
{
closed = 1;
nodes = (
(310,-12,o),
(394,44,o),
(434,118,c),
(390,118,l),
(390,0,l),
(530,0,l),
(530,348,l),
(380,348,l),
(380,228,ls),
(380,159,o),
(333,98,o),
(256,98,cs),
(218,98,o),
(190,127,o),
(190,166,cs),
(190,204,o),
(215,231,o),
(256,239,cs),
(300,247,o),
(360,236,o),
(396,214,c),
(396,324,l),
(346,341,o),
(274,348,o),
(229,342,cs),
(107,324,o),
(35,258,o),
(35,166,cs),
(35,64,o),
(117,-12,o),
(226,-12,cs)
);
},
{
closed = 1;
nodes = (
(530,348,l),
(530,518,o),
(394,568,o),
(301,568,cs),
(192,568,o),
(111,516,o),
(76,430,c),
(194,383,l),
(211,417,o),
(238,437,o),
(284,437,cs),
(338,437,o),
(380,404,o),
(380,348,c)
);
}
);
width = 600;
},
{
anchors = (
{
name = bottom;
pos = (271,0);
},
{
name = ogonek;
pos = (480,0);
},
{
name = top;
pos = (285,536);
}
);
layerId = "C1DB0BE6-5704-4A8C-8C00-D80E72C16D98";
shapes = (
{
closed = 1;
nodes = (
(325,-12,o),
(412,38,o),
(439,105,c),
(435,105,l),
(435,0,l),
(480,0,l),
(480,345,l),
(435,345,l),
(435,238,ls),
(435,119,o),
(351,30,o),
(240,30,cs),
(157,30,o),
(95,85,o),
(95,158,cs),
(95,227,o),
(144,275,o),
(226,287,cs),
(297,299,o),
(380,279,o),
(451,234,c),
(451,284,l),
(381,323,o),
(292,339,o),
(211,329,cs),
(110,315,o),
(50,250,o),
(50,156,cs),
(50,60,o),
(130,-12,o),
(236,-12,cs)
);
},
{
closed = 1;
nodes = (
(480,345,l),
(479,460,o),
(398,546,o),
(277,546,cs),
(190,546,o),
(118,501,o),
(85,425,c),
(129,408,l),
(157,466,o),
(212,501,o),
(277,501,cs),
(372,501,o),
(434,435,o),
(435,345,c)
);
}
);
width = 570;
}
);
metricRight = "=I-10";
unicode = 97;
},
{
glyphname = a.ss01;
kernLeft = o;
kernRight = d;
lastChange = "2025-06-10 00:46:02 +0000";
layers = (
{
anchors = (
{
name = bottom;
pos = (300,0);
},
{
name = ogonek;
pos = (555,0);
},
{
name = top;
pos = (300,546);
}
);
layerId = "30C2FD74-1A74-41AC-9C29-B288AE1DBDD7";
shapes = (
{
closed = 1;
nodes = (
(379,-10,o),
(459,50,o),
(492,119,c),
(480,130,l),
(480,0,l),
(555,0,l),
(555,546,l),
(480,546,l),
(480,426,l),
(492,447,l),
(453,510,o),
(373,556,o),
(299,556,cs),
(162,556,o),
(50,433,o),
(50,273,cs),
(50,113,o),
(162,-10,o),
(299,-10,cs)
);
},
{
closed = 1;
nodes = (
(209,66,o),
(130,156,o),
(130,273,cs),
(130,390,o),
(209,480,o),
(303,480,cs),
(407,480,o),
(480,405,o),
(480,268,cs),
(480,151,o),
(407,66,o),
(303,66,cs)
);
}
);
width = 635;
},
{
anchors = (
{
name = bottom;
pos = (302,0);
},
{
name = ogonek;
pos = (600,0);
},
{
name = top;
pos = (325,556);
}
);
layerId = "9398AC28-6BE1-4A79-9C94-3CBC2F226CE7";
shapes = (
{
closed = 1;
nodes = (
(362,-10,o),
(423,20,o),
(474,99,c),
(460,130,l),
(460,0,l),
(600,0,l),
(600,556,l),
(450,556,l),
(450,432,l),
(473,462,l),
(430,537,o),
(368,566,o),
(308,566,cs),
(160,566,o),
(45,443,o),
(45,278,cs),
(45,113,o),
(160,-10,o),
(309,-10,cs)
);
},
{
closed = 1;
nodes = (
(257,123,o),
(200,189,o),
(200,278,cs),
(200,367,o),
(257,433,o),
(327,433,cs),
(400,433,o),
(450,359,o),
(450,273,cs),
(450,187,o),
(400,123,o),
(327,123,cs)
);
}
);
width = 670;
},
{
anchors = (
{
name = bottom;
pos = (304,0);
},
{
name = ogonek;
pos = (550,0);
},
{
name = top;
pos = (304,536);
}
);
layerId = "C1DB0BE6-5704-4A8C-8C00-D80E72C16D98";
shapes = (
{
closed = 1;
nodes = (
(388,-10,o),
(477,51,o),
(513,132,c),
(505,149,l),
(505,0,l),
(550,0,l),
(550,536,l),
(505,536,l),
(505,397,l),
(513,414,l),
(480,489,o),
(390,546,o),
(304,546,cs),
(167,546,o),
(60,427,o),
(60,268,cs),
(60,109,o),
(167,-10,o),
(304,-10,cs)
);
},
{
closed = 1;
nodes = (
(194,35,o),
(108,135,o),
(108,268,cs),
(108,401,o),
(194,501,o),
(304,501,cs),
(417,501,o),
(502,399,o),
(502,263,cs),
(502,133,o),
(417,35,o),
(304,35,cs)
);
}
);
width = 640;
}
);
metricLeft = "=a+10";
metricRight = "=a";
},
{
color = 5;
glyphname = b;
kernLeft = h;
kernRight = o;
lastChange = "2025-06-10 01:56:47 +0000";
layers = (
{
anchors = (
{
name = bottom;
pos = (310,0);
},
{
name = center;
pos = (159,768);
},
{
name = top;
pos = (318,546);
}
);
layerId = "30C2FD74-1A74-41AC-9C29-B288AE1DBDD7";
shapes = (
{
closed = 1;
nodes = (
(165,517,l),
(165,757,l),
(90,757,l),
(90,517,l)
);
},
{
pos = (645,0);
ref = a.ss01;
scale = (-1,1);
}
);
width = 635;
},
{
anchors = (
{
name = bottom;
pos = (338,0);
},
{
name = center;
pos = (171,768);
},
{
name = top;
pos = (338,556);
}
);
layerId = "9398AC28-6BE1-4A79-9C94-3CBC2F226CE7";
shapes = (
{
closed = 1;
nodes = (
(230,515,l),
(230,745,l),
(80,745,l),
(80,515,l)
);
},
{
pos = (680,0);
ref = a.ss01;
scale = (-1,1);
}
);
width = 670;
},
{
anchors = (
{
name = bottom;
pos = (318,0);
},
{
name = center;
pos = (160,768);
},
{
name = top;
pos = (320,536);
}
);
layerId = "C1DB0BE6-5704-4A8C-8C00-D80E72C16D98";
shapes = (
{
closed = 1;
nodes = (
(145,507,l),
(145,757,l),
(100,757,l),
(100,507,l)
);
},
{
pos = (650,0);
ref = a.ss01;
scale = (-1,1);
}
);
width = 640;
}
);
metricLeft = "=I";
metricRight = "=|a";
unicode = 98;
},
{
glyphname = c;
kernLeft = o;
kernRight = o;
lastChange = "2025-08-10 21:37:34 +0000";
layers = (
{
anchors = (
{
name = bottom;
pos = (302,0);
},
{
name = top;
pos = (302,546);
}
);
layerId = "30C2FD74-1A74-41AC-9C29-B288AE1DBDD7";
shapes = (
{
closed = 1;
nodes = (
(404,-10,o),
(499,56,o),
(525,145,c),
(457,172,l),
(437,112,o),
(371,67,o),
(302,67,cs),
(200,67,o),
(123,155,o),
(123,273,cs),
(123,390,o),
(200,478,o),
(302,478,cs),
(371,478,o),
(438,434,o),
(457,376,c),
(525,401,l),
(499,490,o),
(404,556,o),
(302,556,cs),
(152,556,o),
(40,435,o),
(40,274,cs),
(40,112,o),
(152,-10,o),
(302,-10,cs)
);
}
);
width = 565;
},
{
anchors = (
{
name = bottom;
pos = (315,0);
},
{
name = top;
pos = (315,546);
}
);
layerId = "9398AC28-6BE1-4A79-9C94-3CBC2F226CE7";
shapes = (
{
closed = 1;
nodes = (
(434,-10,o),
(539,65,o),
(560,165,c),
(430,212,l),
(418,161,o),
(371,123,o),
(320,123,cs),
(246,123,o),
(190,190,o),
(190,279,cs),
(190,367,o),
(246,433,o),
(320,433,cs),
(371,433,o),
(418,395,o),
(430,344,c),
(560,390,l),
(537,491,o),
(432,566,o),
(315,566,cs),
(155,566,o),
(35,443,o),
(35,279,cs),
(35,114,o),
(155,-10,o),
(315,-10,cs)
);
}
);
width = 595;
},
{
anchors = (
{
name = bottom;
pos = (312,0);
},
{
name = top;
pos = (312,536);
}
);
layerId = "C1DB0BE6-5704-4A8C-8C00-D80E72C16D98";
shapes = (
{
closed = 1;
nodes = (
(411,-10,o),
(504,50,o),
(525,131,c),
(489,147,l),
(465,83,o),
(386,35,o),
(307,35,cs),
(186,35,o),
(100,135,o),
(100,268,cs),
(100,401,o),
(186,501,o),
(307,501,cs),
(386,501,o),
(464,452,o),
(488,390,c),
(525,406,l),
(503,486,o),
(410,546,o),
(307,546,cs),
(157,546,o),
(50,427,o),
(50,268,cs),
(50,109,o),
(157,-10,o),
(307,-10,cs)
);
}
);
width = 575;
}
);
metricLeft = "=a";
metricRight = "=|a";
unicode = 99;
},
{
glyphname = eth;
kernLeft = o;
kernRight = o;
lastChange = "2025-06-05 19:09:32 +0000";
layers = (
{
layerId = "30C2FD74-1A74-41AC-9C29-B288AE1DBDD7";
shapes = (
{
closed = 1;
nodes = (
(462,-12,o),
(585,82,o),
(585,314,cs),
(585,554,o),
(450,795,o),
(183,795,cs),
(139,795,o),
(93,787,o),
(45,771,c),
(61,704,l),
(101,718,o),
(141,725,o),
(180,725,cs),
(353,725,o),
(497,581,o),
(493,394,c),
(513,438,l),
(467,515,o),
(381,538,o),
(312,538,cs),
(156,538,o),
(40,421,o),
(40,265,cs),
(40,107,o),
(158,-12,o),
(319,-12,cs)
);
},
{
closed = 1;
nodes = (
(208,63,o),
(120,149,o),
(120,264,cs),
(120,375,o),
(201,463,o),
(313,463,cs),
(426,463,o),
(505,375,o),
(505,266,cs),
(505,152,o),
(420,63,o),
(313,63,cs)
);
},
{
closed = 1;
nodes = (
(555,679,l),
(535,739,l),
(237,634,l),
(257,575,l)
);
}
);
width = 625;
},
{
layerId = "9398AC28-6BE1-4A79-9C94-3CBC2F226CE7";
shapes = (
{
closed = 1;
nodes = (
(499,-12,o),
(620,108,o),
(620,335,cs),
(620,581,o),
(465,796,o),
(229,796,cs),
(184,796,o),
(136,788,o),
(86,771,c),
(101,651,l),
(134,661,o),
(167,666,o),
(199,666,cs),
(335,666,o),
(452,587,o),
(461,436,c),
(484,476,l),
(434,524,o),
(389,548,o),
(318,548,cs),
(158,548,o),
(35,428,o),
(35,270,cs),
(35,104,o),
(170,-12,o),
(328,-12,cs)
);
},
{
closed = 1;
nodes = (
(248,123,o),
(190,183,o),
(190,269,cs),
(190,353,o),
(245,413,o),
(328,413,cs),
(413,413,o),
(465,350,o),
(465,269,cs),
(465,185,o),
(409,123,o),
(328,123,cs)
);
},
{
closed = 1;
nodes = (
(601,679,l),
(581,739,l),
(227,615,l),
(247,555,l)
);
}
);
width = 655;
},
{
layerId = "C1DB0BE6-5704-4A8C-8C00-D80E72C16D98";
shapes = (
{
closed = 1;
nodes = (
(466,-12,o),
(582,93,o),
(582,301,cs),
(582,532,o),
(439,796,o),
(180,796,cs),
(141,796,o),
(102,790,o),
(62,778,c),
(75,731,l),
(111,743,o),
(144,750,o),
(175,750,cs),
(383,750,o),
(532,527,o),
(532,348,c),
(552,364,l),
(502,488,o),
(406,528,o),
(316,528,cs),
(161,528,o),
(50,411,o),
(50,259,cs),
(50,106,o),
(163,-12,o),
(319,-12,cs)
);
},
{
closed = 1;
nodes = (
(196,31,o),
(98,129,o),
(98,259,cs),
(98,385,o),
(189,485,o),
(315,485,cs),
(441,485,o),
(532,385,o),
(532,260,cs),
(532,132,o),
(437,31,o),
(315,31,cs)
);
},
{
closed = 1;
nodes = (
(546,694,l),
(531,737,l),
(255,640,l),
(270,598,l)
);
}
);
width = 632;
}
);
metricLeft = "=a";
metricRight = "=|a";
unicode = 240;
},
{
glyphname = e;
kernLeft = o;
kernRight = o;
lastChange = "2025-06-12 00:16:43 +0000";
layers = (
{
anchors = (
{
name = bottom;
pos = (288,0);
},
{
name = ogonek;
pos = (407,10);
},
{
name = top;
pos = (293,546);
}
);
layerId = "30C2FD74-1A74-41AC-9C29-B288AE1DBDD7";
shapes = (
{
closed = 1;
nodes = (
(396,-10,o),
(495,52,o),
(530,134,c),
(462,160,l),
(433,107,o),
(363,67,o),
(299,67,cs),
(196,67,o),
(118,156,o),
(118,274,cs),
(118,391,o),
(193,479,o),
(293,479,cs),
(384,479,o),
(452,400,o),
(452,295,c),
(488,327,l),
(88,327,l),
(88,252,l),
(528,252,l),
(529,267,o),
(530,291,o),
(530,308,cs),
(530,450,o),
(428,556,o),
(293,556,cs),
(148,556,o),
(40,436,o),
(40,275,cs),
(40,112,o),
(151,-10,o),
(299,-10,cs)
);
}
);
width = 580;
},
{
anchors = (
{
name = bottom;
pos = (303,0);
},
{
name = ogonek;
pos = (441,17);
},
{
name = top;
pos = (308,556);
}
);
layerId = "9398AC28-6BE1-4A79-9C94-3CBC2F226CE7";
shapes = (
{
closed = 1;
nodes = (
(426,-10,o),
(529,55,o),
(560,141,c),
(440,188,l),
(416,144,o),
(372,118,o),
(322,118,cs),
(241,118,o),
(192,176,o),
(190,273,c),
(194,377,o),
(237,438,o),
(308,438,cs),
(379,438,o),
(423,385,o),
(422,294,c),
(473,336,l),
(164,336,l),
(164,226,l),
(558,226,l),
(562,240,o),
(565,269,o),
(565,294,cs),
(565,449,o),
(453,566,o),
(310,566,cs),
(150,566,o),
(35,443,o),
(35,279,cs),
(35,114,o),
(157,-10,o),
(320,-10,cs)
);
}
);
width = 610;
},
{
anchors = (
{
name = bottom;
pos = (293,0);
},
{
name = ogonek;
pos = (414,10);
},
{
name = top;
pos = (293,536);
}
);
layerId = "C1DB0BE6-5704-4A8C-8C00-D80E72C16D98";
shapes = (
{
closed = 1;
nodes = (
(397,-10,o),
(493,50,o),
(525,129,c),
(484,144,l),
(458,82,o),
(379,35,o),
(300,35,cs),
(185,35,o),
(98,135,o),
(98,268,cs),
(98,401,o),
(185,501,o),
(300,501,cs),
(411,501,o),
(490,407,o),
(484,281,c),
(501,295,l),
(73,295,l),
(73,253,l),
(527,253,l),
(529,262,o),
(530,280,o),
(530,293,cs),
(530,438,o),
(431,546,o),
(300,546,cs),
(157,546,o),
(50,427,o),
(50,268,cs),
(50,109,o),
(157,-10,o),
(300,-10,cs)
);
}
);
width = 590;
}
);
metricLeft = "=a";
metricRight = "=|a+10";
unicode = 101;
},
{
glyphname = g;
kernLeft = o;
kernRight = g;
lastChange = "2025-06-19 02:36:59 +0000";
layers = (
{
anchors = (
{
name = bottom;
pos = (306,-240);
},
{
name = top;
pos = (306,546);
}
);
guides = (
{
pos = (119,288);
}
);
layerId = "30C2FD74-1A74-41AC-9C29-B288AE1DBDD7";
shapes = (
{
closed = 1;
nodes = (
(313,-220,ls),
(448,-220,o),
(550,-117,o),
(550,21,cs),
(550,546,l),
(475,546,l),
(475,416,l),
(487,437,l),
(444,526,o),
(361,558,o),
(294,558,cs),
(155,558,o),
(50,442,o),
(50,288,cs),
(50,134,o),
(155,18,o),
(294,18,cs),
(374,18,o),
(457,56,o),
(487,129,c),
(475,140,l),
(475,21,ls),
(475,-74,o),
(401,-145,o),
(302,-145,cs),
(294,-145,ls),
(227,-145,o),
(158,-96,o),
(132,-31,c),
(52,-55,l),
(84,-149,o),
(184,-220,o),
(286,-220,cs)
);
},
{
closed = 1;
nodes = (
(202,93,o),
(130,177,o),
(130,288,cs),
(130,399,o),
(202,483,o),
(298,483,cs),
(402,483,o),
(480,399,o),
(480,288,cs),
(480,177,o),
(402,93,o),
(298,93,cs)
);
}
);
width = 630;
},
{
anchors = (
{
name = bottom;
pos = (316,-240);
},
{
name = top;
pos = (313,556);
}
);
guides = (
{
pos = (191,298);
}
);
layerId = "9398AC28-6BE1-4A79-9C94-3CBC2F226CE7";
shapes = (
{
closed = 1;
nodes = (
(316,-220,ls),
(465,-220,o),
(575,-110,o),
(575,29,cs),
(575,556,l),
(435,556,l),
(435,427,l),
(454,463,l),
(421,523,o),
(349,568,o),
(286,568,cs),
(148,568,o),
(45,452,o),
(45,298,cs),
(45,143,o),
(150,27,o),
(289,27,cs),
(348,27,o),
(419,70,o),
(454,128,c),
(425,164,l),
(425,29,ls),
(425,-33,o),
(379,-85,o),
(315,-85,cs),
(305,-85,ls),
(241,-85,o),
(199,-55,o),
(184,-3,c),
(45,-42,l),
(82,-154,o),
(172,-220,o),
(295,-220,cs)
);
},
{
closed = 1;
nodes = (
(249,163,o),
(200,221,o),
(200,298,cs),
(200,375,o),
(249,433,o),
(315,433,cs),
(384,433,o),
(435,375,o),
(435,298,cs),
(435,221,o),
(384,163,o),
(315,163,cs)
);
}
);
width = 645;
},
{
anchors = (
{
name = bottom;
pos = (306,-240);
},
{
name = top;
pos = (306,536);
}
);
guides = (
{
pos = (89,277);
}
);
layerId = "C1DB0BE6-5704-4A8C-8C00-D80E72C16D98";
shapes = (
{
closed = 1;
nodes = (
(304,-220,ls),
(440,-220,o),
(540,-115,o),
(540,18,cs),
(540,536,l),
(495,536,l),
(495,397,l),
(505,414,l),
(472,489,o),
(385,546,o),
(297,546,cs),
(158,546,o),
(60,428,o),
(60,277,cs),
(60,126,o),
(158,8,o),
(297,8,cs),
(385,8,o),
(472,65,o),
(505,142,c),
(495,159,l),
(495,18,ls),
(495,-90,o),
(410,-178,o),
(303,-178,cs),
(285,-178,ls),
(209,-178,o),
(145,-129,o),
(112,-63,c),
(72,-75,l),
(107,-160,o),
(186,-220,o),
(285,-220,cs)
);
},
{
closed = 1;
nodes = (
(191,53,o),
(108,149,o),
(108,277,cs),
(108,405,o),
(191,501,o),
(297,501,cs),
(410,501,o),
(497,405,o),
(497,277,cs),
(497,149,o),
(410,53,o),
(297,53,cs)
);
}
);
width = 630;
}
);
metricLeft = "=a+10";
metricRight = "=a";
unicode = 103;
},
{
color = 5;
glyphname = i;
kernLeft = i;
kernRight = i;
lastChange = "2025-06-10 02:48:37 +0000";
layers = (
{
anchors = (
{
name = bottom;
pos = (141,0);
}
);
guides = (
{
angle = 90;
pos = (140,539);
}
);
layerId = "30C2FD74-1A74-41AC-9C29-B288AE1DBDD7";
shapes = (
{
closed = 1;
nodes = (
(178,0,l),
(178,546,l),
(103,546,l),
(103,0,l)
);
},
{
pos = (-3,663);
ref = period;
}
);
width = 280;
},
{
anchors = (
{
name = bottom;
pos = (162,0);
}
);
guides = (
{
angle = 90;
pos = (160,529);
}
);
layerId = "9398AC28-6BE1-4A79-9C94-3CBC2F226CE7";
shapes = (
{
closed = 1;
nodes = (
(235,0,l),
(235,556,l),
(85,556,l),
(85,0,l)
);
},
{
pos = (-20,630);
ref = period;
}
);
width = 320;
},
{
anchors = (
{
name = bottom;
pos = (142,0);
}
);
guides = (
{
angle = 90;
pos = (141,529);
}
);
layerId = "C1DB0BE6-5704-4A8C-8C00-D80E72C16D98";
shapes = (
{
closed = 1;
nodes = (
(164,0,l),
(164,536,l),
(119,536,l),
(119,0,l)
);
},
{
pos = (10,669);
ref = period;
}
);
width = 280;
}
);
metricLeft = "=I-10";
metricRight = "=I-10";
unicode = 105;
},
{
glyphname = idotless;
kernLeft = i;
kernRight = i;
lastChange = "2025-06-10 01:58:06 +0000";
layers = (
{
anchors = (
{
name = bottom;
pos = (108,0);
},
{
name = ogonek;
pos = (145,0);
},
{
name = top;
pos = (108,546);
}
);
layerId = "30C2FD74-1A74-41AC-9C29-B288AE1DBDD7";
shapes = (
{
closed = 1;
nodes = (
(145,0,l),
(145,546,l),
(70,546,l),
(70,0,l)
);
}
);
width = 215;
},
{
anchors = (
{
name = bottom;
pos = (135,0);
},
{
name = ogonek;
pos = (210,0);
},
{
name = top;
pos = (135,556);
}
);
layerId = "9398AC28-6BE1-4A79-9C94-3CBC2F226CE7";
shapes = (
{
closed = 1;
nodes = (
(210,0,l),
(210,556,l),
(60,556,l),
(60,0,l)
);
}
);
width = 270;
},
{
anchors = (
{
name = bottom;
pos = (103,0);
},
{
name = ogonek;
pos = (125,0);
},
{
name = top;
pos = (102,536);
}
);
layerId = "C1DB0BE6-5704-4A8C-8C00-D80E72C16D98";
shapes = (
{
closed = 1;
nodes = (
(125,0,l),
(125,536,l),
(80,536,l),
(80,0,l)
);
}
);
width = 205;
}
);
metricLeft = "=I-20";
metricRight = "=I-20";
unicode = 305;
},
{
glyphname = jdotless;
kernLeft = i;
kernRight = j;
lastChange = "2021-11-10 04:04:52 +0000";
layers = (
{
anchors = (
{
name = bottom;
pos = (111,-240);
},
{
name = top;
pos = (111,526);
}
);
layerId = "C1DB0BE6-5704-4A8C-8C00-D80E72C16D98";
shapes = (
{
closed = 1;
nodes = (
(73,-220,o),
(133,-165,o),
(133,-62,cs),
(133,526,l),
(88,526,l),
(88,-62,ls),
(88,-137,o),
(48,-177,o),
(-21,-177,cs),
(-32,-177,o),
(-46,-176,o),
(-57,-174,c),
(-57,-215,l),
(-47,-218,o),
(-34,-220,o),
(-18,-220,cs)
);
}
);
width = 221;
},
{
anchors = (
{
name = bottom;
pos = (115,-240);
},
{
name = top;
pos = (115,536);
}
);
layerId = "30C2FD74-1A74-41AC-9C29-B288AE1DBDD7";
shapes = (
{
closed = 1;
nodes = (
(72,-220,o),
(152,-161,o),
(152,-50,cs),
(152,536,l),
(77,536,l),
(77,-50,ls),
(77,-117,o),
(33,-150,o),
(-21,-150,cs),
(-34,-150,o),
(-49,-149,o),
(-63,-147,c),
(-63,-216,l),
(-53,-219,o),
(-32,-220,o),
(-23,-220,cs)
);
}
);
width = 229;
},
{
anchors = (
{
name = bottom;
pos = (130,-240);
},
{
name = top;
pos = (130,546);
}
);
layerId = "9398AC28-6BE1-4A79-9C94-3CBC2F226CE7";
shapes = (
{
closed = 1;
nodes = (
(125,-222,o),
(205,-149,o),
(205,-20,cs),
(205,546,l),
(55,546,l),
(55,-20,ls),
(55,-68,o),
(26,-92,o),
(-31,-92,cs),
(-43,-92,o),
(-54,-91,o),
(-65,-89,c),
(-65,-217,l),
(-52,-220,o),
(-31,-222,o),
(-11,-222,cs)
);
}
);
width = 260;
}
);
unicode = 567;
},
{
color = 5;
glyphname = k;
kernLeft = h;
kernRight = k;
lastChange = "2025-06-10 00:52:00 +0000";
layers = (
{
anchors = (
{
name = bottom;
pos = (287,0);
},
{
name = top;
pos = (128,745);
}
);
layerId = "30C2FD74-1A74-41AC-9C29-B288AE1DBDD7";
shapes = (
{
closed = 1;
nodes = (
(165,0,l),
(165,207,l),
(140,145,l),
(272,282,l),
(219,286,l),
(445,0,l),
(540,0,l),
(299,307,l),
(531,546,l),
(424,546,l),
(133,247,l),
(165,242,l),
(165,757,l),
(90,757,l),
(90,0,l)
);
}
);
width = 550;
},
{
anchors = (
{
name = bottom;
pos = (318,0);
},
{
name = top;
pos = (155,745);
}
);
layerId = "9398AC28-6BE1-4A79-9C94-3CBC2F226CE7";
shapes = (
{
closed = 1;
nodes = (
(230,0,l),
(230,214,l),
(184,127,l),
(311,259,l),
(233,257,l),
(429,0,l),
(609,0,l),
(376,306,l),
(610,556,l),
(415,556,l),
(174,300,l),
(235,300,l),
(230,757,l),
(80,757,l),
(80,0,l)
);
}
);
width = 615;
},
{
anchors = (
{
name = bottom;
pos = (282,0);
},
{
name = top;
pos = (123,745);
}
);
layerId = "C1DB0BE6-5704-4A8C-8C00-D80E72C16D98";
shapes = (
{
closed = 1;
nodes = (
(145,0,l),
(145,187,l),
(138,168,l),
(261,293,l),
(230,292,l),
(460,0,l),
(520,0,l),
(277,308,l),
(500,536,l),
(432,536,l),
(115,213,l),
(145,213,l),
(145,757,l),
(100,757,l),
(100,0,l)
);
}
);
width = 530;
}
);
metricLeft = "=I";
metricRight = "=f";
unicode = 107;
},
{
glyphname = kgreenlandic;
kernLeft = n;
kernRight = k;
lastChange = "2025-03-31 21:38:41 +0000";
layers = (
{
layerId = "C1DB0BE6-5704-4A8C-8C00-D80E72C16D98";
shapes = (
{
closed = 1;
nodes = (
(145,0,l),
(145,172,l),
(138,153,l),
(258,275,l),
(227,274,l),
(460,0,l),
(520,0,l),
(277,288,l),
(500,516,l),
(432,516,l),
(115,195,l),
(145,195,l),
(145,516,l),
(100,516,l),
(100,0,l)
);
}
);
width = 530;
},
{
layerId = "30C2FD74-1A74-41AC-9C29-B288AE1DBDD7";
shapes = (
{
closed = 1;
nodes = (
(165,0,l),
(165,187,l),
(140,125,l),
(271,259,l),
(223,263,l),
(450,0,l),
(540,0,l),
(299,287,l),
(521,526,l),
(424,526,l),
(133,222,l),
(165,217,l),
(165,526,l),
(90,526,l),
(90,0,l)
);
}
);
width = 550;
},
{
layerId = "9398AC28-6BE1-4A79-9C94-3CBC2F226CE7";
shapes = (
{
closed = 1;
nodes = (
(230,0,l),
(230,194,l),
(184,107,l),
(325,259,l),
(238,237,l),
(419,0,l),
(589,0,l),
(376,286,l),
(590,536,l),
(405,536,l),
(174,280,l),
(230,262,l),
(230,537,l),
(80,537,l),
(80,0,l)
);
}
);
width = 595;
}
);
metricLeft = "=I";
metricRight = "=f";
unicode = 312;
},
{
color = 5;
glyphname = l;
kernLeft = h;
kernRight = d;
lastChange = "2024-02-02 02:47:42 +0000";
layers = (
{
anchors = (
{
name = bottom;
pos = (128,0);
},
{
name = center;
pos = (128,392);
},
{
name = dot;
pos = (292,372);
},
{
name = top;
pos = (127,745);
},
{
name = topright;
pos = (242,536);
}
);
layerId = "30C2FD74-1A74-41AC-9C29-B288AE1DBDD7";
shapes = (
{
closed = 1;
nodes = (
(165,0,l),
(165,745,l),
(90,745,l),
(90,0,l)
);
}
);
width = 255;
},
{
anchors = (
{
name = bottom;
pos = (155,0);
},
{
name = center;
pos = (155,392);
},
{
name = dot;
pos = (365,372);
},
{
name = top;
pos = (155,745);
},
{
name = topright;
pos = (285,546);
}
);
layerId = "9398AC28-6BE1-4A79-9C94-3CBC2F226CE7";
shapes = (
{
closed = 1;
nodes = (
(230,0,l),
(230,745,l),
(80,745,l),
(80,0,l)
);
}
);
width = 310;
},
{
anchors = (
{
name = bottom;
pos = (123,0);
},
{
name = center;
pos = (123,392);
},
{
name = dot;
pos = (283,372);
},
{
name = top;
pos = (123,745);
},
{
name = topright;
pos = (233,526);
}
);
layerId = "C1DB0BE6-5704-4A8C-8C00-D80E72C16D98";
shapes = (
{
closed = 1;
nodes = (
(145,0,l),
(145,745,l),
(100,745,l),
(100,0,l)
);
}
);
width = 245;
}
);
metricLeft = "=I";
metricRight = "=I";
unicode = 108;
},
{
color = 5;
glyphname = m;
kernLeft = n;
kernRight = n;
lastChange = "2025-06-10 00:52:58 +0000";
layers = (
{
anchors = (
{
name = bottom;
pos = (458,0);
},
{
name = top;
pos = (457,546);
}
);
layerId = "30C2FD74-1A74-41AC-9C29-B288AE1DBDD7";
shapes = (
{
closed = 1;
nodes = (
(165,0,l),
(165,319,ls),
(165,409,o),
(211,481,o),
(291,481,cs),
(369,481,o),
(425,419,o),
(425,329,cs),
(425,0,l),
(500,0,l),
(500,329,ls),
(500,419,o),
(556,481,o),
(636,481,cs),
(714,481,o),
(760,419,o),
(760,329,cs),
(760,0,l),
(835,0,l),
(835,358,ls),
(835,475,o),
(762,556,o),
(645,556,cs),
(564,556,o),
(490,497,o),
(466,426,c),
(487,427,l),
(461,498,o),
(385,556,o),
(304,556,cs),
(236,556,o),
(173,501,o),
(145,439,c),
(165,439,l),
(165,546,l),
(90,546,l),
(90,0,l)
);
}
);
width = 905;
},
{
anchors = (
{
name = bottom;
pos = (470,0);
},
{
name = top;
pos = (470,556);
}
);
layerId = "9398AC28-6BE1-4A79-9C94-3CBC2F226CE7";
shapes = (
{
closed = 1;
nodes = (
(230,0,l),
(230,319,ls),
(230,380,o),
(249,431,o),
(305,431,cs),
(359,431,o),
(398,390,o),
(398,329,cs),
(398,0,l),
(548,0,l),
(548,329,ls),
(548,390,o),
(567,431,o),
(625,431,cs),
(681,431,o),
(720,390,o),
(720,329,cs),
(720,0,l),
(870,0,l),
(870,361,ls),
(870,482,o),
(796,566,o),
(678,566,cs),
(596,566,o),
(523,504,o),
(492,427,c),
(535,421,l),
(517,501,o),
(450,566,o),
(361,566,cs),
(278,566,o),
(216,496,o),
(200,413,c),
(220,413,l),
(220,556,l),
(80,556,l),
(80,0,l)
);
}
);
width = 930;
},
{
anchors = (
{
name = bottom;
pos = (460,0);
},
{
name = top;
pos = (457,536);
}
);
layerId = "C1DB0BE6-5704-4A8C-8C00-D80E72C16D98";
shapes = (
{
closed = 1;
nodes = (
(145,0,l),
(145,320,ls),
(145,423,o),
(198,503,o),
(288,503,cs),
(377,503,o),
(440,441,o),
(440,350,cs),
(440,0,l),
(485,0,l),
(485,330,ls),
(485,433,o),
(548,503,o),
(638,503,cs),
(727,503,o),
(780,441,o),
(780,350,cs),
(780,0,l),
(825,0,l),
(825,355,ls),
(825,468,o),
(755,546,o),
(642,546,cs),
(553,546,o),
(478,486,o),
(461,413,c),
(477,413,l),
(455,486,o),
(378,546,o),
(292,546,cs),
(212,546,o),
(160,495,o),
(135,423,c),
(145,423,l),
(145,536,l),
(100,536,l),
(100,0,l)
);
}
);
width = 905;
}
);
metricLeft = "=I";
metricRight = "=I-20";
unicode = 109;
},
{
color = 5;
glyphname = n;
kernLeft = n;
kernRight = n;
lastChange = "2025-06-13 00:36:20 +0000";
layers = (
{
anchors = (
{
name = bottom;
pos = (305,0);
},
{
name = top;
pos = (300,546);
}
);
layerId = "30C2FD74-1A74-41AC-9C29-B288AE1DBDD7";
shapes = (
{
closed = 1;
nodes = (
(165,0,l),
(165,319,ls),
(165,409,o),
(223,481,o),
(311,481,cs),
(398,481,o),
(455,419,o),
(455,329,cs),
(455,0,l),
(530,0,l),
(530,358,ls),
(530,475,o),
(448,556,o),
(324,556,cs),
(243,556,o),
(169,500,o),
(145,437,c),
(165,437,l),
(165,546,l),
(90,546,l),
(90,0,l)
);
}
);
width = 600;
},
{
anchors = (
{
name = bottom;
pos = (320,0);
},
{
name = top;
pos = (320,556);
}
);
layerId = "9398AC28-6BE1-4A79-9C94-3CBC2F226CE7";
shapes = (
{
closed = 1;
nodes = (
(230,0,l),
(230,319,ls),
(230,380,o),
(261,431,o),
(325,431,cs),
(389,431,o),
(425,390,o),
(425,329,cs),
(425,0,l),
(575,0,l),
(575,361,ls),
(575,482,o),
(495,566,o),
(368,566,cs),
(295,566,o),
(226,507,o),
(200,438,c),
(220,438,l),
(220,556,l),
(80,556,l),
(80,0,l)
);
}
);
width = 635;
},
{
anchors = (
{
name = bottom;
pos = (302,0);
},
{
name = top;
pos = (302,536);
}
);
layerId = "C1DB0BE6-5704-4A8C-8C00-D80E72C16D98";
shapes = (
{
closed = 1;
nodes = (
(145,0,l),
(145,320,ls),
(145,423,o),
(210,503,o),
(308,503,cs),
(406,503,o),
(470,441,o),
(470,350,cs),
(470,0,l),
(515,0,l),
(515,355,ls),
(515,468,o),
(434,546,o),
(312,546,cs),
(227,546,o),
(154,490,o),
(135,425,c),
(145,425,l),
(145,536,l),
(100,536,l),
(100,0,l)
);
}
);
width = 595;
}
);
metricLeft = "=I";
metricRight = "=I-20";
unicode = 110;
},
{
glyphname = eng;
kernLeft = n;
kernRight = n;
lastChange = "2021-11-10 04:04:52 +0000";
layers = (
{
layerId = "C1DB0BE6-5704-4A8C-8C00-D80E72C16D98";
shapes = (
{
closed = 1;
nodes = (
(422,-220,o),
(482,-165,o),
(482,-62,cs),
(482,345,ls),
(482,461,o),
(390,538,o),
(284,538,cs),
(200,538,o),
(131,490,o),
(110,420,c),
(122,415,l),
(122,526,l),
(77,526,l),
(77,0,l),
(122,0,l),
(122,320,ls),
(122,417,o),
(180,495,o),
(280,495,cs),
(367,495,o),
(437,435,o),
(437,340,cs),
(437,-62,ls),
(437,-137,o),
(397,-177,o),
(328,-177,cs),
(317,-177,o),
(303,-176,o),
(292,-174,c),
(292,-215,l),
(302,-218,o),
(315,-220,o),
(331,-220,cs)
);
}
);
width = 600;
},
{
layerId = "30C2FD74-1A74-41AC-9C29-B288AE1DBDD7";
shapes = (
{
closed = 1;
nodes = (
(415,-220,o),
(495,-161,o),
(495,-50,cs),
(495,348,ls),
(495,462,o),
(407,548,o),
(294,548,cs),
(214,548,o),
(149,505,o),
(123,436,c),
(140,432,l),
(140,536,l),
(65,536,l),
(65,0,l),
(140,0,l),
(140,319,ls),
(140,415,o),
(199,473,o),
(281,473,cs),
(363,473,o),
(420,416,o),
(420,319,cs),
(420,-50,ls),
(420,-117,o),
(376,-150,o),
(322,-150,cs),
(309,-150,o),
(294,-149,o),
(280,-147,c),
(280,-216,l),
(290,-219,o),
(311,-220,o),
(320,-220,cs)
);
}
);
width = 600;
},
{
layerId = "9398AC28-6BE1-4A79-9C94-3CBC2F226CE7";
shapes = (
{
closed = 1;
nodes = (
(470,-222,o),
(550,-149,o),
(550,-20,cs),
(550,351,ls),
(550,475,o),
(466,558,o),
(343,558,cs),
(267,558,o),
(207,527,o),
(182,462,c),
(190,438,l),
(190,546,l),
(50,546,l),
(50,0,l),
(200,0,l),
(200,319,ls),
(200,382,o),
(241,423,o),
(300,423,cs),
(359,423,o),
(400,382,o),
(400,319,cs),
(400,-20,ls),
(400,-68,o),
(371,-92,o),
(314,-92,cs),
(302,-92,o),
(291,-91,o),
(280,-89,c),
(280,-217,l),
(293,-220,o),
(314,-222,o),
(334,-222,cs)
);
}
);
width = 600;
}
);
unicode = 331;
},
{
color = 5;
glyphname = o;
kernLeft = o;
kernRight = o;
lastChange = "2025-08-10 21:47:37 +0000";
layers = (
{
anchors = (
{
name = bottom;
pos = (303,0);
},
{
name = center;
pos = (303,273);
},
{
name = ogonek;
pos = (402,10);
},
{
name = top;
pos = (303,546);
},
{
name = topright;
pos = (429,520);
}
);
layerId = "30C2FD74-1A74-41AC-9C29-B288AE1DBDD7";
shapes = (
{
closed = 1;
nodes = (
(454,-10,o),
(565,112,o),
(565,274,cs),
(565,434,o),
(454,555,o),
(303,555,cs),
(152,555,o),
(40,434,o),
(40,274,cs),
(40,112,o),
(152,-10,o),
(303,-10,cs)
);
},
{
closed = 1;
nodes = (
(199,67,o),
(122,156,o),
(122,274,cs),
(122,391,o),
(199,478,o),
(303,478,cs),
(407,478,o),
(485,391,o),
(485,274,cs),
(485,156,o),
(407,67,o),
(303,67,cs)
);
}
);
width = 605;
},
{
anchors = (
{
name = bottom;
pos = (318,0);
},
{
name = center;
pos = (318,278);
},
{
name = ogonek;
pos = (440,14);
},
{
name = top;
pos = (318,556);
},
{
name = topright;
pos = (426,546);
}
);
layerId = "9398AC28-6BE1-4A79-9C94-3CBC2F226CE7";
shapes = (
{
closed = 1;
nodes = (
(480,-10,o),
(600,114,o),
(600,278,cs),
(600,442,o),
(480,566,o),
(318,566,cs),
(155,566,o),
(35,442,o),
(35,278,cs),
(35,114,o),
(155,-10,o),
(318,-10,cs)
);
},
{
closed = 1;
nodes = (
(246,127,o),
(190,193,o),
(190,278,cs),
(190,363,o),
(246,429,o),
(318,429,cs),
(389,429,o),
(445,363,o),
(445,278,cs),
(445,193,o),
(389,127,o),
(318,127,cs)
);
}
);
width = 635;
},
{
anchors = (
{
name = bottom;
pos = (305,0);
},
{
name = center;
pos = (305,268);
},
{
name = ogonek;
pos = (409,10);
},
{
name = top;
pos = (305,536);
},
{
name = topright;
pos = (435,508);
}
);
layerId = "C1DB0BE6-5704-4A8C-8C00-D80E72C16D98";
shapes = (
{
closed = 1;
nodes = (
(451,-10,o),
(560,110,o),
(560,268,cs),
(560,426,o),
(451,546,o),
(305,546,cs),
(159,546,o),
(50,426,o),
(50,268,cs),
(50,110,o),
(159,-10,o),
(305,-10,cs)
);
},
{
closed = 1;
nodes = (
(187,35,o),
(95,135,o),
(95,268,cs),
(95,401,o),
(187,502,o),
(305,502,cs),
(423,502,o),
(515,401,o),
(515,268,cs),
(515,135,o),
(423,35,o),
(305,35,cs)
);
}
);
width = 610;
}
);
metricLeft = "=a";
metricRight = "=|a";
unicode = 111;
},
{
glyphname = thorn;
kernLeft = h;
kernRight = o;
lastChange = "2025-06-10 01:57:26 +0000";
layers = (
{
layerId = "30C2FD74-1A74-41AC-9C29-B288AE1DBDD7";
shapes = (
{
closed = 1;
nodes = (
(165,520,l),
(165,745,l),
(90,745,l),
(90,520,l)
);
},
{
ref = p;
}
);
width = 635;
},
{
layerId = "9398AC28-6BE1-4A79-9C94-3CBC2F226CE7";
shapes = (
{
closed = 1;
nodes = (
(220,531,l),
(220,745,l),
(80,745,l),
(80,531,l)
);
},
{
ref = p;
}
);
width = 670;
},
{
layerId = "C1DB0BE6-5704-4A8C-8C00-D80E72C16D98";
shapes = (
{
closed = 1;
nodes = (
(145,513,l),
(145,745,l),
(100,745,l),
(100,513,l)
);
},
{
ref = p;
}
);
width = 640;
}
);
metricLeft = "=I";
metricRight = "=|a";
unicode = 254;
},
{
color = 5;
glyphname = r;
kernLeft = n;
kernRight = r;
lastChange = "2025-06-12 02:59:30 +0000";
layers = (
{
anchors = (
{
name = bottom;
pos = (128,0);
},
{
name = top;
pos = (215,546);
}
);
layerId = "30C2FD74-1A74-41AC-9C29-B288AE1DBDD7";
shapes = (
{
closed = 1;
nodes = (
(165,0,l),
(165,290,ls),
(165,419,o),
(216,481,o),
(301,481,c),
(306,556,l),
(243,556,o),
(183,512,o),
(145,433,c),
(165,433,l),
(165,546,l),
(90,546,l),
(90,0,l)
);
},
{
pos = (300,8);
ref = "_rf-arc.comp";
}
);
width = 382;
},
{
anchors = (
{
name = bottom;
pos = (155,0);
},
{
name = top;
pos = (240,556);
}
);
layerId = "9398AC28-6BE1-4A79-9C94-3CBC2F226CE7";
shapes = (
{
closed = 1;
nodes = (
(230,0,l),
(230,294,ls),
(230,392,o),
(274,436,o),
(348,436,c),
(358,566,l),
(282,566,o),
(223,515,o),
(200,425,c),
(220,425,l),
(220,556,l),
(80,556,l),
(80,0,l)
);
},
{
pos = (347,8);
ref = "_rf-arc.comp";
}
);
width = 439;
},
{
anchors = (
{
name = bottom;
pos = (123,0);
},
{
name = top;
pos = (215,536);
}
);
layerId = "C1DB0BE6-5704-4A8C-8C00-D80E72C16D98";
shapes = (
{
closed = 1;
nodes = (
(145,0,l),
(145,290,ls),
(145,429,o),
(205,501,o),
(307,501,c),
(307,546,l),
(220,546,o),
(153,492,o),
(128,405,c),
(145,405,l),
(145,536,l),
(100,536,l),
(100,0,l)
);
},
{
pos = (306,12);
ref = "_rf-arc.comp";
}
);
width = 373;
}
);
metricLeft = "=I";
metricRight = "=f";
unicode = 114;
},
{
glyphname = s;
kernLeft = s;
kernRight = s;
lastChange = "2025-07-16 03:04:15 +0000";
layers = (
{
anchors = (
{
name = bottom;
pos = (254,0);
},
{
name = top;
pos = (254,546);
}
);
layerId = "30C2FD74-1A74-41AC-9C29-B288AE1DBDD7";
shapes = (
{
closed = 1;
nodes = (
(374,-10,o),
(458,55,o),
(458,141,cs),
(458,218,o),
(399,278,o),
(298,304,cs),
(216,325,ls),
(174,336,o),
(142,367,o),
(142,399,cs),
(142,448,o),
(187,484,o),
(246,484,cs),
(302,484,o),
(349,470,o),
(384,394,c),
(453,414,l),
(424,512,o),
(340,556,o),
(249,556,cs),
(143,556,o),
(64,486,o),
(64,393,cs),
(64,322,o),
(120,269,o),
(216,247,cs),
(286,231,ls),
(346,218,o),
(381,184,o),
(381,141,cs),
(381,96,o),
(330,62,o),
(262,62,cs),
(201,62,o),
(148,80,o),
(109,163,c),
(40,143,l),
(72,38,o),
(164,-10,o),
(262,-10,cs)
);
}
);
width = 498;
},
{
anchors = (
{
name = bottom;
pos = (271,0);
},
{
name = top;
pos = (271,536);
}
);
layerId = "9398AC28-6BE1-4A79-9C94-3CBC2F226CE7";
shapes = (
{
closed = 1;
nodes = (
(405,-10,o),
(498,62,o),
(498,158,cs),
(498,222,o),
(438,293,o),
(358,323,cs),
(261,359,ls),
(230,371,o),
(212,387,o),
(212,403,cs),
(212,430,o),
(235,446,o),
(274,446,cs),
(315,446,o),
(352,414,o),
(361,371,c),
(485,408,l),
(458,521,o),
(377,566,o),
(269,566,cs),
(148,566,o),
(57,496,o),
(57,403,cs),
(57,338,o),
(117,269,o),
(196,241,cs),
(299,205,ls),
(327,195,o),
(343,175,o),
(343,152,cs),
(343,122,o),
(318,105,o),
(277,105,cs),
(231,105,o),
(190,126,o),
(164,201,c),
(35,162,l),
(65,52,o),
(167,-10,o),
(282,-10,cs)
);
}
);
width = 533;
},
{
anchors = (
{
name = bottom;
pos = (249,0);
},
{
name = top;
pos = (249,536);
}
);
layerId = "C1DB0BE6-5704-4A8C-8C00-D80E72C16D98";
shapes = (
{
closed = 1;
nodes = (
(359,-10,o),
(436,52,o),
(436,135,cs),
(436,205,o),
(386,266,o),
(301,290,cs),
(213,315,ls),
(158,330,o),
(126,357,o),
(126,396,cs),
(126,463,o),
(172,502,o),
(250,502,cs),
(309,502,o),
(359,474,o),
(386,409,c),
(429,420,l),
(402,509,o),
(334,546,o),
(250,546,cs),
(142,546,o),
(78,490,o),
(78,395,cs),
(78,333,o),
(126,288,o),
(206,266,cs),
(293,242,ls),
(355,225,o),
(392,181,o),
(392,133,cs),
(392,76,o),
(334,34,o),
(256,34,cs),
(189,34,o),
(123,74,o),
(94,139,c),
(50,128,l),
(81,41,o),
(164,-10,o),
(256,-10,cs)
);
}
);
width = 486;
}
);
metricLeft = "=a";
metricRight = "=|a";
unicode = 115;
},
{
color = 4;
glyphname = germandbls;
kernLeft = I;
kernRight = B;
lastChange = "2025-06-07 18:23:08 +0000";
layers = (
{
layerId = "30C2FD74-1A74-41AC-9C29-B288AE1DBDD7";
shapes = (
{
closed = 1;
nodes = (
(165,-130,l),
(165,540,ls),
(165,632,o),
(218,687,o),
(308,687,cs),
(391,687,o),
(440,640,o),
(440,561,cs),
(440,479,o),
(391,430,o),
(308,430,cs),
(255,430,l),
(255,360,l),
(314,360,ls),
(412,360,o),
(470,306,o),
(470,215,cs),
(470,124,o),
(412,70,o),
(314,70,cs),
(255,70,l),
(255,0,l),
(314,0,ls),
(462,0,o),
(550,80,o),
(550,215,cs),
(550,303,o),
(495,375,o),
(403,409,c),
(408,389,l),
(478,412,o),
(520,478,o),
(520,566,cs),
(520,686,o),
(442,757,o),
(309,757,cs),
(171,757,o),
(90,676,o),
(90,540,cs),
(90,-130,l)
);
}
);
width = 590;
},
{
layerId = "9398AC28-6BE1-4A79-9C94-3CBC2F226CE7";
shapes = (
{
closed = 1;
nodes = (
(230,-150,l),
(230,490,ls),
(230,576,o),
(275,627,o),
(350,627,cs),
(412,627,o),
(449,595,o),
(449,542,cs),
(449,490,o),
(416,460,o),
(360,460,cs),
(310,460,l),
(310,330,l),
(370,330,ls),
(439,330,o),
(480,294,o),
(480,232,cs),
(480,168,o),
(439,130,o),
(370,130,cs),
(310,130,l),
(310,0,l),
(380,0,ls),
(540,0,o),
(635,86,o),
(635,232,cs),
(635,321,o),
(577,392,o),
(478,423,c),
(486,380,l),
(560,405,o),
(604,464,o),
(604,539,cs),
(604,676,o),
(510,757,o),
(350,757,cs),
(180,757,o),
(80,658,o),
(80,490,cs),
(80,-150,l)
);
}
);
width = 670;
},
{
layerId = "C1DB0BE6-5704-4A8C-8C00-D80E72C16D98";
shapes = (
{
closed = 1;
nodes = (
(146,-120,l),
(146,551,ls),
(146,652,o),
(205,712,o),
(306,712,cs),
(402,712,o),
(458,657,o),
(458,565,cs),
(458,472,o),
(400,417,o),
(301,417,cs),
(246,417,l),
(246,372,l),
(308,372,ls),
(422,372,o),
(489,311,o),
(489,208,cs),
(489,106,o),
(424,45,o),
(315,45,cs),
(246,45,l),
(246,0,l),
(315,0,ls),
(456,0,o),
(540,78,o),
(540,209,cs),
(540,305,o),
(476,378,o),
(367,405,c),
(370,387,l),
(457,419,o),
(509,485,o),
(509,565,cs),
(509,686,o),
(434,757,o),
(308,757,cs),
(177,757,o),
(100,680,o),
(100,551,cs),
(100,-120,l)
);
}
);
width = 590;
}
);
metricLeft = "=I";
metricRight = "=s";
unicode = 223;
},
{
color = 5;
glyphname = t;
kernLeft = t;
kernRight = t;
lastChange = "2025-07-16 02:28:19 +0000";
layers = (
{
anchors = (
{
name = bottom;
pos = (251,0);
},
{
name = center;
pos = (147,268);
},
{
name = top;
pos = (147,650);
},
{
name = topright;
pos = (243,546);
}
);
layerId = "30C2FD74-1A74-41AC-9C29-B288AE1DBDD7";
shapes = (
{
closed = 1;
nodes = (
(248,63,l),
(211,63,o),
(184,73,o),
(184,136,cs),
(184,471,l),
(302,471,l),
(302,546,l),
(184,546,l),
(184,672,l),
(109,672,l),
(109,546,l),
(10,546,l),
(10,471,l),
(109,471,l),
(109,136,ls),
(109,29,o),
(169,-12,o),
(253,-12,c)
);
},
{
pos = (247,536);
ref = "_rf-arc.comp";
scale = (1,-1);
}
);
width = 359;
},
{
anchors = (
{
name = bottom;
pos = (318,0);
},
{
name = center;
pos = (192,273);
},
{
name = top;
pos = (192,670);
},
{
name = topright;
pos = (331,556);
}
);
layerId = "9398AC28-6BE1-4A79-9C94-3CBC2F226CE7";
shapes = (
{
closed = 1;
nodes = (
(318,118,l),
(288,118,o),
(267,137,o),
(267,187,cs),
(267,426,l),
(395,426,l),
(395,556,l),
(267,556,l),
(267,680,l),
(127,680,l),
(127,556,l),
(15,556,l),
(15,426,l),
(117,426,l),
(117,177,ls),
(117,26,o),
(204,-12,o),
(328,-12,c)
);
},
{
pos = (317,546);
ref = "_rf-arc.comp";
scale = (1,-1);
}
);
width = 439;
},
{
anchors = (
{
name = bottom;
pos = (212,0);
},
{
name = center;
pos = (138,263);
},
{
name = top;
pos = (138,662);
},
{
name = topright;
pos = (217,536);
}
);
layerId = "C1DB0BE6-5704-4A8C-8C00-D80E72C16D98";
shapes = (
{
closed = 1;
nodes = (
(243,33,l),
(167,33,o),
(160,89,o),
(160,126,cs),
(160,496,l),
(284,496,l),
(284,536,l),
(160,536,l),
(160,662,l),
(115,662,l),
(115,536,l),
(15,536,l),
(15,496,l),
(115,496,l),
(115,126,ls),
(115,28,o),
(161,-12,o),
(243,-12,c)
);
},
{
pos = (242,522);
ref = "_rf-arc.comp";
scale = (1,-1);
}
);
width = 339;
}
);
metricLeft = "=f";
metricRight = "=f+30";
unicode = 116;
},
{
glyphname = u.ss03;
kernLeft = u;
kernRight = u;
lastChange = "2025-06-10 01:54:59 +0000";
layers = (
{
anchors = (
{
name = bottom;
pos = (290,0);
},
{
name = ogonek;
pos = (340,0);
},
{
name = top;
pos = (290,546);
},
{
name = topright;
pos = (545,546);
}
);
layerId = "30C2FD74-1A74-41AC-9C29-B288AE1DBDD7";
shapes = (
{
closed = 1;
nodes = (
(419,-10,o),
(510,73,o),
(510,200,cs),
(510,546,l),
(435,546,l),
(435,205,ls),
(435,119,o),
(374,64,o),
(290,64,cs),
(206,64,o),
(145,119,o),
(145,205,cs),
(145,546,l),
(70,546,l),
(70,200,ls),
(70,73,o),
(161,-10,o),
(290,-10,cs)
);
}
);
width = 580;
},
{
anchors = (
{
name = bottom;
pos = (315,0);
},
{
name = ogonek;
pos = (375,0);
},
{
name = top;
pos = (315,556);
},
{
name = topright;
pos = (595,556);
}
);
layerId = "9398AC28-6BE1-4A79-9C94-3CBC2F226CE7";
shapes = (
{
closed = 1;
nodes = (
(464,-10,o),
(570,80,o),
(570,219,cs),
(570,556,l),
(420,556,l),
(420,222,ls),
(420,162,o),
(374,125,o),
(315,125,cs),
(256,125,o),
(210,162,o),
(210,222,cs),
(210,556,l),
(60,556,l),
(60,219,ls),
(60,80,o),
(165,-10,o),
(315,-10,cs)
);
}
);
width = 630;
},
{
anchors = (
{
name = bottom;
pos = (288,0);
},
{
name = ogonek;
pos = (337,0);
},
{
name = top;
pos = (288,536);
},
{
name = topright;
pos = (540,536);
}
);
layerId = "C1DB0BE6-5704-4A8C-8C00-D80E72C16D98";
shapes = (
{
closed = 1;
nodes = (
(392,-10,o),
(488,59,o),
(490,186,cs),
(495,536,l),
(450,536,l),
(445,186,ls),
(444,85,o),
(369,33,o),
(287,33,cs),
(206,33,o),
(125,85,o),
(125,186,cs),
(125,536,l),
(80,536,l),
(80,186,ls),
(80,59,o),
(183,-10,o),
(287,-10,cs)
);
}
);
width = 575;
}
);
metricLeft = "=u";
metricRight = "=|u";
},
{
glyphname = uhorn.ss03;
kernLeft = u;
kernRight = u;
lastChange = "2025-06-10 01:56:20 +0000";
layers = (
{
anchors = (
{
name = bottom;
pos = (296,0);
},
{
name = ogonek;
pos = (340,40);
},
{
name = top;
pos = (296,546);
},
{
name = topright;
pos = (562,546);
}
);
layerId = "30C2FD74-1A74-41AC-9C29-B288AE1DBDD7";
shapes = (
{
closed = 1;
nodes = (
(419,-12,o),
(510,73,o),
(510,200,cs),
(510,509,l),
(494,485,l),
(557,489,o),
(599,523,o),
(599,592,cs),
(599,625,o),
(588,652,o),
(576,679,c),
(502,679,l),
(514,652,o),
(524,627,o),
(524,599,cs),
(524,556,o),
(499,546,o),
(473,546,cs),
(435,546,l),
(435,205,ls),
(435,119,o),
(374,62,o),
(290,62,cs),
(206,62,o),
(145,119,o),
(145,205,cs),
(145,546,l),
(70,546,l),
(70,200,ls),
(70,73,o),
(161,-12,o),
(290,-12,cs)
);
}
);
width = 610;
},
{
anchors = (
{
name = bottom;
pos = (321,0);
},
{
name = ogonek;
pos = (365,41);
},
{
name = top;
pos = (321,556);
},
{
name = topright;
pos = (600,556);
}
);
layerId = "9398AC28-6BE1-4A79-9C94-3CBC2F226CE7";
shapes = (
{
closed = 1;
nodes = (
(464,-12,o),
(570,80,o),
(570,219,cs),
(570,524,l),
(515,454,l),
(623,444,o),
(700,485,o),
(700,592,cs),
(700,628,o),
(690,653,o),
(677,681,c),
(551,681,l),
(561,656,o),
(571,626,o),
(571,605,cs),
(571,561,o),
(546,556,o),
(531,556,cs),
(420,556,l),
(420,222,ls),
(420,162,o),
(374,123,o),
(315,123,cs),
(256,123,o),
(210,162,o),
(210,222,cs),
(210,556,l),
(60,556,l),
(60,219,ls),
(60,80,o),
(165,-12,o),
(315,-12,cs)
);
}
);
width = 710;
},
{
anchors = (
{
name = bottom;
pos = (293,0);
},
{
name = ogonek;
pos = (337,30);
},
{
name = top;
pos = (293,536);
},
{
name = topright;
pos = (558,536);
}
);
layerId = "C1DB0BE6-5704-4A8C-8C00-D80E72C16D98";
shapes = (
{
closed = 1;
nodes = (
(392,-12,o),
(495,59,o),
(495,186,cs),
(495,518,l),
(478,495,l),
(536,495,o),
(577,525,o),
(577,585,cs),
(577,614,o),
(567,643,o),
(556,672,c),
(511,672,l),
(521,645,o),
(531,619,o),
(531,591,cs),
(531,552,o),
(510,536,o),
(478,536,cs),
(450,536,l),
(450,186,ls),
(450,85,o),
(369,31,o),
(287,31,cs),
(206,31,o),
(125,85,o),
(125,186,cs),
(125,536,l),
(80,536,l),
(80,186,ls),
(80,59,o),
(183,-12,o),
(287,-12,cs)
);
}
);
width = 590;
}
);
metricLeft = "=u";
metricRight = "=u/8";
},
{
color = 5;
glyphname = v;
kernLeft = v;
kernRight = v;
lastChange = "2025-06-12 00:18:31 +0000";
layers = (
{
anchors = (
{
name = bottom;
pos = (268,0);
},
{
name = top;
pos = (268,546);
}
);
layerId = "30C2FD74-1A74-41AC-9C29-B288AE1DBDD7";
shapes = (
{
closed = 1;
nodes = (
(304,0,l),
(515,546,l),
(430,546,l),
(253,66,l),
(280,66,l),
(104,546,l),
(20,546,l),
(229,0,l)
);
}
);
width = 535;
},
{
anchors = (
{
name = bottom;
pos = (295,0);
},
{
name = top;
pos = (295,556);
}
);
layerId = "9398AC28-6BE1-4A79-9C94-3CBC2F226CE7";
shapes = (
{
closed = 1;
nodes = (
(360,0,l),
(580,556,l),
(418,556,l),
(264,133,l),
(326,133,l),
(172,556,l),
(10,556,l),
(230,0,l)
);
}
);
width = 590;
},
{
anchors = (
{
name = bottom;
pos = (263,0);
},
{
name = top;
pos = (263,536);
}
);
layerId = "C1DB0BE6-5704-4A8C-8C00-D80E72C16D98";
shapes = (
{
closed = 1;
nodes = (
(285,0,l),
(500,536,l),
(448,536,l),
(252,39,l),
(271,39,l),
(76,536,l),
(25,536,l),
(237,0,l)
);
}
);
width = 525;
}
);
metricLeft = "=V";
metricRight = "=V";
unicode = 118;
},
{
color = 5;
glyphname = w;
kernLeft = w;
kernRight = w;
lastChange = "2025-08-10 22:10:12 +0000";
layers = (
{
anchors = (
{
name = bottom;
pos = (408,0);
},
{
name = top;
pos = (408,546);
}
);
guides = (
{
angle = 90;
pos = (408,552);
}
);
layerId = "30C2FD74-1A74-41AC-9C29-B288AE1DBDD7";
shapes = (
{
closed = 1;
nodes = (
(269,0,l),
(418,469,l),
(397,469,l),
(546,0,l),
(621,0,l),
(795,546,l),
(711,546,l),
(568,67,l),
(598,67,l),
(445,546,l),
(370,546,l),
(217,67,l),
(247,67,l),
(105,546,l),
(20,546,l),
(194,0,l)
);
}
);
width = 815;
},
{
anchors = (
{
name = bottom;
pos = (445,0);
},
{
name = top;
pos = (445,556);
}
);
guides = (
{
angle = 90;
pos = (445,591);
}
);
layerId = "9398AC28-6BE1-4A79-9C94-3CBC2F226CE7";
shapes = (
{
closed = 1;
nodes = (
(323,0,l),
(471,432,l),
(419,432,l),
(566,0,l),
(696,0,l),
(880,556,l),
(724,556,l),
(597,152,l),
(651,153,l),
(510,556,l),
(380,556,l),
(238,153,l),
(292,152,l),
(165,556,l),
(10,556,l),
(193,0,l)
);
}
);
width = 890;
},
{
anchors = (
{
name = bottom;
pos = (378,0);
},
{
name = top;
pos = (378,536);
}
);
guides = (
{
angle = 90;
pos = (377,551);
}
);
layerId = "C1DB0BE6-5704-4A8C-8C00-D80E72C16D98";
shapes = (
{
closed = 1;
nodes = (
(228,0,l),
(381,479,l),
(373,479,l),
(526,0,l),
(574,0,l),
(730,536,l),
(680,536,l),
(538,33,l),
(560,33,l),
(401,536,l),
(353,536,l),
(194,33,l),
(215,33,l),
(75,536,l),
(25,536,l),
(180,0,l)
);
}
);
width = 755;
}
);
metricLeft = "=V";
metricRight = "=V";
unicode = 119;
},
{
color = 5;
glyphname = x;
kernLeft = x;
kernRight = x;
lastChange = "2025-06-10 01:48:23 +0000";
layers = (
{
anchors = (
{
name = bottom;
pos = (257,0);
},
{
name = top;
pos = (257,546);
}
);
guides = (
{
angle = 90;
pos = (258,218);
}
);
layerId = "30C2FD74-1A74-41AC-9C29-B288AE1DBDD7";
shapes = (
{
closed = 1;
nodes = (
(112,0,l),
(283,246,l),
(232,246,l),
(402,0,l),
(494,0,l),
(302,273,l),
(494,546,l),
(402,546,l),
(232,300,l),
(283,300,l),
(112,546,l),
(20,546,l),
(212,273,l),
(20,0,l)
);
}
);
width = 514;
},
{
anchors = (
{
name = bottom;
pos = (295,0);
},
{
name = top;
pos = (295,556);
}
);
guides = (
{
angle = 90;
pos = (295,218);
}
);
layerId = "9398AC28-6BE1-4A79-9C94-3CBC2F226CE7";
shapes = (
{
closed = 1;
nodes = (
(184,0,l),
(331,217,l),
(259,217,l),
(406,0,l),
(580,0,l),
(383,279,l),
(580,556,l),
(406,556,l),
(257,339,l),
(333,339,l),
(184,556,l),
(10,556,l),
(207,279,l),
(10,0,l)
);
}
);
width = 590;
},
{
anchors = (
{
name = bottom;
pos = (243,0);
},
{
name = top;
pos = (243,536);
}
);
guides = (
{
angle = 90;
pos = (244,218);
}
);
layerId = "C1DB0BE6-5704-4A8C-8C00-D80E72C16D98";
shapes = (
{
closed = 1;
nodes = (
(83,0,l),
(263,255,l),
(224,255,l),
(404,0,l),
(462,0,l),
(272,268,l),
(462,536,l),
(404,536,l),
(224,281,l),
(263,281,l),
(83,536,l),
(25,536,l),
(215,268,l),
(25,0,l)
);
}
);
width = 487;
}
);
metricLeft = "=V";
metricRight = "=V";
unicode = 120;
},
{
color = 5;
glyphname = y;
kernLeft = y;
kernRight = v;
lastChange = "2025-06-10 01:49:19 +0000";
layers = (
{
anchors = (
{
name = bottom;
pos = (500,100);
},
{
name = top;
pos = (282,546);
}
);
layerId = "30C2FD74-1A74-41AC-9C29-B288AE1DBDD7";
shapes = (
{
closed = 1;
nodes = (
(224,-240,l),
(544,546,l),
(461,546,l),
(271,67,l),
(292,67,l),
(101,546,l),
(20,546,l),
(252,-32,l),
(254,34,l),
(141,-240,l)
);
}
);
width = 559;
},
{
anchors = (
{
name = bottom;
pos = (556,100);
},
{
name = top;
pos = (305,556);
}
);
layerId = "9398AC28-6BE1-4A79-9C94-3CBC2F226CE7";
shapes = (
{
closed = 1;
nodes = (
(285,-240,l),
(600,556,l),
(439,556,l),
(275,113,l),
(335,113,l),
(171,556,l),
(10,556,l),
(255,-63,l),
(251,62,l),
(132,-240,l)
);
}
);
width = 605;
},
{
anchors = (
{
name = bottom;
pos = (481,100);
},
{
name = top;
pos = (267,536);
}
);
layerId = "C1DB0BE6-5704-4A8C-8C00-D80E72C16D98";
shapes = (
{
closed = 1;
nodes = (
(191,-240,l),
(514,536,l),
(462,536,l),
(254,30,l),
(283,30,l),
(77,536,l),
(25,536,l),
(253,-24,l),
(249,22,l),
(139,-240,l)
);
}
);
width = 534;
}
);
metricLeft = "=V";
metricRight = "=V-5";
unicode = 121;
},
{
color = 5;
glyphname = z;
kernLeft = z;
kernRight = z;
lastChange = "2025-06-12 00:16:09 +0000";
layers = (
{
anchors = (
{
name = bottom;
pos = (247,0);
},
{
name = center;
pos = (253,273);
},
{
name = top;
pos = (253,546);
}
);
layerId = "30C2FD74-1A74-41AC-9C29-B288AE1DBDD7";
shapes = (
{
closed = 1;
nodes = (
(465,0,l),
(465,75,l),
(107,75,l),
(121,46,l),
(465,481,l),
(465,546,l),
(40,546,l),
(40,471,l),
(399,471,l),
(385,500,l),
(40,65,l),
(40,0,l)
);
}
);
width = 505;
},
{
anchors = (
{
name = bottom;
pos = (266,0);
},
{
name = center;
pos = (260,278);
},
{
name = top;
pos = (266,556);
}
);
layerId = "9398AC28-6BE1-4A79-9C94-3CBC2F226CE7";
shapes = (
{
closed = 1;
nodes = (
(485,0,l),
(485,130,l),
(166,130,l),
(188,79,l),
(485,436,l),
(485,556,l),
(35,556,l),
(35,426,l),
(361,426,l),
(339,476,l),
(35,120,l),
(35,0,l)
);
}
);
width = 520;
},
{
anchors = (
{
name = bottom;
pos = (245,0);
},
{
name = center;
pos = (250,268);
},
{
name = top;
pos = (245,536);
}
);
layerId = "C1DB0BE6-5704-4A8C-8C00-D80E72C16D98";
shapes = (
{
closed = 1;
nodes = (
(450,0,l),
(450,40,l),
(74,40,l),
(89,10,l),
(450,506,l),
(450,536,l),
(50,536,l),
(50,496,l),
(425,496,l),
(410,526,l),
(50,30,l),
(50,0,l)
);
}
);
width = 500;
}
);
metricLeft = "=a";
metricRight = "=|a";
unicode = 122;
},
{
glyphname = f_i;
kernLeft = f;
kernRight = i;
lastChange = "2025-07-16 02:22:36 +0000";
layers = (
{
layerId = "C1DB0BE6-5704-4A8C-8C00-D80E72C16D98";
shapes = (
{
ref = _f.liga;
},
{
alignment = -1;
pos = (401,0);
ref = idotless;
},
{
pos = (370,648);
ref = period;
},
{
closed = 1;
nodes = (
(501,496,l),
(501,536,l),
(319,536,l),
(319,496,l)
);
}
);
width = 640;
},
{
layerId = "30C2FD74-1A74-41AC-9C29-B288AE1DBDD7";
shapes = (
{
ref = _f.liga;
},
{
alignment = -1;
pos = (421,0);
ref = idotless;
},
{
pos = (385,643);
ref = period;
},
{
closed = 1;
nodes = (
(521,471,l),
(521,546,l),
(339,546,l),
(339,471,l)
);
}
);
width = 668;
},
{
layerId = "9398AC28-6BE1-4A79-9C94-3CBC2F226CE7";
shapes = (
{
ref = _f.liga;
},
{
alignment = -1;
pos = (451,0);
ref = idotless;
},
{
pos = (406,610);
ref = period;
},
{
closed = 1;
nodes = (
(561,426,l),
(561,556,l),
(399,556,l),
(399,426,l)
);
}
);
width = 746;
}
);
metricLeft = "=f";
metricRight = "=i";
},
{
glyphname = ordfeminine;
lastChange = "2025-06-08 18:23:33 +0000";
layers = (
{
layerId = "30C2FD74-1A74-41AC-9C29-B288AE1DBDD7";
shapes = (
{
closed = 1;
nodes = (
(233,361,o),
(282,391,o),
(307,436,c),
(293,439,l),
(293,369,l),
(363,369,l),
(363,608,l),
(290,608,l),
(290,527,ls),
(290,466,o),
(242,420,o),
(178,420,cs),
(143,420,o),
(117,443,o),
(117,481,cs),
(117,509,o),
(140,537,o),
(171,541,cs),
(207,546,o),
(263,538,o),
(301,521,c),
(301,581,l),
(256,603,o),
(201,606,o),
(156,598,cs),
(90,587,o),
(40,535,o),
(40,483,cs),
(40,416,o),
(95,361,o),
(168,361,cs)
);
},
{
closed = 1;
nodes = (
(363,608,l),
(361,700,o),
(302,754,o),
(205,754,cs),
(145,754,o),
(92,723,o),
(66,666,c),
(126,643,l),
(141,676,o),
(174,693,o),
(209,693,cs),
(259,693,o),
(289,661,o),
(290,608,c)
);
}
);
width = 443;
},
{
layerId = "9398AC28-6BE1-4A79-9C94-3CBC2F226CE7";
shapes = (
{
closed = 1;
nodes = (
(232,353,o),
(273,375,o),
(309,426,c),
(281,421,l),
(281,362,l),
(389,362,l),
(389,599,l),
(273,599,l),
(273,513,l),
(273,470,o),
(245,437,o),
(200,437,cs),
(177,437,o),
(155,455,o),
(155,478,cs),
(155,502,o),
(172,523,o),
(199,526,cs),
(224,529,o),
(258,526,o),
(285,513,c),
(285,587,l),
(241,601,o),
(210,605,o),
(173,599,cs),
(86,585,o),
(35,539,o),
(35,475,cs),
(35,405,o),
(86,353,o),
(171,353,cs)
);
},
{
closed = 1;
nodes = (
(389,599,l),
(389,719,o),
(282,755,o),
(216,755,cs),
(141,755,o),
(81,723,o),
(56,661,c),
(150,623,l),
(162,648,o),
(183,662,o),
(211,662,cs),
(249,662,o),
(273,638,o),
(273,599,c)
);
}
);
width = 459;
},
{
layerId = "C1DB0BE6-5704-4A8C-8C00-D80E72C16D98";
shapes = (
{
closed = 1;
nodes = (
(238,367,o),
(294,402,o),
(314,449,c),
(309,452,l),
(309,375,l),
(352,375,l),
(352,611,l),
(309,611,l),
(309,539,ls),
(309,462,o),
(256,405,o),
(185,405,cs),
(134,405,o),
(96,443,o),
(96,493,cs),
(96,535,o),
(139,567,o),
(182,570,cs),
(216,572,o),
(259,565,o),
(320,535,c),
(320,577,l),
(265,603,o),
(218,611,o),
(172,608,cs),
(108,604,o),
(50,553,o),
(50,491,cs),
(50,420,o),
(107,367,o),
(182,367,cs)
);
},
{
closed = 1;
nodes = (
(352,611,l),
(351,702,o),
(297,755,o),
(207,755,cs),
(144,755,o),
(93,722,o),
(69,666,c),
(112,650,l),
(131,690,o),
(166,713,o),
(207,713,cs),
(270,713,o),
(308,675,o),
(309,611,c)
);
}
);
width = 442;
}
);
metricLeft = "=a";
metricRight = "=a";
unicode = 170;
},
{
glyphname = ordfeminine.ss01;
lastChange = "2025-06-05 19:08:50 +0000";
layers = (
{
layerId = "30C2FD74-1A74-41AC-9C29-B288AE1DBDD7";
shapes = (
{
closed = 1;
nodes = (
(333,361,o),
(373,445,o),
(373,558,cs),
(373,671,o),
(333,755,o),
(227,755,cs),
(120,755,o),
(40,671,o),
(40,558,cs),
(40,445,o),
(120,361,o),
(227,361,cs)
);
},
{
closed = 1;
nodes = (
(164,430,o),
(117,485,o),
(117,558,cs),
(117,631,o),
(164,686,o),
(227,686,cs),
(289,686,o),
(336,631,o),
(336,558,cs),
(336,485,o),
(289,430,o),
(227,430,cs)
);
},
{
closed = 1;
nodes = (
(413,369,l),
(413,747,l),
(340,747,l),
(343,369,l)
);
}
);
width = 493;
},
{
layerId = "9398AC28-6BE1-4A79-9C94-3CBC2F226CE7";
shapes = (
{
closed = 1;
nodes = (
(323,353,o),
(390,439,o),
(390,554,cs),
(390,669,o),
(323,755,o),
(233,755,cs),
(120,755,o),
(35,669,o),
(35,554,cs),
(35,439,o),
(120,353,o),
(233,353,cs)
);
},
{
closed = 1;
nodes = (
(193,457,o),
(155,499,o),
(155,554,cs),
(155,609,o),
(193,651,o),
(243,651,cs),
(293,651,o),
(330,609,o),
(330,554,cs),
(330,499,o),
(293,457,o),
(243,457,cs)
);
},
{
closed = 1;
nodes = (
(449,362,l),
(449,747,l),
(341,747,l),
(341,362,l)
);
}
);
width = 519;
},
{
layerId = "C1DB0BE6-5704-4A8C-8C00-D80E72C16D98";
shapes = (
{
closed = 1;
nodes = (
(331,367,o),
(387,450,o),
(387,561,cs),
(387,672,o),
(331,755,o),
(229,755,cs),
(127,755,o),
(50,672,o),
(50,561,cs),
(50,450,o),
(127,367,o),
(229,367,cs)
);
},
{
closed = 1;
nodes = (
(153,409,o),
(96,474,o),
(96,561,cs),
(96,648,o),
(153,713,o),
(229,713,cs),
(304,713,o),
(361,648,o),
(361,561,cs),
(361,474,o),
(304,409,o),
(229,409,cs)
);
},
{
closed = 1;
nodes = (
(404,375,l),
(404,747,l),
(361,747,l),
(361,375,l)
);
}
);
width = 494;
}
);
metricLeft = "=a";
metricRight = "=a";
},
{
glyphname = ordmasculine;
lastChange = "2025-06-05 19:08:50 +0000";
layers = (
{
layerId = "30C2FD74-1A74-41AC-9C29-B288AE1DBDD7";
shapes = (
{
closed = 1;
nodes = (
(349,361,o),
(433,445,o),
(433,558,cs),
(433,671,o),
(349,755,o),
(237,755,cs),
(124,755,o),
(40,671,o),
(40,558,cs),
(40,445,o),
(124,361,o),
(237,361,cs)
);
},
{
closed = 1;
nodes = (
(168,430,o),
(117,485,o),
(117,558,cs),
(117,631,o),
(168,686,o),
(237,686,cs),
(305,686,o),
(356,631,o),
(356,558,cs),
(356,485,o),
(305,430,o),
(237,430,cs)
);
}
);
width = 473;
},
{
layerId = "9398AC28-6BE1-4A79-9C94-3CBC2F226CE7";
shapes = (
{
closed = 1;
nodes = (
(361,353,o),
(450,439,o),
(450,554,cs),
(450,669,o),
(361,755,o),
(243,755,cs),
(124,755,o),
(35,669,o),
(35,554,cs),
(35,439,o),
(124,353,o),
(243,353,cs)
);
},
{
closed = 1;
nodes = (
(193,457,o),
(155,499,o),
(155,554,cs),
(155,609,o),
(193,651,o),
(243,651,cs),
(293,651,o),
(330,609,o),
(330,554,cs),
(330,499,o),
(293,457,o),
(243,457,cs)
);
}
);
width = 485;
},
{
layerId = "C1DB0BE6-5704-4A8C-8C00-D80E72C16D98";
shapes = (
{
closed = 1;
nodes = (
(346,367,o),
(427,450,o),
(427,561,cs),
(427,672,o),
(346,755,o),
(239,755,cs),
(131,755,o),
(50,672,o),
(50,561,cs),
(50,450,o),
(131,367,o),
(239,367,cs)
);
},
{
closed = 1;
nodes = (
(157,409,o),
(96,474,o),
(96,561,cs),
(96,648,o),
(157,713,o),
(239,713,cs),
(320,713,o),
(381,648,o),
(381,561,cs),
(381,474,o),
(320,409,o),
(239,409,cs)
);
}
);
width = 477;
}
);
metricLeft = "=o";
metricRight = "=o";
unicode = 186;
},
{
color = 5;
glyphname = Delta;
kernLeft = A;
kernRight = A;
lastChange = "2025-03-20 01:59:44 +0000";
layers = (
{
layerId = "30C2FD74-1A74-41AC-9C29-B288AE1DBDD7";
shapes = (
{
closed = 1;
nodes = (
(696,0,l),
(696,75,l),
(401,745,l),
(315,745,l),
(20,75,l),
(20,0,l)
);
},
{
closed = 1;
nodes = (
(372,685,l),
(344,685,l),
(622,41,l),
(648,75,l),
(68,75,l),
(94,41,l)
);
}
);
width = 716;
},
{
layerId = "9398AC28-6BE1-4A79-9C94-3CBC2F226CE7";
shapes = (
{
closed = 1;
nodes = (
(728,0,l),
(728,135,l),
(472,745,l),
(266,745,l),
(10,135,l),
(10,0,l)
);
},
{
closed = 1;
nodes = (
(390,638,l),
(348,638,l),
(582,71,l),
(628,135,l),
(109,135,l),
(155,71,l)
);
}
);
width = 738;
},
{
layerId = "C1DB0BE6-5704-4A8C-8C00-D80E72C16D98";
shapes = (
{
closed = 1;
nodes = (
(691,0,l),
(691,45,l),
(382,745,l),
(334,745,l),
(25,45,l),
(25,0,l)
);
},
{
closed = 1;
nodes = (
(370,705,l),
(346,705,l),
(649,11,l),
(673,45,l),
(43,45,l),
(67,11,l)
);
}
);
width = 716;
}
);
metricLeft = "=A";
metricRight = "=A";
unicode = 916;
},
{
color = 5;
glyphname = Omega;
kernLeft = O;
kernRight = O;
lastChange = "2025-03-20 01:59:44 +0000";
layers = (
{
layerId = "30C2FD74-1A74-41AC-9C29-B288AE1DBDD7";
shapes = (
{
closed = 1;
nodes = (
(352,0,l),
(352,75,l),
(231,109,o),
(140,241,o),
(140,383,cs),
(140,554,o),
(266,682,o),
(433,682,cs),
(600,682,o),
(726,554,o),
(726,383,cs),
(726,241,o),
(635,109,o),
(514,75,c),
(514,0,l),
(806,0,l),
(806,75,l),
(625,75,l),
(642,62,l),
(736,122,o),
(806,260,o),
(806,383,cs),
(806,597,o),
(646,757,o),
(433,757,cs),
(220,757,o),
(60,597,o),
(60,383,cs),
(60,260,o),
(130,122,o),
(224,62,c),
(241,75,l),
(60,75,l),
(60,0,l)
);
}
);
width = 866;
},
{
layerId = "9398AC28-6BE1-4A79-9C94-3CBC2F226CE7";
shapes = (
{
closed = 1;
nodes = (
(369,0,l),
(369,135,l),
(266,167,o),
(205,259,o),
(205,383,cs),
(205,517,o),
(308,617,o),
(445,617,cs),
(582,617,o),
(685,517,o),
(685,383,cs),
(685,259,o),
(624,167,o),
(521,135,c),
(521,0,l),
(840,0,l),
(840,115,l),
(669,115,l),
(681,106,l),
(781,163,o),
(840,266,o),
(840,383,cs),
(840,597,o),
(671,757,o),
(445,757,cs),
(219,757,o),
(50,597,o),
(50,383,cs),
(50,266,o),
(109,163,o),
(209,106,c),
(221,115,l),
(50,115,l),
(50,0,l)
);
}
);
width = 890;
},
{
layerId = "C1DB0BE6-5704-4A8C-8C00-D80E72C16D98";
shapes = (
{
closed = 1;
nodes = (
(320,0,l),
(320,45,l),
(206,95,o),
(120,240,o),
(120,383,cs),
(120,569,o),
(255,709,o),
(435,709,cs),
(615,709,o),
(750,569,o),
(750,383,cs),
(750,240,o),
(664,95,o),
(550,45,c),
(550,0,l),
(800,0,l),
(800,45,l),
(589,45,l),
(605,33,l),
(716,95,o),
(800,245,o),
(800,383,cs),
(800,597,o),
(644,757,o),
(435,757,cs),
(226,757,o),
(70,597,o),
(70,383,cs),
(70,245,o),
(154,95,o),
(265,33,c),
(281,45,l),
(70,45,l),
(70,0,l)
);
}
);
width = 870;
}
);
metricLeft = "=O";
metricRight = "=O";
unicode = 937;
},
{
color = 5;
glyphname = pi;
kernLeft = t;
kernRight = t;
lastChange = "2025-06-05 02:11:39 +0000";
layers = (
{
layerId = "30C2FD74-1A74-41AC-9C29-B288AE1DBDD7";
shapes = (
{
closed = 1;
nodes = (
(205,0,l),
(205,461,l),
(395,461,l),
(395,158,l),
(395,59,o),
(457,0,o),
(563,0,c),
(563,75,l),
(505,75,o),
(470,106,o),
(470,158,c),
(470,461,l),
(590,461,l),
(590,536,l),
(10,536,l),
(10,461,l),
(130,461,l),
(130,0,l)
);
}
);
width = 600;
},
{
layerId = "9398AC28-6BE1-4A79-9C94-3CBC2F226CE7";
shapes = (
{
closed = 1;
nodes = (
(275,0,l),
(275,416,l),
(415,416,l),
(415,205,l),
(415,76,o),
(502,0,o),
(649,0,c),
(649,130,l),
(596,130,o),
(565,158,o),
(565,205,c),
(565,416,l),
(673,416,l),
(673,546,l),
(15,546,l),
(15,416,l),
(125,416,l),
(125,0,l)
);
}
);
width = 688;
},
{
layerId = "C1DB0BE6-5704-4A8C-8C00-D80E72C16D98";
shapes = (
{
closed = 1;
nodes = (
(180,0,l),
(180,486,l),
(390,486,l),
(390,127,l),
(390,47,o),
(441,0,o),
(526,0,c),
(526,40,l),
(469,40,o),
(435,72,o),
(435,127,c),
(435,486,l),
(555,486,l),
(555,526,l),
(15,526,l),
(15,486,l),
(135,486,l),
(135,0,l)
);
}
);
width = 570;
}
);
metricLeft = "=f";
metricRight = "=|";
unicode = 960;
},
{
glyphname = "a-deva";
lastChange = "2025-08-14 01:44:12 +0000";
layers = (
{
layerId = "C1DB0BE6-5704-4A8C-8C00-D80E72C16D98";
shapes = (
{
closed = 1;
nodes = (
(476,309,o),
(552,311,o),
(598,322,c),
(598,368,l),
(555,357,o),
(464,355,o),
(386,364,c),
(421,317,l)
);
},
{
pos = (512,0);
ref = "aamatra-cut-deva.comp";
},
{
pos = (20,0);
ref = "_a-deva.component";
}
);
width = 742;
},
{
layerId = "30C2FD74-1A74-41AC-9C29-B288AE1DBDD7";
shapes = (
{
closed = 1;
nodes = (
(496,275,o),
(576,280,o),
(618,291,c),
(618,363,l),
(566,351,o),
(465,349,o),
(409,357,c),
(459,281,l)
);
},
{
pos = (531,0);
ref = "aamatra-cut-deva.comp";
},
{
pos = (20,0);
ref = "_a-deva.component";
}
);
width = 791;
},
{
layerId = "9398AC28-6BE1-4A79-9C94-3CBC2F226CE7";
shapes = (
{
closed = 1;
nodes = (
(557,209,o),
(646,224,o),
(667,231,c),
(667,362,l),
(610,342,o),
(553,339,o),
(487,342,c),
(508,219,l)
);
},
{
pos = (572,0);
ref = "aamatra-cut-deva.comp";
},
{
pos = (20,0);
ref = "_a-deva.component";
}
);
width = 887;
}
);
metricLeft = "=20";
metricRight = "=aaMatra-deva";
unicode = 2309;
},
{
glyphname = "i-deva";
lastChange = "2025-05-27 00:50:40 +0000";
layers = (
{
anchors = (
{
name = bottom;
pos = (438,0);
},
{
name = candra;
pos = (268,516);
},
{
name = top;
pos = (381,516);
}
);
layerId = "C1DB0BE6-5704-4A8C-8C00-D80E72C16D98";
shapes = (
{
closed = 1;
nodes = (
(379,30,o),
(463,88,o),
(463,185,cs),
(463,287,o),
(396,342,o),
(283,332,cs),
(191,324,o),
(136,351,o),
(136,396,cs),
(136,444,o),
(173,469,o),
(236,469,cs),
(407,469,l),
(407,627,l),
(565,627,l),
(565,672,l),
(-20,672,l),
(-20,627,l),
(357,627,l),
(357,514,l),
(244,514,ls),
(145,514,o),
(86,470,o),
(86,396,cs),
(86,319,o),
(167,271,o),
(275,284,cs),
(362,294,o),
(413,257,o),
(413,185,cs),
(413,116,o),
(348,76,o),
(238,76,c),
(238,30,l)
);
},
{
closed = 1;
nodes = (
(309,-84,l),
(181,85,l),
(116,85,l),
(244,-84,l)
);
},
{
closed = 1;
nodes = (
(239,76,l),
(194,76,o),
(183,77,o),
(149,93,c),
(129,51,l),
(170,36,o),
(185,30,o),
(239,30,c)
);
},
{
closed = 1;
nodes = (
(179,203,l),
(129,213,l),
(128,52,l),
(209,52,l)
);
},
{
closed = 1;
nodes = (
(129,213,l),
(93,204,o),
(67,169,o),
(68,133,c),
(66,95,o),
(82,68,o),
(129,51,c)
);
}
);
width = 545;
},
{
anchors = (
{
name = bottom;
pos = (276,0);
},
{
name = candra;
pos = (276,526);
},
{
name = top;
pos = (390,526);
}
);
layerId = "30C2FD74-1A74-41AC-9C29-B288AE1DBDD7";
shapes = (
{
closed = 1;
nodes = (
(411,20,o),
(493,75,o),
(493,184,cs),
(493,296,o),
(418,356,o),
(292,344,cs),
(214,337,o),
(156,354,o),
(156,397,cs),
(156,436,o),
(195,455,o),
(248,455,cs),
(431,455,l),
(431,602,l),
(591,602,l),
(591,672,l),
(-20,672,l),
(-20,602,l),
(351,602,l),
(351,525,l),
(258,525,ls),
(155,525,o),
(77,478,o),
(77,402,cs),
(77,301,o),
(167,251,o),
(288,271,cs),
(367,284,o),
(413,251,o),
(413,182,cs),
(413,120,o),
(361,83,o),
(273,83,c),
(273,20,l)
);
},
{
closed = 1;
nodes = (
(349,-95,l),
(207,87,l),
(117,87,l),
(259,-95,l)
);
},
{
closed = 1;
nodes = (
(273,83,l),
(232,83,o),
(199,88,o),
(165,106,c),
(131,39,l),
(174,22,o),
(222,20,o),
(273,20,c)
);
},
{
closed = 1;
nodes = (
(192,215,l),
(132,228,l),
(132,41,l),
(222,41,l)
);
},
{
closed = 1;
nodes = (
(132,228,l),
(91,218,o),
(59,175,o),
(58,135,c),
(56,90,o),
(88,56,o),
(132,39,c)
);
}
);
width = 571;
},
{
anchors = (
{
name = bottom;
pos = (290,0);
},
{
name = candra;
pos = (290,536);
},
{
name = top;
pos = (402,536);
}
);
layerId = "9398AC28-6BE1-4A79-9C94-3CBC2F226CE7";
shapes = (
{
closed = 1;
nodes = (
(427,0,o),
(532,55,o),
(532,154,cs),
(532,259,o),
(450,324,o),
(311,312,cs),
(256,308,o),
(224,330,o),
(224,353,cs),
(224,373,o),
(238,385,o),
(263,385,cs),
(479,385,l),
(479,556,l),
(609,556,l),
(609,672,l),
(-20,672,l),
(-20,556,l),
(325,556,l),
(325,500,l),
(269,500,ls),
(140,500,o),
(63,444,o),
(63,349,cs),
(63,256,o),
(165,191,o),
(288,211,cs),
(343,220,o),
(375,194,o),
(375,159,cs),
(375,123,o),
(342,101,o),
(287,101,c),
(287,0,l)
);
},
{
closed = 1;
nodes = (
(395,-144,l),
(203,94,l),
(53,94,l),
(245,-144,l)
);
},
{
closed = 1;
nodes = (
(288,101,l),
(250,101,o),
(198,106,o),
(170,112,c),
(129,0,l),
(174,-7,o),
(232,0,o),
(288,0,c)
);
},
{
closed = 1;
nodes = (
(208,175,l),
(129,194,l),
(129,0,l),
(232,0,l)
);
},
{
closed = 1;
nodes = (
(129,194,l),
(74,190,o),
(42,139,o),
(42,102,c),
(41,63,o),
(73,19,o),
(129,0,c)
);
}
);
width = 589;
}
);
metricLeft = "=aaMatra-deva";
metricRight = "=aaMatra-deva";
unicode = 2311;
},
{
glyphname = "ii-deva";
lastChange = "2025-05-27 00:50:44 +0000";
layers = (
{
layerId = "C1DB0BE6-5704-4A8C-8C00-D80E72C16D98";
shapes = (
{
closed = 1;
nodes = (
(393,667,l),
(346,721,o),
(325,758,o),
(325,800,cs),
(325,856,o),
(369,892,o),
(429,892,cs),
(460,892,o),
(484,885,o),
(513,870,c),
(528,912,l),
(496,928,o),
(461,936,o),
(424,936,cs),
(344,936,o),
(276,888,o),
(276,808,cs),
(276,761,o),
(294,718,o),
(337,667,c)
);
},
{
ref = "i-deva";
}
);
width = 545;
},
{
layerId = "30C2FD74-1A74-41AC-9C29-B288AE1DBDD7";
shapes = (
{
closed = 1;
nodes = (
(407,667,l),
(367,712,o),
(342,748,o),
(342,787,cs),
(342,836,o),
(372,868,o),
(425,868,cs),
(450,868,o),
(475,861,o),
(502,847,c),
(524,912,l),
(493,928,o),
(458,936,o),
(418,936,cs),
(326,936,o),
(263,887,o),
(263,802,cs),
(263,763,o),
(278,718,o),
(317,667,c)
);
},
{
ref = "i-deva";
}
);
width = 571;
},
{
layerId = "9398AC28-6BE1-4A79-9C94-3CBC2F226CE7";
shapes = (
{
closed = 1;
nodes = (
(480,669,l),
(444,707,o),
(432,731,o),
(432,758,cs),
(432,803,o),
(464,825,o),
(509,825,cs),
(533,825,o),
(554,822,o),
(573,816,c),
(600,921,l),
(567,931,o),
(527,936,o),
(480,936,cs),
(364,936,o),
(282,887,o),
(282,788,cs),
(282,751,o),
(296,708,o),
(339,669,c)
);
},
{
ref = "i-deva";
}
);
width = 589;
}
);
metricLeft = "=aaMatra-deva";
metricRight = "=aaMatra-deva";
unicode = 2312;
},
{
glyphname = "u-deva";
lastChange = "2025-05-27 02:46:27 +0000";
layers = (
{
anchors = (
{
name = candra;
pos = (429,516);
}
);
layerId = "C1DB0BE6-5704-4A8C-8C00-D80E72C16D98";
shapes = (
{
closed = 1;
nodes = (
(290,90,l),
(200,90,o),
(127,158,o),
(91,270,c),
(50,249,l),
(89,133,o),
(171,44,o),
(290,44,c)
);
},
{
closed = 1;
nodes = (
(555,627,l),
(555,672,l),
(-20,672,l),
(-20,627,l)
);
},
{
pos = (251,0);
ref = "_u-comp.deva";
}
);
width = 535;
},
{
anchors = (
{
name = candra;
pos = (435,526);
}
);
layerId = "30C2FD74-1A74-41AC-9C29-B288AE1DBDD7";
shapes = (
{
closed = 1;
nodes = (
(293,98,l),
(214,98,o),
(142,171,o),
(99,289,c),
(31,252,l),
(80,126,o),
(164,25,o),
(293,25,c)
);
},
{
closed = 1;
nodes = (
(566,602,l),
(566,672,l),
(-20,672,l),
(-20,602,l)
);
},
{
pos = (259,0);
ref = "_u-comp.deva";
}
);
width = 546;
},
{
anchors = (
{
name = candra;
pos = (435,536);
}
);
layerId = "9398AC28-6BE1-4A79-9C94-3CBC2F226CE7";
shapes = (
{
closed = 1;
nodes = (
(325,127,l),
(261,127,o),
(181,193,o),
(140,300,c),
(11,243,l),
(68,109,o),
(185,0,o),
(325,0,c)
);
},
{
closed = 1;
nodes = (
(624,556,l),
(624,672,l),
(-20,672,l),
(-20,556,l)
);
},
{
pos = (254,0);
ref = "_u-comp.deva";
}
);
width = 604;
}
);
metricLeft = "=aaMatra-deva";
metricRight = "=aaMatra-deva";
unicode = 2313;
},
{
glyphname = "uu-deva";
lastChange = "2025-05-27 00:31:08 +0000";
layers = (
{
anchors = (
{
name = candra;
pos = (419,516);
}
);
layerId = "C1DB0BE6-5704-4A8C-8C00-D80E72C16D98";
shapes = (
{
closed = 1;
nodes = (
(667,111,o),
(692,182,o),
(692,241,cs),
(692,330,o),
(640,382,o),
(551,382,cs),
(509,382,o),
(459,362,o),
(418,329,c),
(444,293,l),
(472,321,o),
(511,338,o),
(547,338,cs),
(607,338,o),
(643,302,o),
(643,241,cs),
(643,192,o),
(619,131,o),
(579,77,c),
(624,50,l)
);
},
{
closed = 1;
nodes = (
(725,627,l),
(725,672,l),
(440,672,l),
(440,627,l)
);
},
{
ref = "u-deva";
}
);
width = 705;
},
{
anchors = (
{
name = candra;
pos = (425,526);
}
);
layerId = "30C2FD74-1A74-41AC-9C29-B288AE1DBDD7";
shapes = (
{
closed = 1;
nodes = (
(705,86,o),
(729,155,o),
(729,215,cs),
(729,308,o),
(671,363,o),
(572,363,cs),
(527,363,o),
(479,348,o),
(442,322,c),
(479,263,l),
(502,283,o),
(533,295,o),
(564,295,cs),
(618,295,o),
(650,264,o),
(650,211,cs),
(650,164,o),
(629,112,o),
(593,71,c),
(664,30,l)
);
},
{
closed = 1;
nodes = (
(766,602,l),
(766,672,l),
(330,672,l),
(330,602,l)
);
},
{
ref = "u-deva";
}
);
width = 746;
},
{
anchors = (
{
name = candra;
pos = (435,536);
}
);
layerId = "9398AC28-6BE1-4A79-9C94-3CBC2F226CE7";
shapes = (
{
closed = 1;
nodes = (
(780,76,o),
(810,151,o),
(810,200,cs),
(810,302,o),
(741,362,o),
(625,362,cs),
(569,362,o),
(510,346,o),
(468,318,c),
(532,216,l),
(553,230,o),
(577,239,o),
(598,239,cs),
(634,239,o),
(655,220,o),
(655,187,cs),
(655,158,o),
(636,116,o),
(604,74,c),
(728,0,l)
);
},
{
closed = 1;
nodes = (
(844,556,l),
(844,672,l),
(180,672,l),
(180,556,l)
);
},
{
ref = "u-deva";
}
);
width = 824;
}
);
metricLeft = "=aaMatra-deva";
metricRight = "=aaMatra-deva";
unicode = 2314;
},
{
glyphname = "rVocalic-deva";
lastChange = "2025-06-19 02:38:22 +0000";
layers = (
{
layerId = "C1DB0BE6-5704-4A8C-8C00-D80E72C16D98";
shapes = (
{
closed = 1;
nodes = (
(749,0,o),
(796,12,o),
(837,33,c),
(820,78,l),
(780,58,o),
(738,46,o),
(707,46,cs),
(647,46,o),
(611,78,o),
(611,132,cs),
(611,196,o),
(668,221,o),
(765,241,c),
(765,286,l),
(672,346,l),
(695,353,o),
(709,373,o),
(709,399,cs),
(709,437,o),
(685,460,o),
(644,460,c),
(599,444,l),
(612,370,l),
(458,340,l),
(458,295,l),
(630,327,l),
(709,271,l),
(638,251,o),
(564,213,o),
(564,134,cs),
(564,50,o),
(619,0,o),
(711,0,cs)
);
},
{
closed = 1;
nodes = (
(857,627,l),
(857,672,l),
(528,672,l),
(528,627,l)
);
},
{
ref = "ta_ra-deva";
}
);
width = 837;
},
{
layerId = "30C2FD74-1A74-41AC-9C29-B288AE1DBDD7";
shapes = (
{
closed = 1;
nodes = (
(791,-6,o),
(848,9,o),
(889,28,c),
(863,98,l),
(828,79,o),
(780,65,o),
(750,65,cs),
(704,65,o),
(670,89,o),
(670,120,cs),
(670,163,o),
(725,207,o),
(799,223,c),
(799,293,l),
(725,332,l),
(752,343,o),
(773,373,o),
(773,401,cs),
(773,445,o),
(737,478,o),
(690,478,c),
(624,448,l),
(634,379,l),
(495,357,l),
(495,287,l),
(662,315,l),
(730,262,l),
(654,241,o),
(597,182,o),
(597,125,cs),
(597,50,o),
(665,-6,o),
(756,-6,cs)
);
},
{
closed = 1;
nodes = (
(925,602,l),
(925,672,l),
(540,672,l),
(540,602,l)
);
},
{
ref = "ta_ra-deva";
}
);
width = 905;
},
{
layerId = "9398AC28-6BE1-4A79-9C94-3CBC2F226CE7";
shapes = (
{
closed = 1;
nodes = (
(903,-12,o),
(970,3,o),
(1015,23,c),
(972,129,l),
(939,112,o),
(895,99,o),
(870,99,cs),
(839,99,o),
(816,117,o),
(816,141,cs),
(816,164,o),
(860,185,o),
(919,190,c),
(919,280,l),
(856,324,l),
(877,336,o),
(892,370,o),
(892,405,cs),
(892,463,o),
(848,506,o),
(789,506,c),
(688,460,l),
(703,399,l),
(582,368,l),
(582,241,l),
(749,286,l),
(776,265,l),
(721,247,o),
(679,193,o),
(679,139,cs),
(679,53,o),
(756,-12,o),
(858,-12,cs)
);
},
{
closed = 1;
nodes = (
(1015,556,l),
(1015,672,l),
(642,672,l),
(642,556,l)
);
},
{
ref = "ta_ra-deva";
}
);
width = 995;
}
);
metricLeft = "=aaMatra-deva";
metricRight = "=aaMatra-deva";
unicode = 2315;
},
{
glyphname = "rrVocalic-deva";
lastChange = "2025-06-19 02:39:01 +0000";
layers = (
{
layerId = "C1DB0BE6-5704-4A8C-8C00-D80E72C16D98";
shapes = (
{
closed = 1;
nodes = (
(620,338,l),
(700,281,l),
(615,254,o),
(564,213,o),
(564,170,cs),
(564,122,o),
(584,82,o),
(619,62,c),
(608,47,o),
(601,26,o),
(601,6,cs),
(601,-69,o),
(656,-113,o),
(748,-113,cs),
(788,-113,o),
(834,-101,o),
(874,-80,c),
(858,-39,l),
(822,-57,o),
(780,-68,o),
(745,-68,cs),
(684,-68,o),
(648,-42,o),
(648,2,cs),
(648,17,o),
(654,34,o),
(663,46,c),
(716,40,o),
(797,53,o),
(837,74,c),
(821,115,l),
(784,97,o),
(742,86,o),
(708,86,cs),
(647,86,o),
(611,116,o),
(611,166,cs),
(611,205,o),
(664,236,o),
(755,251,c),
(755,296,l),
(672,352,l),
(695,360,o),
(709,380,o),
(709,406,cs),
(709,444,o),
(681,467,o),
(634,467,c),
(589,451,l),
(602,377,l),
(449,347,l),
(449,302,l)
);
},
{
closed = 1;
nodes = (
(897,627,l),
(897,672,l),
(528,672,l),
(528,627,l)
);
},
{
ref = "ta_ra-deva";
}
);
width = 877;
},
{
layerId = "30C2FD74-1A74-41AC-9C29-B288AE1DBDD7";
shapes = (
{
closed = 1;
nodes = (
(659,327,l),
(727,274,l),
(641,262,o),
(577,215,o),
(577,155,cs),
(577,117,o),
(600,83,o),
(631,62,c),
(622,48,o),
(616,26,o),
(616,10,cs),
(616,-65,o),
(684,-121,o),
(775,-121,cs),
(814,-121,o),
(871,-106,o),
(908,-86,c),
(883,-24,l),
(846,-40,o),
(797,-52,o),
(770,-52,cs),
(724,-52,o),
(689,-29,o),
(689,1,cs),
(689,14,o),
(695,29,o),
(702,36,c),
(754,32,o),
(832,49,o),
(869,68,c),
(844,130,l),
(806,115,o),
(758,103,o),
(731,103,cs),
(685,103,o),
(650,126,o),
(650,156,cs),
(650,193,o),
(713,227,o),
(796,236,c),
(796,305,l),
(722,344,l),
(749,355,o),
(769,384,o),
(769,413,cs),
(769,457,o),
(734,490,o),
(687,490,c),
(621,460,l),
(631,386,l),
(492,359,l),
(492,291,l)
);
},
{
closed = 1;
nodes = (
(935,602,l),
(935,672,l),
(540,672,l),
(540,602,l)
);
},
{
ref = "ta_ra-deva";
}
);
width = 915;
},
{
layerId = "9398AC28-6BE1-4A79-9C94-3CBC2F226CE7";
shapes = (
{
closed = 1;
nodes = (
(749,296,l),
(776,265,l),
(703,231,o),
(649,187,o),
(649,130,cs),
(649,93,o),
(672,60,o),
(703,39,c),
(697,24,o),
(692,1,o),
(692,-15,cs),
(692,-93,o),
(769,-152,o),
(871,-152,cs),
(916,-152,o),
(984,-138,o),
(1028,-119,c),
(988,-20,l),
(953,-37,o),
(908,-49,o),
(883,-49,cs),
(852,-49,o),
(829,-34,o),
(829,-15,cs),
(829,-9,o),
(832,-1,o),
(835,4,c),
(878,5,o),
(943,19,o),
(986,37,c),
(945,136,l),
(909,119,o),
(864,106,o),
(840,106,cs),
(810,106,o),
(787,121,o),
(787,141,cs),
(787,165,o),
(844,186,o),
(919,190,c),
(919,280,l),
(856,324,l),
(877,336,o),
(892,370,o),
(892,405,cs),
(892,463,o),
(848,506,o),
(789,506,c),
(688,460,l),
(698,409,l),
(582,379,l),
(582,253,l)
);
},
{
closed = 1;
nodes = (
(1015,556,l),
(1015,672,l),
(642,672,l),
(642,556,l)
);
},
{
ref = "ta_ra-deva";
}
);
width = 1008;
}
);
metricLeft = "=aaMatra-deva";
metricRight = "=aaMatra-deva";
unicode = 2400;
},
{
glyphname = "e-deva";
lastChange = "2025-06-17 01:34:13 +0000";
layers = (
{
anchors = (
{
name = bottom;
pos = (425,0);
},
{
name = candra;
pos = (433,516);
},
{
name = top;
pos = (430,516);
}
);
layerId = "C1DB0BE6-5704-4A8C-8C00-D80E72C16D98";
shapes = (
{
closed = 1;
nodes = (
(450,-98,l),
(450,-2,l),
(450,58,o),
(422,89,o),
(326,146,cs),
(233,201,ls),
(146,253,o),
(135,276,o),
(135,390,cs),
(135,627,l),
(409,627,l),
(409,434,ls),
(409,375,o),
(404,357,o),
(384,338,cs),
(369,323,o),
(342,314,o),
(312,306,c),
(333,261,l),
(380,269,o),
(411,287,o),
(431,314,cs),
(452,343,o),
(458,371,o),
(458,435,cs),
(458,627,l),
(569,627,l),
(569,672,l),
(-20,672,l),
(-20,627,l),
(85,627,l),
(85,369,ls),
(85,317,o),
(90,291,o),
(101,264,cs),
(114,229,o),
(143,199,o),
(191,170,cs),
(281,116,ls),
(332,86,o),
(400,50,o),
(400,-5,c),
(400,-98,l)
);
}
);
width = 549;
},
{
anchors = (
{
name = bottom;
pos = (454,0);
},
{
name = candra;
pos = (466,526);
},
{
name = top;
pos = (460,526);
}
);
layerId = "30C2FD74-1A74-41AC-9C29-B288AE1DBDD7";
shapes = (
{
closed = 1;
nodes = (
(495,-108,l),
(495,-3,l),
(495,62,o),
(466,99,o),
(379,148,cs),
(269,210,ls),
(179,261,o),
(169,284,o),
(169,403,cs),
(169,602,l),
(423,602,l),
(423,439,ls),
(423,387,o),
(417,368,o),
(400,351,cs),
(387,336,o),
(361,327,o),
(329,319,c),
(364,253,l),
(416,261,o),
(447,275,o),
(470,306,cs),
(494,337,o),
(503,372,o),
(503,440,cs),
(503,602,l),
(617,602,l),
(617,672,l),
(-20,672,l),
(-20,602,l),
(89,602,l),
(89,366,ls),
(89,321,o),
(94,286,o),
(105,262,cs),
(122,218,o),
(157,188,o),
(213,156,cs),
(300,106,ls),
(351,77,o),
(413,48,o),
(413,-5,c),
(413,-108,l)
);
}
);
width = 597;
},
{
anchors = (
{
name = bottom;
pos = (474,0);
},
{
name = candra;
pos = (503,536);
},
{
name = top;
pos = (489,536);
}
);
layerId = "9398AC28-6BE1-4A79-9C94-3CBC2F226CE7";
shapes = (
{
closed = 1;
nodes = (
(548,-144,l),
(548,-43,l),
(548,21,o),
(526,60,o),
(443,111,cs),
(301,199,ls),
(221,248,o),
(210,263,o),
(210,352,cs),
(210,556,l),
(416,556,l),
(416,435,ls),
(416,396,o),
(412,388,o),
(399,375,cs),
(391,367,o),
(352,354,o),
(327,350,c),
(383,231,l),
(459,240,o),
(494,251,o),
(527,280,cs),
(559,311,o),
(571,346,o),
(571,418,cs),
(571,556,l),
(659,556,l),
(659,672,l),
(-20,672,l),
(-20,556,l),
(55,556,l),
(55,337,ls),
(55,276,o),
(59,246,o),
(71,219,cs),
(90,176,o),
(125,150,o),
(185,112,cs),
(301,39,ls),
(363,0,o),
(392,-14,o),
(392,-60,c),
(392,-144,l)
);
}
);
width = 639;
}
);
metricLeft = "=aaMatra-deva";
metricRight = "=aaMatra-deva";
unicode = 2319;
},
{
glyphname = "aw-deva";
lastChange = "2024-12-16 02:50:15 +0000";
layers = (
{
layerId = "C1DB0BE6-5704-4A8C-8C00-D80E72C16D98";
shapes = (
{
ref = "aa-deva";
},
{
closed = 1;
nodes = (
(835,672,l),
(817,763,o),
(749,790,o),
(678,789,cs),
(599,788,o),
(565,798,o),
(534,885,c),
(485,869,l),
(515,780,o),
(571,740,o),
(645,740,cs),
(728,740,o),
(783,734,o),
(798,672,c)
);
},
{
closed = 1;
nodes = (
(845,672,l),
(822,785,o),
(813,880,o),
(738,879,cs),
(679,878,o),
(638,887,o),
(614,955,c),
(565,939,l),
(595,850,o),
(651,832,o),
(705,832,cs),
(763,832,o),
(788,793,o),
(808,672,c)
);
}
);
width = 927;
},
{
layerId = "30C2FD74-1A74-41AC-9C29-B288AE1DBDD7";
shapes = (
{
ref = "aa-deva";
},
{
closed = 1;
nodes = (
(885,672,l),
(857,791,o),
(804,789,o),
(701,789,cs),
(644,789,o),
(617,811,o),
(590,883,c),
(525,860,l),
(560,762,o),
(621,726,o),
(679,726,cs),
(757,726,o),
(809,731,o),
(828,672,c)
);
},
{
closed = 1;
nodes = (
(915,672,l),
(887,791,o),
(874,876,o),
(781,886,cs),
(723,893,o),
(691,914,o),
(680,953,c),
(615,930,l),
(634,867,o),
(676,835,o),
(749,826,cs),
(813,818,o),
(823,775,o),
(848,672,c)
);
}
);
width = 996;
},
{
layerId = "9398AC28-6BE1-4A79-9C94-3CBC2F226CE7";
shapes = (
{
ref = "aa-deva";
},
{
closed = 1;
nodes = (
(1046,672,l),
(1015,789,o),
(962,826,o),
(856,806,cs),
(746,785,o),
(731,850,o),
(708,903,c),
(594,862,l),
(637,747,o),
(675,696,o),
(769,710,cs),
(843,721,o),
(913,710,o),
(930,672,c)
);
},
{
closed = 1;
nodes = (
(1076,672,l),
(1055,789,o),
(1062,976,o),
(946,946,cs),
(893,932,o),
(861,943,o),
(848,973,c),
(734,932,l),
(762,858,o),
(818,836,o),
(889,850,cs),
(963,865,o),
(965,758,o),
(980,672,c)
);
}
);
width = 1152;
}
);
unicode = 2421;
},
{
glyphname = "aaMatra-deva";
lastChange = "2025-08-14 01:43:22 +0000";
layers = (
{
anchors = (
{
name = bottom;
pos = (125,0);
},
{
name = candra;
pos = (125,516);
},
{
name = top;
pos = (125,516);
}
);
layerId = "C1DB0BE6-5704-4A8C-8C00-D80E72C16D98";
shapes = (
{
closed = 1;
nodes = (
(150,0,l),
(150,627,l),
(270,627,l),
(270,672,l),
(-20,672,l),
(-20,627,l),
(100,627,l),
(100,0,l)
);
}
);
width = 250;
},
{
anchors = (
{
name = bottom;
pos = (140,0);
},
{
name = candra;
pos = (140,526);
},
{
name = top;
pos = (140,526);
}
);
layerId = "30C2FD74-1A74-41AC-9C29-B288AE1DBDD7";
shapes = (
{
closed = 1;
nodes = (
(180,0,l),
(180,602,l),
(300,602,l),
(300,672,l),
(-20,672,l),
(-20,602,l),
(100,602,l),
(100,0,l)
);
}
);
width = 280;
},
{
anchors = (
{
name = bottom;
pos = (158,0);
},
{
name = candra;
pos = (158,536);
},
{
name = top;
pos = (158,536);
}
);
layerId = "9398AC28-6BE1-4A79-9C94-3CBC2F226CE7";
shapes = (
{
closed = 1;
nodes = (
(235,0,l),
(235,556,l),
(335,556,l),
(335,672,l),
(-20,672,l),
(-20,556,l),
(80,556,l),
(80,0,l)
);
}
);
width = 315;
}
);
metricLeft = "=-20";
metricRight = "=-20";
unicode = 2366;
},
{
glyphname = "iMatra-deva";
lastChange = "2025-08-27 21:34:30 +0000";
layers = (
{
anchors = (
{
name = candra;
pos = (115,536);
},
{
name = imatra;
pos = (470,516);
}
);
background = {
anchors = (
{
name = candra;
pos = (118,516);
},
{
name = imatra;
pos = (1297,516);
}
);
shapes = (
{
closed = 1;
nodes = (
(144,670,l),
(125,699,o),
(115,736,o),
(115,765,cs),
(115,862,o),
(214,920,o),
(381,920,cs),
(662,920,o),
(1002,869,o),
(1297,784,c),
(1318,821,l),
(1032,912,o),
(677,966,o),
(364,966,cs),
(176,966,o),
(65,895,o),
(65,776,cs),
(65,743,o),
(75,701,o),
(92,670,c)
);
},
{
ref = "aaMatra-deva";
}
);
};
layerId = "C1DB0BE6-5704-4A8C-8C00-D80E72C16D98";
shapes = (
{
closed = 1;
nodes = (
(144,670,l),
(125,707,o),
(114,757,o),
(114,797,cs),
(114,875,o),
(157,921,o),
(230,921,cs),
(319,921,o),
(400,856,o),
(447,745,c),
(490,764,l),
(433,891,o),
(333,966,o),
(223,966,cs),
(123,966,o),
(64,905,o),
(64,802,cs),
(64,757,o),
(74,705,o),
(92,670,c)
);
},
{
ref = "aaMatra-deva";
}
);
width = 230;
},
{
anchors = (
{
name = candra;
pos = (132,526);
},
{
name = imatra;
pos = (513,526);
}
);
background = {
anchors = (
{
name = candra;
pos = (132,526);
},
{
name = imatra;
pos = (1372,526);
}
);
shapes = (
{
closed = 1;
nodes = (
(174,670,l),
(156,695,o),
(144,732,o),
(144,766,cs),
(144,847,o),
(267,895,o),
(474,895,cs),
(652,895,o),
(1010,850,o),
(1370,775,c),
(1392,838,l),
(1041,918,o),
(664,966,o),
(445,966,cs),
(206,966,o),
(64,895,o),
(64,775,cs),
(64,743,o),
(75,703,o),
(91,670,c)
);
},
{
ref = "aaMatra-deva";
}
);
};
layerId = "30C2FD74-1A74-41AC-9C29-B288AE1DBDD7";
shapes = (
{
closed = 1;
nodes = (
(173,670,l),
(154,704,o),
(144,750,o),
(144,783,cs),
(144,854,o),
(183,896,o),
(250,896,cs),
(328,896,o),
(406,841,o),
(468,745,c),
(533,773,l),
(456,896,o),
(351,966,o),
(239,966,cs),
(129,966,o),
(64,902,o),
(64,795,cs),
(64,755,o),
(74,705,o),
(92,670,c)
);
},
{
ref = "aaMatra-deva";
}
);
width = 253;
},
{
anchors = (
{
name = candra;
pos = (158,536);
},
{
name = imatra;
pos = (590,536);
}
);
background = {
anchors = (
{
name = candra;
pos = (158,536);
},
{
name = imatra;
pos = (1511,536);
}
);
shapes = (
{
closed = 0;
nodes = (
(224,668,l),
(213,687,o),
(207,713,o),
(207,732,cs),
(207,801,o),
(321,841,o),
(515,841,cs),
(715,841,o),
(1075,819,o),
(1484,764,c),
(1531,872,l),
(1081,944,o),
(710,966,o),
(481,966,cs),
(210,966,o),
(50,895,o),
(50,774,cs),
(50,742,o),
(59,700,o),
(75,668,c)
);
},
{
ref = "aaMatra-deva";
}
);
};
layerId = "9398AC28-6BE1-4A79-9C94-3CBC2F226CE7";
shapes = (
{
closed = 1;
nodes = (
(224,668,l),
(213,690,o),
(206,727,o),
(206,758,cs),
(206,816,o),
(238,851,o),
(291,851,cs),
(360,851,o),
(443,812,o),
(487,742,c),
(610,795,l),
(532,909,o),
(396,976,o),
(271,976,cs),
(132,976,o),
(50,905,o),
(50,786,cs),
(50,748,o),
(60,702,o),
(76,668,c)
);
},
{
ref = "aaMatra-deva";
}
);
width = 310;
}
);
metricLeft = "=|aaMatra-deva";
unicode = 2367;
},
{
glyphname = "iMatra_reph-deva";
lastChange = "2025-08-12 00:47:05 +0000";
layers = (
{
background = {
shapes = (
{
closed = 1;
nodes = (
(124,0,l),
(124,627,l),
(234,627,l),
(234,672,l),
(119,672,l),
(100,703,o),
(90,734,o),
(90,764,cs),
(90,862,o),
(213,920,o),
(420,920,cs),
(667,920,o),
(930,842,o),
(1126,685,c),
(1169,715,l),
(1132,755,o),
(1118,786,o),
(1118,830,cs),
(1118,886,o),
(1151,922,o),
(1212,922,cs),
(1243,922,o),
(1266,915,o),
(1295,900,c),
(1310,942,l),
(1279,958,o),
(1245,966,o),
(1207,966,cs),
(1084,966,o),
(1047,862,o),
(1081,773,c),
(905,902,o),
(645,966,o),
(402,966,cs),
(174,966,o),
(40,895,o),
(40,774,cs),
(40,735,o),
(50,707,o),
(67,672,c),
(-20,672,l),
(-20,627,l),
(75,627,l),
(75,0,l)
);
}
);
};
layerId = "C1DB0BE6-5704-4A8C-8C00-D80E72C16D98";
shapes = (
{
closed = 1;
nodes = (
(124,0,l),
(124,627,l),
(234,627,l),
(234,672,l),
(120,672,l),
(102,707,o),
(89,746,o),
(89,787,cs),
(89,871,o),
(136,921,o),
(215,921,cs),
(302,921,o),
(395,835,o),
(442,721,c),
(485,740,l),
(470,769,o),
(459,807,o),
(459,829,cs),
(459,882,o),
(500,922,o),
(554,922,cs),
(577,922,o),
(613,913,o),
(637,900,c),
(652,942,l),
(625,956,o),
(581,966,o),
(549,966,cs),
(483,966,o),
(426,918,o),
(415,861,c),
(373,923,o),
(278,966,o),
(208,966,cs),
(102,966,o),
(39,901,o),
(39,792,cs),
(39,747,o),
(51,706,o),
(68,672,c),
(-20,672,l),
(-20,627,l),
(75,627,l),
(75,0,l)
);
}
);
width = 222;
},
{
background = {
shapes = (
{
closed = 1;
nodes = (
(149,0,l),
(149,602,l),
(252,602,l),
(252,672,l),
(143,672,l),
(123,699,o),
(113,727,o),
(113,755,cs),
(113,843,o),
(215,895,o),
(387,895,cs),
(636,895,o),
(859,825,o),
(1055,685,c),
(1122,715,l),
(1104,738,o),
(1090,781,o),
(1090,817,cs),
(1090,866,o),
(1119,898,o),
(1172,898,cs),
(1197,898,o),
(1222,891,o),
(1249,877,c),
(1271,942,l),
(1240,958,o),
(1205,966,o),
(1165,966,cs),
(1039,966,o),
(1005,873,o),
(1015,795,c),
(834,909,o),
(614,966,o),
(356,966,cs),
(153,966,o),
(33,895,o),
(33,775,cs),
(33,734,o),
(43,705,o),
(60,672,c),
(-20,672,l),
(-20,602,l),
(69,602,l),
(69,0,l)
);
}
);
};
layerId = "30C2FD74-1A74-41AC-9C29-B288AE1DBDD7";
shapes = (
{
closed = 1;
nodes = (
(149,0,l),
(149,602,l),
(252,602,l),
(252,672,l),
(143,672,l),
(126,704,o),
(113,747,o),
(113,773,cs),
(113,850,o),
(156,896,o),
(229,896,cs),
(321,896,o),
(394,826,o),
(449,718,c),
(515,747,l),
(507,761,o),
(502,794,o),
(502,817,cs),
(502,863,o),
(538,898,o),
(586,898,cs),
(607,898,o),
(640,889,o),
(663,877,c),
(685,942,l),
(659,956,o),
(613,966,o),
(579,966,cs),
(510,966,o),
(447,926,o),
(433,873,c),
(382,926,o),
(290,966,o),
(218,966,cs),
(102,966,o),
(33,899,o),
(33,785,cs),
(33,754,o),
(45,705,o),
(62,672,c),
(-20,672,l),
(-20,602,l),
(69,602,l),
(69,0,l)
);
}
);
width = 235;
},
{
background = {
shapes = (
{
closed = 1;
nodes = (
(210,0,l),
(210,556,l),
(300,556,l),
(300,672,l),
(201,672,l),
(188.333,692.667,o),
(182,712.333,o),
(182,731,cs),
(182,800,o),
(263,841,o),
(401,841,cs),
(656,841,o),
(972,777,o),
(1183,685,c),
(1347,735,l),
(1328,761,o),
(1317,785,o),
(1317,805,cs),
(1316,835,o),
(1340,855,o),
(1396,855,cs),
(1420,855,o),
(1441,852,o),
(1460,846,c),
(1486,951,l),
(1454,961,o),
(1415,966,o),
(1368,966,cs),
(1287,966,o),
(1184,945,o),
(1184,807,c),
(957,913,o),
(651,966,o),
(365,966,cs),
(151,966,o),
(25,895,o),
(25,775,cs),
(25,737.667,o),
(33.333,706.667,o),
(52,672,c),
(-20,672,l),
(-20,556,l),
(55,556,l),
(55,0,l)
);
}
);
};
layerId = "9398AC28-6BE1-4A79-9C94-3CBC2F226CE7";
shapes = (
{
closed = 1;
nodes = (
(210,0,l),
(210,556,l),
(300,556,l),
(300,672,l),
(200,672,l),
(189,693,o),
(181,725,o),
(181,748,cs),
(181,813,o),
(212,851,o),
(265,851,cs),
(330,851,o),
(422,792,o),
(478,713,c),
(610,770,l),
(603,782,o),
(597,798,o),
(597,808,cs),
(597,841,o),
(626,865,o),
(664,865,cs),
(685,865,o),
(701,862,o),
(718,856,c),
(755,961,l),
(726,970,o),
(675,976,o),
(635,976,cs),
(567,976,o),
(501,941,o),
(481,894,c),
(422,941,o),
(321,976,o),
(246,976,cs),
(107,976,o),
(25,902,o),
(25,776,cs),
(25,747,o),
(37,703,o),
(52,672,c),
(-20,672,l),
(-20,556,l),
(55,556,l),
(55,0,l)
);
}
);
width = 280;
}
);
metricLeft = "=aaMatra-deva";
},
{
glyphname = "iMatra_reph_anusvara-deva";
lastChange = "2025-08-12 00:47:31 +0000";
layers = (
{
background = {
shapes = (
{
closed = 1;
nodes = (
(124,0,l),
(124,627,l),
(234,627,l),
(234,672,l),
(119,672,l),
(100,703,o),
(90,734,o),
(90,764,cs),
(90,862,o),
(213,920,o),
(420,920,cs),
(667,920,o),
(930,842,o),
(1126,685,c),
(1169,715,l),
(1132,755,o),
(1118,786,o),
(1118,830,cs),
(1118,886,o),
(1151,922,o),
(1212,922,cs),
(1243,922,o),
(1266,915,o),
(1295,900,c),
(1310,942,l),
(1279,958,o),
(1245,966,o),
(1207,966,cs),
(1084,966,o),
(1047,862,o),
(1081,773,c),
(905,902,o),
(645,966,o),
(402,966,cs),
(174,966,o),
(40,895,o),
(40,774,cs),
(40,735,o),
(50,707,o),
(67,672,c),
(-20,672,l),
(-20,627,l),
(75,627,l),
(75,0,l)
);
},
{
pos = (1186,20);
ref = "_anusvara-small-deva";
}
);
};
layerId = "C1DB0BE6-5704-4A8C-8C00-D80E72C16D98";
shapes = (
{
closed = 1;
nodes = (
(124,0,l),
(124,627,l),
(234,627,l),
(234,672,l),
(120,672,l),
(102,707,o),
(89,746,o),
(89,787,cs),
(89,871,o),
(136,921,o),
(215,921,cs),
(302,921,o),
(395,835,o),
(442,721,c),
(485,740,l),
(470,769,o),
(459,807,o),
(459,829,cs),
(459,882,o),
(500,922,o),
(554,922,cs),
(577,922,o),
(613,913,o),
(637,900,c),
(652,942,l),
(625,956,o),
(581,966,o),
(549,966,cs),
(483,966,o),
(426,918,o),
(415,861,c),
(373,923,o),
(278,966,o),
(208,966,cs),
(102,966,o),
(39,901,o),
(39,792,cs),
(39,747,o),
(51,706,o),
(68,672,c),
(-20,672,l),
(-20,627,l),
(75,627,l),
(75,0,l)
);
},
{
pos = (526,20);
ref = "_anusvara-small-deva";
}
);
width = 222;
},
{
background = {
shapes = (
{
closed = 1;
nodes = (
(149,0,l),
(149,602,l),
(252,602,l),
(252,672,l),
(143,672,l),
(123,699,o),
(113,727,o),
(113,755,cs),
(113,843,o),
(215,895,o),
(387,895,cs),
(636,895,o),
(859,825,o),
(1055,685,c),
(1125,715,l),
(1098,749,o),
(1090,781,o),
(1090,817,cs),
(1090,866,o),
(1119,898,o),
(1172,898,cs),
(1197,898,o),
(1222,891,o),
(1249,877,c),
(1271,942,l),
(1240,958,o),
(1205,966,o),
(1165,966,cs),
(1039,966,o),
(1005,873,o),
(1015,795,c),
(834,909,o),
(614,966,o),
(356,966,cs),
(153,966,o),
(33,895,o),
(33,775,cs),
(33,734,o),
(43,705,o),
(60,672,c),
(-20,672,l),
(-20,602,l),
(69,602,l),
(69,0,l)
);
},
{
pos = (1146,0);
ref = "_anusvara-small-deva";
}
);
};
layerId = "30C2FD74-1A74-41AC-9C29-B288AE1DBDD7";
shapes = (
{
closed = 1;
nodes = (
(149,0,l),
(149,602,l),
(252,602,l),
(252,672,l),
(143,672,l),
(126,704,o),
(113,747,o),
(113,773,cs),
(113,850,o),
(156,896,o),
(229,896,cs),
(321,896,o),
(394,826,o),
(449,718,c),
(522,750,l),
(511,766,o),
(502,794,o),
(502,817,cs),
(502,863,o),
(538,898,o),
(586,898,cs),
(607,898,o),
(640,889,o),
(663,877,c),
(685,942,l),
(659,956,o),
(613,966,o),
(579,966,cs),
(510,966,o),
(447,926,o),
(433,873,c),
(382,926,o),
(290,966,o),
(218,966,cs),
(102,966,o),
(33,899,o),
(33,785,cs),
(33,754,o),
(45,705,o),
(62,672,c),
(-20,672,l),
(-20,602,l),
(69,602,l),
(69,0,l)
);
},
{
pos = (556,10);
ref = "_anusvara-small-deva";
}
);
width = 235;
},
{
background = {
shapes = (
{
closed = 1;
nodes = (
(210,0,l),
(210,556,l),
(300,556,l),
(300,672,l),
(201,672,l),
(188.333,692.667,o),
(182,712.333,o),
(182,731,cs),
(182,800,o),
(263,841,o),
(401,841,cs),
(656,841,o),
(972,777,o),
(1183,665,c),
(1346,738,l),
(1337,760,o),
(1331,776,o),
(1331,798,cs),
(1330,831,o),
(1358,855,o),
(1406,855,cs),
(1430,855,o),
(1441,853,o),
(1460,846,c),
(1486,951,l),
(1454,961,o),
(1415,966,o),
(1368,966,cs),
(1287,966,o),
(1184,945,o),
(1184,807,c),
(957,913,o),
(651,966,o),
(365,966,cs),
(151,966,o),
(25,895,o),
(25,775,cs),
(25,737.667,o),
(33.333,706.667,o),
(52,672,c),
(-20,672,l),
(-20,556,l),
(55,556,l),
(55,0,l)
);
},
{
pos = (1385,-35);
ref = "_anusvara-small-deva";
}
);
};
layerId = "9398AC28-6BE1-4A79-9C94-3CBC2F226CE7";
shapes = (
{
closed = 1;
nodes = (
(210,0,l),
(210,556,l),
(300,556,l),
(300,672,l),
(200,672,l),
(189,693,o),
(181,725,o),
(181,748,cs),
(181,813,o),
(212,851,o),
(265,851,cs),
(330,851,o),
(422,792,o),
(478,713,c),
(610,750,l),
(602,769,o),
(597,789,o),
(597,808,cs),
(597,846,o),
(636,875,o),
(674,875,cs),
(695,875,o),
(712,872,o),
(728,866,c),
(755,971,l),
(726,980,o),
(675,986,o),
(635,986,cs),
(567,986,o),
(501,941,o),
(481,894,c),
(422,941,o),
(321,976,o),
(246,976,cs),
(107,976,o),
(25,902,o),
(25,776,cs),
(25,747,o),
(37,703,o),
(52,672,c),
(-20,672,l),
(-20,556,l),
(55,556,l),
(55,0,l)
);
},
{
pos = (657,-22);
ref = "_anusvara-small-deva";
}
);
width = 280;
}
);
metricLeft = "=aaMatra-deva";
},
{
glyphname = "iiMatra-deva";
lastChange = "2025-08-12 00:45:10 +0000";
layers = (
{
anchors = (
{
name = candra;
pos = (244,516);
},
{
name = iimatra;
pos = (-125,516);
},
{
name = top;
pos = (234,516);
}
);
background = {
anchors = (
{
name = candra;
pos = (244,516);
},
{
name = iimatra;
pos = (-451,516);
},
{
name = top;
pos = (234,516);
}
);
shapes = (
{
closed = 1;
nodes = (
(144,0,l),
(144,627,l),
(254,627,l),
(254,672,l),
(139,672,l),
(25,829,o),
(-175,966,o),
(-327,966,cs),
(-429,966,o),
(-505,901,o),
(-505,815,cs),
(-505,786,o),
(-495,761,o),
(-484,740,c),
(-439,749,l),
(-450,773,o),
(-455,789,o),
(-455,817,cs),
(-455,876,o),
(-398,921,o),
(-323,921,cs),
(-202,921,o),
(-27,803,o),
(85,672,c),
(0,672,l),
(0,627,l),
(95,627,l),
(95,0,l)
);
}
);
};
layerId = "C1DB0BE6-5704-4A8C-8C00-D80E72C16D98";
shapes = (
{
closed = 1;
nodes = (
(144,0,l),
(144,627,l),
(254,627,l),
(254,672,l),
(139,672,l),
(113,793,o),
(88,966,o),
(-47,966,cs),
(-124,966,o),
(-165,910,o),
(-165,825,cs),
(-165,801,o),
(-161,778,o),
(-154,755,c),
(-109,769,l),
(-113,787,o),
(-115,805,o),
(-115,827,cs),
(-115,882,o),
(-95,921,o),
(-43,921,cs),
(54,921,o),
(73,747,o),
(89,672,c),
(0,672,l),
(0,627,l),
(95,627,l),
(95,0,l)
);
}
);
width = 234;
},
{
anchors = (
{
name = candra;
pos = (262,526);
},
{
name = iimatra;
pos = (-159,526);
},
{
name = top;
pos = (252,526);
}
);
background = {
anchors = (
{
name = candra;
pos = (262,526);
},
{
name = iimatra;
pos = (-469,526);
},
{
name = top;
pos = (252,526);
}
);
shapes = (
{
closed = 1;
nodes = (
(169,0,l),
(169,602,l),
(272,602,l),
(272,672,l),
(162,672,l),
(60,829,o),
(-156,966,o),
(-341,966,cs),
(-454,966,o),
(-539,903,o),
(-539,818,cs),
(-539,788,o),
(-531,762,o),
(-511,730,c),
(-440,746,l),
(-451,765,o),
(-459,783,o),
(-459,804,cs),
(-459,857,o),
(-402,896,o),
(-327,896,cs),
(-185,896,o),
(-11,789,o),
(79,672,c),
(0,672,l),
(0,602,l),
(89,602,l),
(89,0,l)
);
}
);
};
layerId = "30C2FD74-1A74-41AC-9C29-B288AE1DBDD7";
shapes = (
{
closed = 1;
nodes = (
(169,0,l),
(169,602,l),
(272,602,l),
(272,672,l),
(162,672,l),
(123,816,o),
(90,966,o),
(-61,966,cs),
(-143,966,o),
(-199,913,o),
(-199,828,cs),
(-199,798,o),
(-193,767,o),
(-181,735,c),
(-110,756,l),
(-116,775,o),
(-119,793,o),
(-119,814,cs),
(-119,871,o),
(-99,896,o),
(-47,896,cs),
(24,896,o),
(59,760,o),
(82,672,c),
(0,672,l),
(0,602,l),
(89,602,l),
(89,0,l)
);
}
);
width = 252;
},
{
anchors = (
{
name = candra;
pos = (323,536);
},
{
name = iimatra;
pos = (-221,536);
},
{
name = top;
pos = (308,536);
}
);
background = {
anchors = (
{
name = candra;
pos = (323,536);
},
{
name = iimatra;
pos = (-511,536);
},
{
name = top;
pos = (308,536);
}
);
shapes = (
{
closed = 1;
nodes = (
(230,0,l),
(230,556,l),
(320,556,l),
(320,672,l),
(216,672,l),
(49,844,o),
(-172,976,o),
(-380,976,cs),
(-518,976,o),
(-621,908,o),
(-621,818,cs),
(-621,781,o),
(-612,754,o),
(-600,732,c),
(-465,760,l),
(-473,775,o),
(-476,784,o),
(-476,795,cs),
(-476,830,o),
(-440,857,o),
(-392,857,cs),
(-237,857,o),
(-69,769,o),
(59,672,c),
(0,672,l),
(0,556,l),
(75,556,l),
(75,0,l)
);
}
);
};
layerId = "9398AC28-6BE1-4A79-9C94-3CBC2F226CE7";
shapes = (
{
closed = 1;
nodes = (
(230,0,l),
(230,556,l),
(320,556,l),
(320,672,l),
(216,672,l),
(180,855,o),
(95,976,o),
(-50,976,cs),
(-174,976,o),
(-261,911,o),
(-261,808,cs),
(-261,777,o),
(-254,738,o),
(-240,712,c),
(-105,740,l),
(-112,761,o),
(-116,776,o),
(-116,795,cs),
(-116,832,o),
(-80,857,o),
(-42,857,cs),
(17,857,o),
(47,782,o),
(69,672,c),
(0,672,l),
(0,556,l),
(75,556,l),
(75,0,l)
);
}
);
width = 300;
}
);
metricRight = "=|aaMatra-deva";
unicode = 2368;
},
{
glyphname = "iiMatra_reph-deva";
lastChange = "2025-08-12 00:45:44 +0000";
layers = (
{
anchors = (
{
name = candra;
pos = (244,516);
},
{
name = iimatra;
pos = (-125,516);
},
{
name = top;
pos = (234,516);
}
);
background = {
anchors = (
{
name = candra;
pos = (244,516);
},
{
name = iimatra;
pos = (-451,516);
},
{
name = top;
pos = (234,516);
}
);
shapes = (
{
closed = 1;
nodes = (
(141,672,l),
(119,767,l),
(101,837,o),
(133,889,o),
(195,889,cs),
(220,889,o),
(255,880,o),
(277,867,c),
(292,909,l),
(269,923,o),
(227,933,o),
(196,933,cs),
(102,933,o),
(43,862,o),
(70,767,c),
(91,672,l)
);
},
{
closed = 1;
nodes = (
(144,0,l),
(144,627,l),
(254,627,l),
(254,672,l),
(139,672,l),
(25,829,o),
(-175,966,o),
(-327,966,cs),
(-429,966,o),
(-505,901,o),
(-505,815,cs),
(-505,786,o),
(-495,761,o),
(-484,740,c),
(-439,749,l),
(-450,773,o),
(-455,789,o),
(-455,817,cs),
(-455,876,o),
(-398,921,o),
(-323,921,cs),
(-202,921,o),
(-27,803,o),
(85,672,c),
(0,672,l),
(0,627,l),
(95,627,l),
(95,0,l)
);
}
);
};
layerId = "C1DB0BE6-5704-4A8C-8C00-D80E72C16D98";
shapes = (
{
closed = 1;
nodes = (
(141,672,l),
(119,767,l),
(101,837,o),
(133,889,o),
(195,889,cs),
(220,889,o),
(255,880,o),
(277,867,c),
(292,909,l),
(269,923,o),
(227,933,o),
(196,933,cs),
(102,933,o),
(53,862,o),
(80,767,c),
(101,672,l)
);
},
{
closed = 1;
nodes = (
(144,0,l),
(144,627,l),
(254,627,l),
(254,672,l),
(139,672,l),
(113,793,o),
(88,966,o),
(-47,966,cs),
(-124,966,o),
(-165,910,o),
(-165,825,cs),
(-165,801,o),
(-161,778,o),
(-154,755,c),
(-109,769,l),
(-113,787,o),
(-115,805,o),
(-115,827,cs),
(-115,882,o),
(-95,921,o),
(-43,921,cs),
(54,921,o),
(73,747,o),
(89,672,c),
(0,672,l),
(0,627,l),
(95,627,l),
(95,0,l)
);
}
);
width = 262;
},
{
anchors = (
{
name = candra;
pos = (266,526);
},
{
name = iimatra;
pos = (-159,526);
},
{
name = top;
pos = (252,526);
}
);
background = {
anchors = (
{
name = candra;
pos = (262,526);
},
{
name = iimatra;
pos = (-429,526);
},
{
name = top;
pos = (252,526);
}
);
shapes = (
{
closed = 1;
nodes = (
(165,672,l),
(138,765,l),
(120,823,o),
(156,878,o),
(216,878,cs),
(237,878,o),
(270,869,o),
(293,857,c),
(315,922,l),
(290,936,o),
(244,946,o),
(209,946,cs),
(100,946,o),
(40,858,o),
(73,765,c),
(100,672,l)
);
},
{
closed = 1;
nodes = (
(169,0,l),
(169,602,l),
(272,602,l),
(272,672,l),
(162,672,l),
(60,829,o),
(-156,966,o),
(-341,966,cs),
(-454,966,o),
(-539,903,o),
(-539,818,cs),
(-539,788,o),
(-531,762,o),
(-511,730,c),
(-440,746,l),
(-451,765,o),
(-459,783,o),
(-459,804,cs),
(-459,857,o),
(-402,896,o),
(-327,896,cs),
(-185,896,o),
(-11,789,o),
(79,672,c),
(0,672,l),
(0,602,l),
(89,602,l),
(89,0,l)
);
}
);
};
layerId = "30C2FD74-1A74-41AC-9C29-B288AE1DBDD7";
shapes = (
{
closed = 1;
nodes = (
(165,672,l),
(138,765,l),
(120,823,o),
(156,878,o),
(216,878,cs),
(237,878,o),
(270,869,o),
(293,857,c),
(315,922,l),
(290,936,o),
(244,946,o),
(209,946,cs),
(100,946,o),
(40,858,o),
(73,765,c),
(100,672,l)
);
},
{
closed = 1;
nodes = (
(169,0,l),
(169,602,l),
(272,602,l),
(272,672,l),
(162,672,l),
(123,816,o),
(90,966,o),
(-61,966,cs),
(-143,966,o),
(-199,913,o),
(-199,828,cs),
(-199,798,o),
(-193,767,o),
(-181,735,c),
(-110,756,l),
(-116,775,o),
(-119,793,o),
(-119,814,cs),
(-119,871,o),
(-99,896,o),
(-47,896,cs),
(24,896,o),
(59,760,o),
(82,672,c),
(0,672,l),
(0,602,l),
(89,602,l),
(89,0,l)
);
}
);
width = 275;
},
{
anchors = (
{
name = candra;
pos = (323,536);
},
{
name = iimatra;
pos = (-221,536);
},
{
name = top;
pos = (308,536);
}
);
background = {
anchors = (
{
name = candra;
pos = (323,536);
},
{
name = iimatra;
pos = (-511,536);
},
{
name = top;
pos = (308,536);
}
);
shapes = (
{
closed = 1;
nodes = (
(219,672,l),
(200,739,l),
(181,804,o),
(212,853,o),
(272,853,cs),
(293,853,o),
(318,847,o),
(336,838,c),
(373,939,l),
(331,956,o),
(287,964,o),
(243,964,cs),
(132,964,o),
(49,868,o),
(88,739,c),
(109,672,l)
);
},
{
closed = 1;
nodes = (
(230,0,l),
(230,556,l),
(320,556,l),
(320,672,l),
(216,672,l),
(49,844,o),
(-172,976,o),
(-380,976,cs),
(-518,976,o),
(-621,908,o),
(-621,818,cs),
(-621,781,o),
(-612,754,o),
(-600,732,c),
(-465,760,l),
(-473,775,o),
(-476,784,o),
(-476,795,cs),
(-476,830,o),
(-440,857,o),
(-392,857,cs),
(-237,857,o),
(-69,769,o),
(59,672,c),
(0,672,l),
(0,556,l),
(75,556,l),
(75,0,l)
);
}
);
};
layerId = "9398AC28-6BE1-4A79-9C94-3CBC2F226CE7";
shapes = (
{
closed = 1;
nodes = (
(219,672,l),
(200,739,l),
(181,804,o),
(212,853,o),
(272,853,cs),
(293,853,o),
(318,847,o),
(336,838,c),
(373,939,l),
(331,956,o),
(287,964,o),
(243,964,cs),
(132,964,o),
(79,868,o),
(118,739,c),
(139,672,l)
);
},
{
closed = 1;
nodes = (
(230,0,l),
(230,556,l),
(320,556,l),
(320,672,l),
(196,672,l),
(160,855,o),
(75,976,o),
(-70,976,cs),
(-194,976,o),
(-261,911,o),
(-261,808,cs),
(-261,777,o),
(-254,738,o),
(-240,712,c),
(-105,740,l),
(-112,761,o),
(-116,776,o),
(-116,795,cs),
(-116,832,o),
(-80,857,o),
(-42,857,cs),
(17,857,o),
(47,782,o),
(69,672,c),
(0,672,l),
(0,556,l),
(75,556,l),
(75,0,l)
);
}
);
width = 303;
}
);
},
{
glyphname = "iiMatra_reph_anusvara-deva";
lastChange = "2025-08-12 00:46:07 +0000";
layers = (
{
anchors = (
{
name = candra;
pos = (244,516);
},
{
name = iimatra;
pos = (-125,516);
},
{
name = top;
pos = (234,516);
}
);
background = {
anchors = (
{
name = candra;
pos = (244,516);
},
{
name = iimatra;
pos = (-451,516);
},
{
name = top;
pos = (234,516);
}
);
shapes = (
{
alignment = -1;
pos = (171,-8);
ref = "_anusvara-small-deva";
},
{
closed = 1;
nodes = (
(141,672,l),
(119,767,l),
(101,837,o),
(133,889,o),
(195,889,cs),
(220,889,o),
(255,880,o),
(277,867,c),
(292,909,l),
(269,923,o),
(227,933,o),
(196,933,cs),
(102,933,o),
(43,862,o),
(70,767,c),
(91,672,l)
);
},
{
closed = 1;
nodes = (
(144,0,l),
(144,627,l),
(254,627,l),
(254,672,l),
(139,672,l),
(25,829,o),
(-175,966,o),
(-327,966,cs),
(-429,966,o),
(-505,901,o),
(-505,815,cs),
(-505,786,o),
(-495,761,o),
(-484,740,c),
(-439,749,l),
(-450,773,o),
(-455,789,o),
(-455,817,cs),
(-455,876,o),
(-398,921,o),
(-323,921,cs),
(-202,921,o),
(-27,803,o),
(85,672,c),
(0,672,l),
(0,627,l),
(95,627,l),
(95,0,l)
);
}
);
};
layerId = "C1DB0BE6-5704-4A8C-8C00-D80E72C16D98";
shapes = (
{
alignment = -1;
pos = (171,-8);
ref = "_anusvara-small-deva";
},
{
closed = 1;
nodes = (
(141,672,l),
(119,767,l),
(101,837,o),
(133,889,o),
(195,889,cs),
(220,889,o),
(255,880,o),
(277,867,c),
(292,909,l),
(269,923,o),
(227,933,o),
(196,933,cs),
(102,933,o),
(53,862,o),
(80,767,c),
(101,672,l)
);
},
{
closed = 1;
nodes = (
(144,0,l),
(144,627,l),
(254,627,l),
(254,672,l),
(139,672,l),
(113,793,o),
(88,966,o),
(-47,966,cs),
(-124,966,o),
(-165,910,o),
(-165,825,cs),
(-165,801,o),
(-161,778,o),
(-154,755,c),
(-109,769,l),
(-113,787,o),
(-115,805,o),
(-115,827,cs),
(-115,882,o),
(-95,921,o),
(-43,921,cs),
(54,921,o),
(73,747,o),
(89,672,c),
(0,672,l),
(0,627,l),
(95,627,l),
(95,0,l)
);
}
);
width = 262;
},
{
anchors = (
{
name = candra;
pos = (262,526);
},
{
name = iimatra;
pos = (-159,526);
},
{
name = top;
pos = (252,526);
}
);
background = {
anchors = (
{
name = candra;
pos = (262,526);
},
{
name = iimatra;
pos = (-429,526);
},
{
name = top;
pos = (252,526);
}
);
shapes = (
{
alignment = -1;
pos = (191,-18);
ref = "_anusvara-small-deva";
},
{
closed = 1;
nodes = (
(165,672,l),
(138,765,l),
(120,823,o),
(156,878,o),
(216,878,cs),
(237,878,o),
(270,869,o),
(293,857,c),
(315,922,l),
(290,936,o),
(244,946,o),
(209,946,cs),
(100,946,o),
(40,858,o),
(73,765,c),
(100,672,l)
);
},
{
closed = 1;
nodes = (
(169,0,l),
(169,602,l),
(272,602,l),
(272,672,l),
(162,672,l),
(60,829,o),
(-156,966,o),
(-341,966,cs),
(-454,966,o),
(-539,903,o),
(-539,818,cs),
(-539,788,o),
(-531,762,o),
(-511,730,c),
(-440,746,l),
(-451,765,o),
(-459,783,o),
(-459,804,cs),
(-459,857,o),
(-402,896,o),
(-327,896,cs),
(-185,896,o),
(-11,789,o),
(79,672,c),
(0,672,l),
(0,602,l),
(89,602,l),
(89,0,l)
);
}
);
};
layerId = "30C2FD74-1A74-41AC-9C29-B288AE1DBDD7";
shapes = (
{
alignment = -1;
pos = (191,-18);
ref = "_anusvara-small-deva";
},
{
closed = 1;
nodes = (
(165,672,l),
(138,765,l),
(120,823,o),
(156,878,o),
(216,878,cs),
(237,878,o),
(270,869,o),
(293,857,c),
(315,922,l),
(290,936,o),
(244,946,o),
(209,946,cs),
(100,946,o),
(40,858,o),
(73,765,c),
(100,672,l)
);
},
{
closed = 1;
nodes = (
(169,0,l),
(169,602,l),
(272,602,l),
(272,672,l),
(162,672,l),
(123,816,o),
(90,966,o),
(-61,966,cs),
(-143,966,o),
(-199,913,o),
(-199,828,cs),
(-199,798,o),
(-193,767,o),
(-181,735,c),
(-110,756,l),
(-116,775,o),
(-119,793,o),
(-119,814,cs),
(-119,871,o),
(-99,896,o),
(-47,896,cs),
(24,896,o),
(59,760,o),
(82,672,c),
(0,672,l),
(0,602,l),
(89,602,l),
(89,0,l)
);
}
);
width = 265;
},
{
anchors = (
{
name = candra;
pos = (323,536);
},
{
name = iimatra;
pos = (-221,536);
},
{
name = top;
pos = (308,536);
}
);
background = {
anchors = (
{
name = candra;
pos = (323,536);
},
{
name = iimatra;
pos = (-511,536);
},
{
name = top;
pos = (308,536);
}
);
shapes = (
{
alignment = -1;
pos = (241,-24);
ref = "_anusvara-small-deva";
},
{
closed = 1;
nodes = (
(219,672,l),
(200,739,l),
(181,804,o),
(212,863,o),
(272,863,cs),
(293,863,o),
(322,857,o),
(340,848,c),
(373,939,l),
(331,956,o),
(307,964,o),
(263,964,cs),
(152,964,o),
(59,868,o),
(98,739,c),
(119,672,l)
);
},
{
closed = 1;
nodes = (
(230,0,l),
(230,556,l),
(320,556,l),
(320,672,l),
(216,672,l),
(49,844,o),
(-172,976,o),
(-380,976,cs),
(-518,976,o),
(-621,908,o),
(-621,818,cs),
(-621,781,o),
(-612,754,o),
(-600,732,c),
(-465,760,l),
(-473,775,o),
(-476,784,o),
(-476,795,cs),
(-476,830,o),
(-440,857,o),
(-392,857,cs),
(-237,857,o),
(-69,769,o),
(59,672,c),
(0,672,l),
(0,556,l),
(75,556,l),
(75,0,l)
);
}
);
};
layerId = "9398AC28-6BE1-4A79-9C94-3CBC2F226CE7";
shapes = (
{
alignment = -1;
pos = (241,-24);
ref = "_anusvara-small-deva";
},
{
closed = 1;
nodes = (
(219,672,l),
(200,739,l),
(181,804,o),
(212,863,o),
(272,863,cs),
(293,863,o),
(322,857,o),
(340,848,c),
(373,939,l),
(331,956,o),
(307,964,o),
(263,964,cs),
(152,964,o),
(79,868,o),
(118,739,c),
(139,672,l)
);
},
{
closed = 1;
nodes = (
(230,0,l),
(230,556,l),
(320,556,l),
(320,672,l),
(196,672,l),
(160,855,o),
(75,976,o),
(-70,976,cs),
(-194,976,o),
(-261,911,o),
(-261,808,cs),
(-261,777,o),
(-254,738,o),
(-240,712,c),
(-105,740,l),
(-112,761,o),
(-116,776,o),
(-116,795,cs),
(-116,832,o),
(-80,857,o),
(-42,857,cs),
(17,857,o),
(47,782,o),
(69,672,c),
(0,672,l),
(0,556,l),
(75,556,l),
(75,0,l)
);
}
);
width = 293;
}
);
},
{
glyphname = "ka-deva";
lastChange = "2025-08-14 02:10:47 +0000";
layers = (
{
anchors = (
{
name = nukta;
pos = (152,0);
}
);
layerId = "C1DB0BE6-5704-4A8C-8C00-D80E72C16D98";
shapes = (
{
closed = 1;
nodes = (
(762,627,l),
(762,672,l),
(371,672,l),
(371,627,l)
);
},
{
closed = 1;
nodes = (
(371,627,l),
(371,672,l),
(-20,672,l),
(-20,627,l)
);
},
{
pos = (246,0);
ref = "aaMatra-deva";
},
{
ref = "_ka-fa.curve";
},
{
angle = 180;
pos = (742,650);
ref = "_ka-fa.curve";
}
);
width = 742;
},
{
anchors = (
{
name = nukta;
pos = (149,0);
}
);
layerId = "30C2FD74-1A74-41AC-9C29-B288AE1DBDD7";
shapes = (
{
closed = 1;
nodes = (
(804,602,l),
(804,672,l),
(392,672,l),
(392,602,l)
);
},
{
closed = 1;
nodes = (
(392,602,l),
(392,672,l),
(-20,672,l),
(-20,602,l)
);
},
{
pos = (252,0);
ref = "aaMatra-deva";
},
{
pos = (-5,0);
ref = "_ka-fa.curve";
},
{
angle = 180;
pos = (789,613);
ref = "_ka-fa.curve";
}
);
width = 784;
},
{
anchors = (
{
name = nukta;
pos = (121,-50);
}
);
layerId = "9398AC28-6BE1-4A79-9C94-3CBC2F226CE7";
shapes = (
{
closed = 1;
nodes = (
(880,556,l),
(880,672,l),
(426,672,l),
(426,556,l)
);
},
{
closed = 1;
nodes = (
(424,556,l),
(424,672,l),
(-20,672,l),
(-20,556,l)
);
},
{
pos = (268,0);
ref = "aaMatra-deva";
},
{
pos = (-28,0);
ref = "_ka-fa.curve";
},
{
angle = 180;
pos = (878,567);
ref = "_ka-fa.curve";
}
);
width = 860;
}
);
metricLeft = "=aaMatra-deva";
metricRight = "=aaMatra-deva";
unicode = 2325;
},
{
glyphname = "k-deva";
lastChange = "2025-08-14 02:11:13 +0000";
layers = (
{
layerId = "C1DB0BE6-5704-4A8C-8C00-D80E72C16D98";
shapes = (
{
closed = 1;
nodes = (
(363,627,l),
(363,672,l),
(-20,672,l),
(-20,627,l)
);
},
{
pos = (238,0);
ref = "aaMatra-deva";
},
{
pos = (-10,0);
ref = "_ka-fa.curve";
},
{
pos = (-10,0);
ref = "_ka-fa.curve.cut";
}
);
width = 621;
},
{
layerId = "30C2FD74-1A74-41AC-9C29-B288AE1DBDD7";
shapes = (
{
closed = 1;
nodes = (
(387,602,l),
(387,672,l),
(-20,672,l),
(-20,602,l)
);
},
{
pos = (247,0);
ref = "aaMatra-deva";
},
{
pos = (-10,0);
ref = "_ka-fa.curve";
},
{
pos = (-10,0);
ref = "_ka-fa.curve.cut";
}
);
width = 678;
},
{
layerId = "9398AC28-6BE1-4A79-9C94-3CBC2F226CE7";
shapes = (
{
closed = 1;
nodes = (
(417,556,l),
(417,672,l),
(-20,672,l),
(-20,556,l)
);
},
{
pos = (266,0);
ref = "aaMatra-deva";
},
{
pos = (-30,0);
ref = "_ka-fa.curve";
},
{
pos = (-40,0);
ref = "_ka-fa.curve.cut";
}
);
width = 728;
}
);
metricLeft = "=aaMatra-deva";
metricRight = "=aaMatra-deva";
},
{
glyphname = "kh-deva";
lastChange = "2025-08-14 02:16:35 +0000";
layers = (
{
layerId = "C1DB0BE6-5704-4A8C-8C00-D80E72C16D98";
shapes = (
{
closed = 1;
nodes = (
(710,192,o),
(781,265,o),
(781,362,c),
(742,362,l),
(742,290,o),
(686,236,o),
(611,236,cs),
(537,236,o),
(481,287,o),
(481,362,cs),
(481,451,o),
(568,496,o),
(684,468,c),
(684,513,l),
(539,545,o),
(431,480,o),
(431,362,cs),
(431,262,o),
(507,192,o),
(609,192,cs)
);
},
{
closed = 1;
nodes = (
(381,65,l),
(274,65,o),
(194,135,o),
(147,308,c),
(91,308,l),
(148,104,o),
(246,20,o),
(381,20,c)
);
},
{
closed = 1;
nodes = (
(207,242,o),
(344,349,o),
(344,492,cs),
(344,548,o),
(329,596,o),
(306,639,c),
(249,639,l),
(279,588,o),
(295,543,o),
(295,497,cs),
(295,382,o),
(202,303,o),
(58,352,c),
(48,307,l)
);
},
{
closed = 1;
nodes = (
(482,20,o),
(566,89,o),
(625,207,c),
(575,217,l),
(529,130,o),
(470,65,o),
(381,65,c),
(381,20,l)
);
},
{
closed = 1;
nodes = (
(780,627,l),
(780,672,l),
(-20,672,l),
(-20,627,l)
);
}
);
width = 642;
},
{
layerId = "30C2FD74-1A74-41AC-9C29-B288AE1DBDD7";
shapes = (
{
closed = 1;
nodes = (
(741,160,o),
(818,247,o),
(818,362,c),
(751,362,l),
(751,289,o),
(701,234,o),
(634,234,cs),
(557,234,o),
(500,283,o),
(500,348,cs),
(500,426,o),
(582,476,o),
(692,442,c),
(692,512,l),
(539,546,o),
(425,476,o),
(425,348,cs),
(425,241,o),
(514,160,o),
(632,160,cs)
);
},
{
closed = 1;
nodes = (
(407,66,l),
(293,66,o),
(223,134,o),
(185,304,c),
(91,304,l),
(146,82,o),
(246,-10,o),
(407,-10,c)
);
},
{
closed = 1;
nodes = (
(192,229,o),
(345,313,o),
(345,478,cs),
(345,533,o),
(332,579,o),
(306,614,c),
(220,614,l),
(245,584,o),
(266,535,o),
(266,478,cs),
(266,369,o),
(181,320,o),
(59,362,c),
(43,290,l)
);
},
{
closed = 1;
nodes = (
(494,-10,o),
(619,50,o),
(669,191,c),
(592,201,l),
(542,96,o),
(484,66,o),
(407,66,c),
(407,-10,l)
);
},
{
closed = 1;
nodes = (
(796,602,l),
(796,672,l),
(-20,672,l),
(-20,602,l)
);
}
);
width = 651;
},
{
layerId = "9398AC28-6BE1-4A79-9C94-3CBC2F226CE7";
shapes = (
{
closed = 1;
nodes = (
(704,142,o),
(792,242,o),
(810,362,c),
(710,362,l),
(710,296,o),
(666,247,o),
(607,247,cs),
(563,247,o),
(530,277,o),
(530,317,cs),
(530,380,o),
(593,408,o),
(677,394,c),
(677,499,l),
(510,521,o),
(395,453,o),
(395,327,cs),
(395,229,o),
(485,144,o),
(604,143,cs)
);
},
{
closed = 1;
nodes = (
(408,108,l),
(324,108,o),
(269,155,o),
(234,278,c),
(74,278,l),
(127,74,o),
(229,-10,o),
(398,-10,c)
);
},
{
closed = 1;
nodes = (
(199,199,o),
(358,278,o),
(358,432,cs),
(358,476,o),
(342,537,o),
(321,567,c),
(168,568,l),
(187,542,o),
(203,515,o),
(203,476,cs),
(203,390,o),
(153,360,o),
(35,395,c),
(9,269,l)
);
},
{
closed = 1;
nodes = (
(536,-10,o),
(620,54,o),
(672,162,c),
(522,172,l),
(500,128,o),
(461,108,o),
(408,108,c),
(398,-10,l)
);
},
{
closed = 1;
nodes = (
(809,556,l),
(809,672,l),
(-20,672,l),
(-20,556,l)
);
}
);
width = 630;
}
);
metricLeft = "=aaMatra-deva";
},
{
glyphname = "g-deva";
lastChange = "2025-06-04 00:41:10 +0000";
layers = (
{
layerId = "C1DB0BE6-5704-4A8C-8C00-D80E72C16D98";
shapes = (
{
closed = 1;
nodes = (
(198,382,l),
(198,627,l),
(360,627,l),
(360,672,l),
(-20,672,l),
(-20,627,l),
(149,627,l),
(149,382,l)
);
},
{
pos = (67,0);
ref = _knot.deva;
}
);
width = 340;
},
{
layerId = "30C2FD74-1A74-41AC-9C29-B288AE1DBDD7";
shapes = (
{
closed = 1;
nodes = (
(237,372,l),
(237,602,l),
(385,602,l),
(385,672,l),
(-20,672,l),
(-20,602,l),
(157,602,l),
(157,372,l)
);
},
{
pos = (76,0);
ref = _knot.deva;
}
);
width = 365;
},
{
layerId = "9398AC28-6BE1-4A79-9C94-3CBC2F226CE7";
shapes = (
{
closed = 1;
nodes = (
(303,366,l),
(303,556,l),
(412,556,l),
(412,672,l),
(-20,672,l),
(-20,556,l),
(148,556,l),
(148,366,l)
);
},
{
pos = (67,0);
ref = _knot.deva;
}
);
width = 392;
}
);
metricLeft = "=aaMatra-deva";
metricRight = "=aaMatra-deva";
},
{
glyphname = "gh-deva";
lastChange = "2025-08-14 01:45:24 +0000";
layers = (
{
layerId = "C1DB0BE6-5704-4A8C-8C00-D80E72C16D98";
shapes = (
{
closed = 1;
nodes = (
(374,160,o),
(453,187,o),
(507,233,c),
(483,268,l),
(433,228,o),
(364,204,o),
(305,204,cs),
(203,204,o),
(142,241,o),
(142,304,cs),
(142,365,o),
(194,401,o),
(263,401,c),
(295,401,l),
(295,446,l),
(260,446,l),
(170,446,o),
(117,478,o),
(117,532,cs),
(117,555,o),
(125,592,o),
(171,627,c),
(421,627,l),
(421,672,l),
(-20,672,l),
(-20,627,l),
(109,627,l),
(74,594,o),
(68,557,o),
(68,533,cs),
(68,482,o),
(103,439,o),
(161,417,c),
(122,386,o),
(92,357,o),
(92,307,cs),
(92,215,o),
(170,160,o),
(301,160,cs)
);
}
);
width = 377;
},
{
layerId = "30C2FD74-1A74-41AC-9C29-B288AE1DBDD7";
shapes = (
{
closed = 1;
nodes = (
(369,120,o),
(447,133,o),
(524,195,c),
(485,253,l),
(421,198,o),
(356,189,o),
(298,189,cs),
(215,189,o),
(156,222,o),
(156,279,cs),
(156,330,o),
(202,369,o),
(263,369,c),
(305,369,l),
(305,432,l),
(250,432,l),
(170,432,o),
(122,463,o),
(122,515,cs),
(122,550,o),
(148,585,o),
(178,602,c),
(416,602,l),
(416,672,l),
(-20,672,l),
(-20,602,l),
(83,602,l),
(57,583,o),
(42,540,o),
(42,518,cs),
(42,448,o),
(85,409,o),
(158,387,c),
(124,371,o),
(76,338,o),
(76,277,cs),
(76,178,o),
(165,120,o),
(299,120,cs)
);
}
);
width = 379;
},
{
layerId = "9398AC28-6BE1-4A79-9C94-3CBC2F226CE7";
shapes = (
{
closed = 1;
nodes = (
(416,91,o),
(506,110,o),
(579,169,c),
(505,276,l),
(458,227,o),
(400,214,o),
(350,214,cs),
(285,214,o),
(236,235,o),
(236,270,cs),
(236,299,o),
(275,320,o),
(314,320,c),
(363,320,l),
(363,429,l),
(296,429,l),
(240,433,o),
(205,453,o),
(205,489,cs),
(205,511,o),
(227,541,o),
(254,556,c),
(461,556,l),
(461,672,l),
(-20,672,l),
(-20,556,l),
(108,556,l),
(73,536,o),
(50,510,o),
(50,477,cs),
(50,410,o),
(100,373,o),
(166,364,c),
(123,338,o),
(81,290,o),
(81,232,cs),
(81,141,o),
(197,91,o),
(338,91,cs)
);
}
);
width = 419;
}
);
metricLeft = "=aaMatra-deva";
},
{
glyphname = "nga-deva";
lastChange = "2025-05-27 02:59:16 +0000";
layers = (
{
layerId = "C1DB0BE6-5704-4A8C-8C00-D80E72C16D98";
shapes = (
{
closed = 1;
nodes = (
(583,326,o),
(606,348,o),
(606,376,cs),
(606,403,o),
(583,426,o),
(556,426,cs),
(528,426,o),
(506,403,o),
(506,376,cs),
(506,348,o),
(528,326,o),
(556,326,cs)
);
},
{
closed = 1;
nodes = (
(626,627,l),
(626,672,l),
(499,672,l),
(499,627,l)
);
},
{
ref = "dda-deva";
}
);
width = 606;
},
{
layerId = "30C2FD74-1A74-41AC-9C29-B288AE1DBDD7";
shapes = (
{
closed = 1;
nodes = (
(623,316,o),
(650,343,o),
(650,376,cs),
(650,409,o),
(623,436,o),
(590,436,cs),
(557,436,o),
(530,409,o),
(530,376,cs),
(530,343,o),
(557,316,o),
(590,316,cs)
);
},
{
closed = 1;
nodes = (
(675,602,l),
(675,672,l),
(518,672,l),
(518,602,l)
);
},
{
ref = "dda-deva";
}
);
width = 655;
},
{
layerId = "9398AC28-6BE1-4A79-9C94-3CBC2F226CE7";
shapes = (
{
closed = 1;
nodes = (
(700,266,o),
(740,307,o),
(740,356,c),
(740,406,o),
(700,446,o),
(650,446,c),
(601,446,o),
(560,406,o),
(560,356,c),
(560,307,o),
(601,266,o),
(650,266,c)
);
},
{
closed = 1;
nodes = (
(765,556,l),
(765,672,l),
(516,672,l),
(516,556,l)
);
},
{
ref = "dda-deva";
}
);
width = 745;
}
);
metricLeft = "=aaMatra-deva";
metricRight = "=aaMatra-deva";
unicode = 2329;
},
{
glyphname = "c-deva";
lastChange = "2025-06-19 01:26:30 +0000";
layers = (
{
layerId = "C1DB0BE6-5704-4A8C-8C00-D80E72C16D98";
shapes = (
{
closed = 1;
nodes = (
(360,170,o),
(437,199,o),
(505,247,c),
(478,285,l),
(425,240,o),
(359,214,o),
(300,214,cs),
(206,214,o),
(151,256,o),
(151,327,cs),
(151,403,o),
(198,438,o),
(277,438,cs),
(336,438,l),
(336,483,l),
(29,483,l),
(29,436,l),
(158,436,l),
(122,409,o),
(101,375,o),
(101,327,cs),
(101,228,o),
(175,170,o),
(299,170,cs)
);
},
{
closed = 1;
nodes = (
(428,627,l),
(428,672,l),
(-20,672,l),
(-20,627,l)
);
}
);
width = 385;
},
{
layerId = "30C2FD74-1A74-41AC-9C29-B288AE1DBDD7";
shapes = (
{
closed = 1;
nodes = (
(369,130,o),
(457,160,o),
(532,212,c),
(492,273,l),
(429,225,o),
(356,196,o),
(296,196,cs),
(223,196,o),
(180,233,o),
(180,296,cs),
(180,369,o),
(236,403,o),
(310,403,cs),
(362,403,l),
(362,473,l),
(28,473,l),
(28,402,l),
(166,402,l),
(119,370,o),
(101,321,o),
(101,277,cs),
(101,185,o),
(173,130,o),
(296,130,cs)
);
},
{
closed = 1;
nodes = (
(430,602,l),
(430,672,l),
(-20,672,l),
(-20,602,l)
);
}
);
width = 402;
},
{
layerId = "9398AC28-6BE1-4A79-9C94-3CBC2F226CE7";
shapes = (
{
closed = 1;
nodes = (
(392,91,o),
(490,128,o),
(553,190,c),
(494,281,l),
(430,231,o),
(394,215,o),
(336,215,cs),
(280,215,o),
(247,237,o),
(247,275,cs),
(247,318,o),
(284,350,o),
(333,350,cs),
(380,350,l),
(380,473,l),
(31,473,l),
(31,350,l),
(143,350,l),
(113,331,o),
(92,284,o),
(92,251,cs),
(92,160,o),
(178,91,o),
(307,91,cs)
);
},
{
closed = 1;
nodes = (
(440,556,l),
(440,672,l),
(-20,672,l),
(-20,556,l)
);
}
);
width = 413;
}
);
metricLeft = "=aaMatra-deva";
},
{
glyphname = "cha-deva";
lastChange = "2025-08-26 19:48:13 +0000";
layers = (
{
anchors = (
{
name = bottom;
pos = (383,0);
},
{
name = candra;
pos = (341,516);
},
{
name = nukta;
pos = (661,0);
},
{
name = top;
pos = (487,516);
}
);
layerId = "C1DB0BE6-5704-4A8C-8C00-D80E72C16D98";
shapes = (
{
closed = 1;
nodes = (
(515,24,o),
(645,158,o),
(645,310,cs),
(645,406,o),
(588,488,o),
(511,502,c),
(511,627,l),
(701,627,l),
(701,672,l),
(-20,672,l),
(-20,627,l),
(462,627,l),
(462,503,l),
(393,494,o),
(342,434,o),
(342,362,cs),
(342,288,o),
(391,233,o),
(475,214,c),
(495,255,l),
(428,270,o),
(389,310,o),
(389,362,cs),
(389,419,o),
(434,462,o),
(488,462,cs),
(552,462,o),
(596,397,o),
(596,311,cs),
(596,185,o),
(487,70,o),
(341,70,c),
(341,24,l)
);
},
{
closed = 1;
nodes = (
(342,70,l),
(224,70,o),
(125,156,o),
(125,244,cs),
(125,315,o),
(173,355,o),
(253,386,c),
(219,385,l),
(235,377,o),
(266,373,o),
(301,373,c),
(301,418,l),
(199,419,o),
(138,460,o),
(138,528,cs),
(138,573,o),
(178,618,o),
(247,649,c),
(204,666,l),
(132,632,o),
(89,581,o),
(89,528,cs),
(89,467,o),
(133,416,o),
(207,389,c),
(220,418,l),
(132,386,o),
(80,332,o),
(80,239,cs),
(80,128,o),
(198,24,o),
(342,24,c)
);
}
);
width = 681;
},
{
anchors = (
{
name = bottom;
pos = (367,0);
},
{
name = candra;
pos = (367,526);
},
{
name = nukta;
pos = (704,0);
},
{
name = top;
pos = (523,526);
}
);
layerId = "30C2FD74-1A74-41AC-9C29-B288AE1DBDD7";
shapes = (
{
closed = 1;
nodes = (
(546,0,o),
(692,145,o),
(692,318,cs),
(692,407,o),
(638,469,o),
(564,487,c),
(564,602,l),
(774,602,l),
(774,672,l),
(-20,672,l),
(-20,602,l),
(485,602,l),
(485,491,l),
(411,478,o),
(367,428,o),
(367,356,cs),
(367,283,o),
(417,224,o),
(502,198,c),
(535,261,l),
(477,275,o),
(443,315,o),
(443,356,cs),
(443,398,o),
(475,430,o),
(517,430,cs),
(572,430,o),
(614,383,o),
(614,320,cs),
(614,187,o),
(502,73,o),
(352,73,c),
(352,0,l)
);
},
{
closed = 1;
nodes = (
(352,73,l),
(230,73,o),
(139,152,o),
(139,237,cs),
(139,288,o),
(184,334,o),
(260,359,c),
(200,349,l),
(224,344,o),
(264,341,o),
(306,341,c),
(306,411,l),
(214,411,o),
(160,442,o),
(160,494,cs),
(160,537,o),
(196,584,o),
(256,621,c),
(198,649,l),
(125,608,o),
(82,551,o),
(82,495,cs),
(82,429,o),
(118,382,o),
(178,369,c),
(180,393,l),
(107,365,o),
(64,304,o),
(64,228,cs),
(64,106,o),
(187,0,o),
(352,0,c)
);
}
);
width = 754;
},
{
anchors = (
{
name = bottom;
pos = (401,-20);
},
{
name = candra;
pos = (401,536);
},
{
name = nukta;
pos = (782,0);
},
{
name = top;
pos = (577,536);
}
);
layerId = "9398AC28-6BE1-4A79-9C94-3CBC2F226CE7";
shapes = (
{
closed = 1;
nodes = (
(621,-30,o),
(755,130,o),
(755,289,cs),
(755,377,o),
(717,451,o),
(653,472,c),
(653,556,l),
(822,556,l),
(822,672,l),
(-20,672,l),
(-20,556,l),
(501,556,l),
(501,478,l),
(436,465,o),
(387,408,o),
(387,346,cs),
(387,268,o),
(436,208,o),
(518,184,c),
(568,278,l),
(530,286,o),
(508,308,o),
(508,339,cs),
(508,373,o),
(528,393,o),
(563,393,cs),
(598,393,o),
(619,359,o),
(619,302,cs),
(619,202,o),
(543,87,o),
(394,87,c),
(395,-30,l)
);
},
{
closed = 1;
nodes = (
(395,87,l),
(289,87,o),
(210,141,o),
(210,214,cs),
(210,246,o),
(227,275,o),
(303,313,c),
(225,293,l),
(261,283,o),
(312,277,o),
(345,277,c),
(345,396,l),
(274,396,o),
(232,423,o),
(232,470,cs),
(232,511,o),
(264,545,o),
(319,558,c),
(217,618,l),
(150,583,o),
(79,524,o),
(79,457,cs),
(79,378,o),
(117,334,o),
(180,322,c),
(216,398,l),
(143,343,o),
(70,280,o),
(70,205,cs),
(70,71,o),
(209,-30,o),
(395,-30,c)
);
}
);
width = 802;
}
);
metricLeft = "=aaMatra-deva";
metricRight = "=aaMatra-deva";
unicode = 2331;
},
{
glyphname = "j-deva";
lastChange = "2025-08-26 20:15:15 +0000";
layers = (
{
layerId = "C1DB0BE6-5704-4A8C-8C00-D80E72C16D98";
shapes = (
{
closed = 1;
nodes = (
(383,112,o),
(452,171,o),
(452,249,cs),
(452,312,o),
(419,366,o),
(355,416,c),
(590,416,l),
(590,461,l),
(294,461,l),
(281,421,l),
(358,370,o),
(403,314,o),
(403,254,cs),
(403,199,o),
(354,158,o),
(289,158,cs),
(171,158,o),
(95,258,o),
(84,426,c),
(36,416,l),
(49,225,o),
(144,112,o),
(292,112,cs)
);
},
{
closed = 1;
nodes = (
(605,627,l),
(605,672,l),
(-20,672,l),
(-20,627,l)
);
}
);
width = 485;
},
{
layerId = "30C2FD74-1A74-41AC-9C29-B288AE1DBDD7";
shapes = (
{
closed = 1;
nodes = (
(415,90,o),
(487,153,o),
(487,238,cs),
(487,297,o),
(452,350,o),
(403,391,c),
(637,391,l),
(637,461,l),
(318,461,l),
(298,398,l),
(362,358,o),
(409,293,o),
(409,237,cs),
(409,195,o),
(373,163,o),
(325,163,cs),
(211,163,o),
(134,261,o),
(119,427,c),
(41,410,l),
(64,209,o),
(167,90,o),
(319,90,cs)
);
},
{
closed = 1;
nodes = (
(606,602,l),
(606,672,l),
(-20,672,l),
(-20,602,l)
);
}
);
width = 527;
},
{
layerId = "9398AC28-6BE1-4A79-9C94-3CBC2F226CE7";
shapes = (
{
closed = 1;
nodes = (
(468,51,o),
(564,124,o),
(564,221,cs),
(564,264,o),
(540,304,o),
(507,339,c),
(749,339,l),
(749,461,l),
(350,461,l),
(320,365,l),
(380,329,o),
(410,275,o),
(410,232,cs),
(410,203,o),
(383,182,o),
(346,182,cs),
(256,182,o),
(192,273,o),
(172,426,c),
(27,395,l),
(72,159,o),
(170,51,o),
(340,51,cs)
);
},
{
closed = 1;
nodes = (
(674,556,l),
(674,672,l),
(-20,672,l),
(-20,556,l)
);
}
);
width = 569;
}
);
metricLeft = "=aaMatra-deva";
},
{
glyphname = "jh-deva";
lastChange = "2025-08-13 18:03:51 +0000";
layers = (
{
layerId = "C1DB0BE6-5704-4A8C-8C00-D80E72C16D98";
shapes = (
{
closed = 1;
nodes = (
(469,220,o),
(560,222,o),
(626,235,c),
(626,280,l),
(560,267,o),
(469,265,o),
(416,276,c),
(416,231,l)
);
},
{
ref = "i-deva";
}
);
width = 526;
},
{
layerId = "30C2FD74-1A74-41AC-9C29-B288AE1DBDD7";
shapes = (
{
closed = 1;
nodes = (
(513,198,o),
(572,198,o),
(648,215,c),
(648,291,l),
(573,275,o),
(514,275,o),
(439,291,c),
(439,215,l)
);
},
{
ref = "i-deva";
}
);
width = 548;
},
{
layerId = "9398AC28-6BE1-4A79-9C94-3CBC2F226CE7";
shapes = (
{
closed = 1;
nodes = (
(546,142,o),
(591,142,o),
(668,165,c),
(668,288,l),
(595,271,o),
(550,261,o),
(458,288,c),
(458,165,l)
);
},
{
ref = "i-deva";
}
);
width = 568;
}
);
metricLeft = "=aaMatra-deva";
},
{
glyphname = "ny-deva";
lastChange = "2025-08-26 21:39:23 +0000";
layers = (
{
layerId = "C1DB0BE6-5704-4A8C-8C00-D80E72C16D98";
shapes = (
{
closed = 1;
nodes = (
(307,122,o),
(370,177,o),
(383,271,c),
(442,271,o),
(504,277,o),
(532,288,c),
(531,333,l),
(498,322,o),
(437,316,o),
(384,316,c),
(376,413,o),
(318,471,o),
(229,471,cs),
(188,471,o),
(144,461,o),
(111,443,c),
(128,397,l),
(156,415,o),
(194,425,o),
(229,425,cs),
(298,425,o),
(338,379,o),
(338,300,cs),
(338,217,o),
(290,168,o),
(208,168,cs),
(157,168,o),
(101,194,o),
(58,237,c),
(40,197,l),
(84,150,o),
(148,122,o),
(212,122,cs)
);
},
{
closed = 1;
nodes = (
(535,627,l),
(535,672,l),
(-20,672,l),
(-20,627,l)
);
}
);
width = 425;
},
{
layerId = "30C2FD74-1A74-41AC-9C29-B288AE1DBDD7";
shapes = (
{
closed = 1;
nodes = (
(314,99,o),
(382,154,o),
(402,246,c),
(456,246,o),
(514,252,o),
(541,262,c),
(541,332,l),
(519,321,o),
(461,315,o),
(404,315,c),
(391,407,o),
(327,461,o),
(234,461,cs),
(195,461,o),
(150,451,o),
(112,435,c),
(138,364,l),
(169,380,o),
(205,389,o),
(233,389,cs),
(295,389,o),
(331,351,o),
(331,287,cs),
(331,215,o),
(287,172,o),
(213,172,cs),
(171,172,o),
(115,196,o),
(62,236,c),
(34,173,l),
(87,126,o),
(156,99,o),
(219,99,cs)
);
},
{
closed = 1;
nodes = (
(543,602,l),
(543,672,l),
(-20,672,l),
(-20,602,l)
);
}
);
width = 433;
},
{
layerId = "9398AC28-6BE1-4A79-9C94-3CBC2F226CE7";
shapes = (
{
closed = 1;
nodes = (
(365,59,o),
(446,117,o),
(467,215,c),
(500,215,o),
(546,221,o),
(590,231,c),
(586,341,l),
(527,325,o),
(482,319,o),
(464,324,c),
(437,413,o),
(366,465,o),
(273,465,cs),
(229,465,o),
(176,454,o),
(128,436,c),
(173,321,l),
(203,332,o),
(233,339,o),
(255,339,cs),
(297,339,o),
(322,311,o),
(322,263,cs),
(322,213,o),
(292,184,o),
(242,184,cs),
(207,184,o),
(152,213,o),
(95,261,c),
(41,145,l),
(104,91,o),
(182,59,o),
(250,59,cs)
);
},
{
closed = 1;
nodes = (
(592,556,l),
(592,672,l),
(-20,672,l),
(-20,556,l)
);
}
);
width = 482;
}
);
metricLeft = "=aaMatra-deva";
metricRight = "=-110";
},
{
glyphname = "tta-deva";
lastChange = "2025-05-27 01:13:06 +0000";
layers = (
{
anchors = (
{
name = bottom;
pos = (277,0);
},
{
name = candra;
pos = (436,516);
},
{
name = nukta;
pos = (99,0);
},
{
name = top;
pos = (327,516);
}
);
layerId = "C1DB0BE6-5704-4A8C-8C00-D80E72C16D98";
shapes = (
{
closed = 1;
nodes = (
(343,60,o),
(410,78,o),
(456,109,c),
(436,151,l),
(394,123,o),
(335,106,o),
(277,106,c),
(277,60,l)
);
},
{
ref = "_t-comp.deva";
}
);
width = 471;
},
{
anchors = (
{
name = bottom;
pos = (291,0);
},
{
name = candra;
pos = (466,526);
},
{
name = nukta;
pos = (91,0);
},
{
name = top;
pos = (357,526);
}
);
layerId = "30C2FD74-1A74-41AC-9C29-B288AE1DBDD7";
shapes = (
{
closed = 1;
nodes = (
(353,30,o),
(433,51,o),
(505,87,c),
(471,154,l),
(410,122,o),
(344,103,o),
(291,103,c),
(291,30,l)
);
},
{
ref = "_t-comp.deva";
}
);
width = 525;
},
{
anchors = (
{
name = bottom;
pos = (314,-40);
},
{
name = candra;
pos = (526,536);
},
{
name = nukta;
pos = (98,0);
},
{
name = top;
pos = (359,536);
}
);
layerId = "9398AC28-6BE1-4A79-9C94-3CBC2F226CE7";
shapes = (
{
closed = 1;
nodes = (
(391,-10,o),
(475,7,o),
(542,37,c),
(479,164,l),
(435,141,o),
(368,127,o),
(314,127,c),
(314,-10,l)
);
},
{
ref = "_t-comp.deva";
}
);
width = 552;
}
);
metricLeft = "=aaMatra-deva";
metricRight = "=aaMatra-deva";
unicode = 2335;
},
{
glyphname = "ttha-deva";
lastChange = "2025-05-27 01:13:34 +0000";
layers = (
{
anchors = (
{
name = bottom;
pos = (277,0);
},
{
name = candra;
pos = (436,516);
},
{
name = nukta;
pos = (99,0);
},
{
name = top;
pos = (327,516);
}
);
layerId = "C1DB0BE6-5704-4A8C-8C00-D80E72C16D98";
shapes = (
{
closed = 1;
nodes = (
(426,60,o),
(514,158,o),
(514,289,cs),
(514,397,o),
(439,476,o),
(311,503,c),
(311,456,l),
(408,432,o),
(465,369,o),
(465,287,cs),
(465,186,o),
(395,106,o),
(277,106,c),
(277,60,l)
);
},
{
closed = 1;
nodes = (
(572,627,l),
(572,672,l),
(388,672,l),
(388,627,l)
);
},
{
ref = "_t-comp.deva";
}
);
width = 552;
},
{
anchors = (
{
name = bottom;
pos = (291,0);
},
{
name = candra;
pos = (466,526);
},
{
name = nukta;
pos = (91,0);
},
{
name = top;
pos = (357,526);
}
);
layerId = "30C2FD74-1A74-41AC-9C29-B288AE1DBDD7";
shapes = (
{
closed = 1;
nodes = (
(454,30,o),
(550,119,o),
(550,270,cs),
(550,375,o),
(476,460,o),
(350,500,c),
(338,428,l),
(422,398,o),
(471,338,o),
(471,265,cs),
(471,163,o),
(404,103,o),
(291,103,c),
(291,30,l)
);
},
{
closed = 1;
nodes = (
(604,602,l),
(604,672,l),
(410,672,l),
(410,602,l)
);
},
{
ref = "_t-comp.deva";
}
);
width = 584;
},
{
anchors = (
{
name = bottom;
pos = (314,-40);
},
{
name = candra;
pos = (526,536);
},
{
name = nukta;
pos = (98,0);
},
{
name = top;
pos = (359,536);
}
);
layerId = "9398AC28-6BE1-4A79-9C94-3CBC2F226CE7";
shapes = (
{
closed = 1;
nodes = (
(487,-10,o),
(599,84,o),
(599,242,cs),
(599,361,o),
(510,455,o),
(375,493,c),
(321,373,l),
(391,354,o),
(443,307,o),
(443,247,cs),
(443,172,o),
(389,127,o),
(314,127,c),
(314,-10,l)
);
},
{
closed = 1;
nodes = (
(652,556,l),
(652,672,l),
(478,672,l),
(478,556,l)
);
},
{
ref = "_t-comp.deva";
}
);
width = 632;
}
);
metricLeft = "=aaMatra-deva";
metricRight = "=aaMatra-deva";
unicode = 2336;
},
{
glyphname = "dda-deva";
lastChange = "2025-08-26 21:29:35 +0000";
layers = (
{
anchors = (
{
name = bottom;
pos = (295,0);
},
{
name = candra;
pos = (273,516);
},
{
name = nukta;
pos = (295,-96);
},
{
name = top;
pos = (403,516);
}
);
layerId = "C1DB0BE6-5704-4A8C-8C00-D80E72C16D98";
shapes = (
{
closed = 1;
nodes = (
(382,274,o),
(433,240,o),
(433,175,cs),
(433,113,o),
(382,76,o),
(297,76,cs),
(206,76,o),
(134,108,o),
(61,177,c),
(40,132,l),
(114,64,o),
(194,30,o),
(297,30,cs),
(403,30,o),
(483,92,o),
(483,175,cs),
(483,262,o),
(406,321,o),
(303,312,cs),
(211,304,o),
(156,331,o),
(156,376,cs),
(156,424,o),
(193,449,o),
(256,449,cs),
(427,449,l),
(427,627,l),
(545,627,l),
(545,672,l),
(-20,672,l),
(-20,627,l),
(377,627,l),
(377,494,l),
(264,494,ls),
(165,494,o),
(106,450,o),
(106,376,cs),
(106,299,o),
(187,251,o),
(295,264,cs)
);
}
);
width = 525;
},
{
anchors = (
{
name = bottom;
pos = (281,0);
},
{
name = candra;
pos = (281,526);
},
{
name = nukta;
pos = (285,-96);
},
{
name = top;
pos = (409,526);
}
);
layerId = "30C2FD74-1A74-41AC-9C29-B288AE1DBDD7";
shapes = (
{
closed = 1;
nodes = (
(374,252,o),
(423,218,o),
(423,162,cs),
(423,117,o),
(373,83,o),
(307,83,cs),
(216,83,o),
(142,126,o),
(68,185,c),
(35,114,l),
(116,49,o),
(195,10,o),
(307,10,cs),
(419,10,o),
(503,76,o),
(503,164,cs),
(503,260,o),
(421,324,o),
(312,314,cs),
(234,307,o),
(176,334,o),
(176,377,cs),
(176,416,o),
(215,445,o),
(268,445,cs),
(451,445,l),
(451,602,l),
(571,602,l),
(571,672,l),
(-20,672,l),
(-20,602,l),
(371,602,l),
(371,515,l),
(278,515,ls),
(175,515,o),
(97,458,o),
(97,382,cs),
(97,281,o),
(187,221,o),
(308,241,cs)
);
}
);
width = 551;
},
{
anchors = (
{
name = bottom;
pos = (300,-30);
},
{
name = candra;
pos = (300,536);
},
{
name = nukta;
pos = (295,-116);
},
{
name = top;
pos = (434,536);
}
);
layerId = "9398AC28-6BE1-4A79-9C94-3CBC2F226CE7";
shapes = (
{
closed = 1;
nodes = (
(373,210,o),
(405,204,o),
(405,169,cs),
(405,144,o),
(374,110,o),
(321,110,cs),
(241,110,o),
(148,157,o),
(75,210,c),
(22,97,l),
(115,24,o),
(198,-10,o),
(328,-10,cs),
(475,-10,o),
(562,71,o),
(562,174,cs),
(562,279,o),
(480,324,o),
(341,312,cs),
(286,308,o),
(254,327,o),
(254,348,cs),
(254,365,o),
(268,375,o),
(293,375,cs),
(509,375,l),
(509,556,l),
(619,556,l),
(619,672,l),
(-20,672,l),
(-20,556,l),
(355,556,l),
(355,490,l),
(299,490,ls),
(187,490,o),
(93,430,o),
(93,349,cs),
(93,256,o),
(195,181,o),
(318,201,cs)
);
}
);
width = 599;
}
);
metricLeft = "=aaMatra-deva";
metricRight = "=aaMatra-deva";
unicode = 2337;
},
{
glyphname = "ddha-deva";
lastChange = "2025-08-14 02:01:28 +0000";
layers = (
{
anchors = (
{
name = bottom;
pos = (277,0);
},
{
name = candra;
pos = (436,516);
},
{
name = nukta;
pos = (277,-29);
},
{
name = top;
pos = (327,516);
}
);
layerId = "C1DB0BE6-5704-4A8C-8C00-D80E72C16D98";
shapes = (
{
closed = 1;
nodes = (
(264,196,l),
(264,263,o),
(293,303,o),
(343,303,cs),
(396,303,o),
(435,265,o),
(435,215,cs),
(435,156,o),
(375,109,o),
(296,106,c),
(277,106,l),
(277,60,l),
(396,60,o),
(485,125,o),
(485,211,cs),
(485,289,o),
(425,348,o),
(345,348,cs),
(263,348,o),
(214,297,o),
(214,210,c)
);
},
{
closed = 1;
nodes = (
(522,627,l),
(522,672,l),
(368,672,l),
(368,627,l)
);
},
{
ref = "_t-comp.deva";
}
);
width = 502;
},
{
anchors = (
{
name = bottom;
pos = (291,0);
},
{
name = candra;
pos = (466,526);
},
{
name = nukta;
pos = (295,-65);
},
{
name = top;
pos = (357,526);
}
);
layerId = "30C2FD74-1A74-41AC-9C29-B288AE1DBDD7";
shapes = (
{
closed = 1;
nodes = (
(282,177,l),
(282,229,o),
(309,259,o),
(354,259,cs),
(389,259,o),
(415,230,o),
(415,191,cs),
(415,138,o),
(380,105,o),
(305,103,c),
(291,103,l),
(291,30,l),
(419,31,o),
(495,89,o),
(495,186,cs),
(495,271,o),
(435,334,o),
(355,334,cs),
(264,334,o),
(210,283,o),
(209,197,c)
);
},
{
closed = 1;
nodes = (
(555,602,l),
(555,672,l),
(411,672,l),
(411,602,l)
);
},
{
ref = "_t-comp.deva";
}
);
width = 535;
},
{
anchors = (
{
name = bottom;
pos = (314,-40);
},
{
name = candra;
pos = (526,536);
},
{
name = nukta;
pos = (313,-117);
},
{
name = top;
pos = (359,536);
}
);
layerId = "9398AC28-6BE1-4A79-9C94-3CBC2F226CE7";
shapes = (
{
closed = 1;
nodes = (
(356,157,l),
(356,200,o),
(381,225,o),
(407,225,cs),
(429,225,o),
(442,212,o),
(442,189,cs),
(442,154,o),
(406,128,o),
(358,127,c),
(314,127,l),
(314,-10,l),
(467,-10,o),
(567,69,o),
(567,187,cs),
(567,271,o),
(500,334,o),
(410,334,cs),
(316,334,o),
(249,272,o),
(247,190,c)
);
},
{
closed = 1;
nodes = (
(611,556,l),
(611,672,l),
(437,672,l),
(437,556,l)
);
},
{
ref = "_t-comp.deva";
}
);
width = 591;
}
);
metricLeft = "=aaMatra-deva";
metricRight = "=aaMatra-deva";
unicode = 2338;
},
{
glyphname = "nn-deva";
lastChange = "2025-05-27 01:15:11 +0000";
layers = (
{
guides = (
{
pos = (254,239);
}
);
layerId = "C1DB0BE6-5704-4A8C-8C00-D80E72C16D98";
shapes = (
{
closed = 1;
nodes = (
(330,219,o),
(390,282,o),
(390,388,cs),
(390,627,l),
(465,627,l),
(465,672,l),
(-20,672,l),
(-20,627,l),
(65,627,l),
(65,401,ls),
(65,287,o),
(126,219,o),
(228,219,cs)
);
},
{
closed = 1;
nodes = (
(157,264,o),
(115,319,o),
(115,411,cs),
(115,627,l),
(341,627,l),
(341,411,ls),
(341,319,o),
(299,264,o),
(227,264,cs)
);
}
);
width = 445;
},
{
guides = (
{
pos = (254,187);
}
);
layerId = "30C2FD74-1A74-41AC-9C29-B288AE1DBDD7";
shapes = (
{
closed = 1;
nodes = (
(359,167,o),
(425,232,o),
(425,341,cs),
(425,602,l),
(500,602,l),
(500,672,l),
(-20,672,l),
(-20,602,l),
(65,602,l),
(65,372,ls),
(65,243,o),
(133,167,o),
(247,167,cs)
);
},
{
closed = 1;
nodes = (
(182,237,o),
(145,288,o),
(145,373,cs),
(145,602,l),
(345,602,l),
(345,373,ls),
(345,288,o),
(308,237,o),
(245,237,cs)
);
}
);
width = 480;
},
{
guides = (
{
pos = (250,150);
}
);
layerId = "9398AC28-6BE1-4A79-9C94-3CBC2F226CE7";
shapes = (
{
closed = 1;
nodes = (
(407,120,o),
(490,198,o),
(490,331,cs),
(490,556,l),
(550,556,l),
(550,672,l),
(-20,672,l),
(-20,556,l),
(40,556,l),
(40,352,ls),
(40,206,o),
(124,120,o),
(266,120,cs)
);
},
{
closed = 1;
nodes = (
(221,244,o),
(195,279,o),
(195,338,cs),
(195,556,l),
(335,556,l),
(335,338,ls),
(335,279,o),
(309,244,o),
(264,244,cs)
);
}
);
width = 530;
}
);
metricLeft = "=aaMatra-deva";
metricRight = "=aaMatra-deva";
},
{
glyphname = "t-deva";
lastChange = "2025-05-27 01:15:23 +0000";
layers = (
{
layerId = "C1DB0BE6-5704-4A8C-8C00-D80E72C16D98";
shapes = (
{
closed = 1;
nodes = (
(231,0,l),
(145,126,o),
(99,205,o),
(99,294,cs),
(99,364,o),
(148,430,o),
(281,430,cs),
(326,430,o),
(381,424,o),
(430,414,c),
(430,461,l),
(381,471,o),
(324,477,o),
(277,477,cs),
(115,477,o),
(49,395,o),
(49,298,cs),
(49,201,o),
(92,120,o),
(173,0,c)
);
},
{
closed = 1;
nodes = (
(418,627,l),
(418,672,l),
(-20,672,l),
(-20,627,l)
);
}
);
width = 340;
},
{
layerId = "30C2FD74-1A74-41AC-9C29-B288AE1DBDD7";
shapes = (
{
closed = 1;
nodes = (
(259,0,l),
(165,137,o),
(136,197,o),
(136,287,cs),
(136,362,o),
(201,407,o),
(310,407,cs),
(353,407,o),
(397,401,o),
(440,391,c),
(440,461,l),
(391,471,o),
(341,477,o),
(292,477,cs),
(143,477,o),
(55,408,o),
(55,292,cs),
(55,189,o),
(85,128,o),
(165,0,c)
);
},
{
closed = 1;
nodes = (
(423,602,l),
(423,672,l),
(-20,672,l),
(-20,602,l)
);
}
);
width = 350;
},
{
layerId = "9398AC28-6BE1-4A79-9C94-3CBC2F226CE7";
shapes = (
{
closed = 1;
nodes = (
(330,0,l),
(251,119,o),
(209,213,o),
(209,256,cs),
(209,323,o),
(248,353,o),
(347,353,cs),
(371,353,o),
(414,350,o),
(460,340,c),
(460,464,l),
(403,474,o),
(351,477,o),
(316,477,cs),
(155,477,o),
(54,394,o),
(54,270,cs),
(54,200,o),
(88,96,o),
(157,0,c)
);
},
{
closed = 1;
nodes = (
(453,556,l),
(453,672,l),
(-20,672,l),
(-20,556,l)
);
}
);
width = 370;
}
);
metricLeft = "=aaMatra-deva";
metricRight = "=-90";
},
{
glyphname = "th-deva";
lastChange = "2025-08-14 01:45:37 +0000";
layers = (
{
layerId = "C1DB0BE6-5704-4A8C-8C00-D80E72C16D98";
shapes = (
{
closed = 1;
nodes = (
(392,160,o),
(473,188,o),
(533,235,c),
(511,279,l),
(455,234,o),
(386,208,o),
(320,208,cs),
(208,208,o),
(138,268,o),
(119,353,c),
(104,330,l),
(245,330,o),
(349,407,o),
(349,536,c),
(299,536,l),
(299,431,o),
(198,369,o),
(60,369,c),
(76,244,o),
(165,160,o),
(317,160,cs)
);
},
{
closed = 1;
nodes = (
(221,477,l),
(152,491,o),
(116,523,o),
(116,562,cs),
(116,603,o),
(152,634,o),
(199,634,cs),
(256,634,o),
(299,592,o),
(299,536,c),
(349,536,l),
(349,620,o),
(286,681,o),
(203,681,cs),
(125,681,o),
(66,631,o),
(66,564,cs),
(66,500,o),
(111,451,o),
(203,433,c)
);
}
);
width = 413;
},
{
layerId = "30C2FD74-1A74-41AC-9C29-B288AE1DBDD7";
shapes = (
{
closed = 1;
nodes = (
(421,120,o),
(507,150,o),
(577,201,c),
(546,263,l),
(495,217,o),
(422,190,o),
(351,190,cs),
(247,190,o),
(163,263,o),
(143,320,c),
(112,286,l),
(277,296,o),
(384,371,o),
(384,515,c),
(309,515,l),
(306,407,o),
(207,353,o),
(60,343,c),
(76,228,o),
(189,120,o),
(345,120,cs)
);
},
{
closed = 1;
nodes = (
(228,477,l),
(172,489,o),
(136,512,o),
(136,548,cs),
(136,583,o),
(169,609,o),
(213,609,cs),
(268,609,o),
(309,569,o),
(309,515,c),
(384,515,l),
(383,610,o),
(312,682,o),
(218,682,cs),
(128,682,o),
(60,625,o),
(60,549,cs),
(60,476,o),
(112,427,o),
(202,413,c)
);
}
);
width = 442;
},
{
layerId = "9398AC28-6BE1-4A79-9C94-3CBC2F226CE7";
shapes = (
{
closed = 1;
nodes = (
(458,101,o),
(545,128,o),
(612,173,c),
(556,279,l),
(517,248,o),
(456,229,o),
(392,229,cs),
(304,229,o),
(228,269,o),
(215,335,c),
(196,249,l),
(346,281,o),
(444,381,o),
(444,489,c),
(301,499,l),
(301,408,o),
(209,348,o),
(70,320,c),
(96,189,o),
(228,101,o),
(378,101,cs)
);
},
{
closed = 1;
nodes = (
(248,478,l),
(201,487,o),
(189,504,o),
(189,526,cs),
(189,549,o),
(212,567,o),
(242,567,cs),
(276,567,o),
(301,544,o),
(301,499,c),
(444,489,l),
(444,599,o),
(360,682,o),
(247,682,cs),
(140,682,o),
(60,623,o),
(60,545,cs),
(60,473,o),
(108,409,o),
(216,399,c)
);
}
);
width = 462;
}
);
metricLeft = "=aaMatra-deva*-3";
metricRight = "=gh-deva+10";
},
{
glyphname = "da-deva";
lastChange = "2025-08-13 17:27:00 +0000";
layers = (
{
anchors = (
{
name = bottom;
pos = (453,-49);
},
{
name = candra;
pos = (436,516);
},
{
name = nukta;
pos = (99,0);
},
{
name = top;
pos = (327,516);
}
);
layerId = "C1DB0BE6-5704-4A8C-8C00-D80E72C16D98";
shapes = (
{
closed = 1;
nodes = (
(502,627,l),
(502,672,l),
(368,672,l),
(368,627,l)
);
},
{
pos = (277,0);
ref = "_right-tail.deva";
},
{
ref = "_t-comp.deva";
}
);
width = 482;
},
{
anchors = (
{
name = bottom;
pos = (510,-74);
},
{
name = candra;
pos = (466,526);
},
{
name = nukta;
pos = (91,0);
},
{
name = top;
pos = (357,526);
}
);
layerId = "30C2FD74-1A74-41AC-9C29-B288AE1DBDD7";
shapes = (
{
closed = 1;
nodes = (
(565,602,l),
(565,672,l),
(401,672,l),
(401,602,l)
);
},
{
pos = (291,0);
ref = "_right-tail.deva";
},
{
ref = "_t-comp.deva";
}
);
width = 545;
},
{
anchors = (
{
name = bottom;
pos = (533,-110);
},
{
name = candra;
pos = (526,536);
},
{
name = nukta;
pos = (98,0);
},
{
name = top;
pos = (359,536);
}
);
layerId = "9398AC28-6BE1-4A79-9C94-3CBC2F226CE7";
shapes = (
{
closed = 1;
nodes = (
(592,556,l),
(592,672,l),
(418,672,l),
(418,556,l)
);
},
{
pos = (314,-10);
ref = "_right-tail.deva";
},
{
ref = "_t-comp.deva";
}
);
width = 572;
}
);
metricLeft = "=aaMatra-deva";
metricRight = "=aaMatra-deva";
unicode = 2342;
},
{
glyphname = "dh-deva";
lastChange = "2025-08-14 01:45:37 +0000";
layers = (
{
layerId = "C1DB0BE6-5704-4A8C-8C00-D80E72C16D98";
shapes = (
{
closed = 1;
nodes = (
(378,150,o),
(462,174,o),
(519,231,c),
(499,271,l),
(441,219,o),
(363,194,o),
(297,194,cs),
(201,194,o),
(144,227,o),
(144,284,cs),
(144,339,o),
(196,371,o),
(265,371,c),
(277,371,l),
(277,416,l),
(262,416,l),
(166,416,o),
(109,469,o),
(109,542,c),
(60,542,l),
(60,475,o),
(98,411,o),
(163,387,c),
(124,356,o),
(94,339,o),
(94,287,cs),
(94,201,o),
(168,150,o),
(293,150,cs)
);
},
{
closed = 1;
nodes = (
(109,542,l),
(109,584,o),
(142,625,o),
(187,625,cs),
(230,625,o),
(253,599,o),
(253,564,cs),
(253,546,o),
(241,520,o),
(224,503,c),
(258,474,l),
(283,496,o),
(302,535,o),
(302,564,cs),
(302,626,o),
(257,672,o),
(183,672,cs),
(113,672,o),
(60,611,o),
(60,542,c)
);
}
);
width = 399;
},
{
layerId = "30C2FD74-1A74-41AC-9C29-B288AE1DBDD7";
shapes = (
{
closed = 1;
nodes = (
(396,109,o),
(482,143,o),
(554,200,c),
(525,258,l),
(461,208,o),
(385,178,o),
(320,178,cs),
(231,178,o),
(179,208,o),
(179,259,cs),
(179,310,o),
(225,349,o),
(286,349,c),
(318,349,l),
(318,412,l),
(263,412,l),
(190,412,o),
(140,467,o),
(140,528,c),
(60,528,l),
(60,462,o),
(105,387,o),
(171,367,c),
(130,348,o),
(99,300,o),
(99,257,cs),
(99,164,o),
(182,109,o),
(322,109,cs)
);
},
{
closed = 1;
nodes = (
(140,528,l),
(140,569,o),
(176,609,o),
(223,609,cs),
(260,609,o),
(278,588,o),
(278,559,cs),
(278,541,o),
(270,526,o),
(247,506,c),
(301,462,l),
(334,492,o),
(354,521,o),
(354,559,cs),
(354,629,o),
(301,682,o),
(216,682,cs),
(128,682,o),
(61,610,o),
(60,528,c)
);
}
);
width = 419;
},
{
layerId = "9398AC28-6BE1-4A79-9C94-3CBC2F226CE7";
shapes = (
{
closed = 1;
nodes = (
(446,91,o),
(549,120,o),
(609,169,c),
(553,275,l),
(501,228,o),
(413,214,o),
(360,214,cs),
(312,214,o),
(256,227,o),
(256,261,cs),
(256,290,o),
(285,304,o),
(324,304,c),
(393,304,l),
(393,413,l),
(306,413,l),
(240,417,o),
(209,473,o),
(209,509,c),
(60,509,l),
(60,452,o),
(110,363,o),
(176,344,c),
(133,318,o),
(101,280,o),
(101,232,cs),
(101,144,o),
(218,91,o),
(348,91,cs)
);
},
{
closed = 1;
nodes = (
(209,509,l),
(209,542,o),
(233,567,o),
(266,567,cs),
(288,567,o),
(302,557,o),
(302,543,cs),
(302,528,o),
(290,507,o),
(269,494,c),
(332,439,l),
(402,470,o),
(424,506,o),
(424,555,cs),
(424,628,o),
(352,682,o),
(255,682,cs),
(149,682,o),
(60,608,o),
(60,509,c)
);
}
);
width = 459;
}
);
metricLeft = "=aaMatra-deva*-3";
metricRight = "=gh-deva+10";
},
{
glyphname = "n-deva";
lastChange = "2025-08-26 20:02:21 +0000";
layers = (
{
layerId = "C1DB0BE6-5704-4A8C-8C00-D80E72C16D98";
shapes = (
{
closed = 1;
nodes = (
(360,627,l),
(360,672,l),
(-20,672,l),
(-20,627,l)
);
},
{
closed = 1;
nodes = (
(420,362,l),
(420,407,l),
(128,407,l),
(128,362,l)
);
},
{
pos = (45,23);
ref = _knot.deva;
}
);
width = 320;
},
{
layerId = "30C2FD74-1A74-41AC-9C29-B288AE1DBDD7";
shapes = (
{
closed = 1;
nodes = (
(392,602,l),
(392,672,l),
(-20,672,l),
(-20,602,l)
);
},
{
closed = 1;
nodes = (
(412,342,l),
(412,412,l),
(130,412,l),
(130,342,l)
);
},
{
pos = (35,39);
ref = _knot.deva;
}
);
width = 312;
},
{
layerId = "9398AC28-6BE1-4A79-9C94-3CBC2F226CE7";
shapes = (
{
closed = 1;
nodes = (
(405,556,l),
(405,672,l),
(-20,672,l),
(-20,556,l)
);
},
{
closed = 1;
nodes = (
(425,280,l),
(425,406,l),
(110,406,l),
(110,280,l)
);
},
{
pos = (25,39);
ref = _knot.deva;
}
);
width = 325;
}
);
metricLeft = "=aaMatra-deva";
metricRight = "=aaMatra-deva-80";
},
{
glyphname = "p-deva";
lastChange = "2025-08-26 21:38:37 +0000";
layers = (
{
guides = (
{
pos = (134,433);
},
{
angle = 90;
pos = (250,293);
}
);
layerId = "C1DB0BE6-5704-4A8C-8C00-D80E72C16D98";
shapes = (
{
closed = 1;
nodes = (
(355,239,o),
(434,316,o),
(434,418,c),
(396,418,l),
(396,341,o),
(333,284,o),
(250,284,cs),
(173,284,o),
(116,348,o),
(116,433,cs),
(116,627,l),
(379,627,l),
(379,672,l),
(-20,672,l),
(-20,627,l),
(66,627,l),
(66,433,ls),
(66,322,o),
(145,239,o),
(250,239,cs)
);
}
);
width = 296;
},
{
guides = (
{
pos = (244,187);
},
{
pos = (134,433);
},
{
angle = 90;
pos = (276,293);
},
{
pos = (134,433);
}
);
layerId = "30C2FD74-1A74-41AC-9C29-B288AE1DBDD7";
shapes = (
{
closed = 1;
nodes = (
(379,187,o),
(463,280,o),
(463,404,c),
(411,404,l),
(411,320,o),
(353,257,o),
(276,257,cs),
(190,257,o),
(139,315,o),
(139,413,cs),
(139,602,l),
(376,602,l),
(376,672,l),
(-20,672,l),
(-20,602,l),
(59,602,l),
(59,413,ls),
(59,271,o),
(136,187,o),
(267,187,cs)
);
}
);
width = 311;
},
{
guides = (
{
pos = (250,150);
},
{
angle = 90;
pos = (311,293);
}
);
layerId = "9398AC28-6BE1-4A79-9C94-3CBC2F226CE7";
shapes = (
{
closed = 1;
nodes = (
(410,150,o),
(497,253,o),
(497,390,c),
(413,390,l),
(413,317,o),
(375,274,o),
(311,274,cs),
(246,274,o),
(208,327,o),
(208,407,cs),
(208,556,l),
(383,556,l),
(383,672,l),
(-20,672,l),
(-20,556,l),
(53,556,l),
(53,407,ls),
(53,245,o),
(142,150,o),
(293,150,cs)
);
}
);
width = 333;
}
);
metricLeft = "=aaMatra-deva";
},
{
glyphname = "pha-deva";
lastChange = "2025-08-27 00:22:05 +0000";
layers = (
{
anchors = (
{
name = nukta;
pos = (169,20);
}
);
layerId = "C1DB0BE6-5704-4A8C-8C00-D80E72C16D98";
shapes = (
{
closed = 1;
nodes = (
(677,132,o),
(731,211,o),
(731,298,cs),
(731,405,o),
(654,468,o),
(557,468,cs),
(492,468,o),
(435,433,o),
(399,383,c),
(416,343,l),
(450,391,o),
(502,424,o),
(555,424,cs),
(622,424,o),
(681,377,o),
(681,298,cs),
(681,230,o),
(637,174,o),
(566,135,c),
(593,88,l)
);
},
{
closed = 1;
nodes = (
(791,627,l),
(791,672,l),
(388,672,l),
(388,627,l)
);
},
{
alignment = -1;
pos = (267,0);
ref = "aaMatra-deva";
},
{
ref = "_p-slim.deva";
}
);
width = 771;
},
{
anchors = (
{
name = nukta;
pos = (164,20);
}
);
layerId = "30C2FD74-1A74-41AC-9C29-B288AE1DBDD7";
shapes = (
{
closed = 1;
nodes = (
(713,111,o),
(771,186,o),
(771,271,cs),
(771,389,o),
(692,459,o),
(574,459,cs),
(497,459,o),
(434,425,o),
(405,367,c),
(437,314,l),
(467,362,o),
(517,390,o),
(572,390,cs),
(642,390,o),
(693,346,o),
(693,271,cs),
(693,221,o),
(649,170,o),
(574,133,c),
(614,69,l)
);
},
{
closed = 1;
nodes = (
(829,602,l),
(829,672,l),
(407,672,l),
(407,602,l)
);
},
{
alignment = -1;
pos = (266,0);
ref = "aaMatra-deva";
},
{
ref = "_p-slim.deva";
}
);
width = 809;
},
{
anchors = (
{
name = nukta;
pos = (194,0);
}
);
layerId = "9398AC28-6BE1-4A79-9C94-3CBC2F226CE7";
shapes = (
{
closed = 1;
nodes = (
(804,90,o),
(876,177,o),
(876,262,cs),
(876,390,o),
(782,476,o),
(657,476,cs),
(603,476,o),
(552,461,o),
(503,408,c),
(520,289,l),
(550,322,o),
(598,352,o),
(642,352,cs),
(692,352,o),
(721,320,o),
(721,284,cs),
(721,239,o),
(679,198,o),
(609,148,c),
(683,28,l)
);
},
{
closed = 1;
nodes = (
(936,556,l),
(936,672,l),
(459,672,l),
(459,556,l)
);
},
{
alignment = -1;
pos = (297,0);
ref = "aaMatra-deva";
},
{
ref = "_p-slim.deva";
}
);
width = 916;
}
);
metricLeft = "=aaMatra-deva";
metricRight = "=aaMatra-deva";
unicode = 2347;
},
{
glyphname = "b-deva";
lastChange = "2025-08-26 20:01:18 +0000";
layers = (
{
layerId = "C1DB0BE6-5704-4A8C-8C00-D80E72C16D98";
shapes = (
{
closed = 1;
nodes = (
(369,172,l),
(189,481,l),
(150,459,l),
(330,150,l)
);
},
{
closed = 1;
nodes = (
(331,122,o),
(409,148,o),
(450,206,c),
(430,247,l),
(391,191,o),
(323,166,o),
(271,166,cs),
(152,166,o),
(81,224,o),
(81,322,cs),
(81,416,o),
(143,472,o),
(247,472,cs),
(283,472,o),
(329,460,o),
(355,445,c),
(369,487,l),
(341,505,o),
(289,518,o),
(247,518,cs),
(111,518,o),
(31,445,o),
(31,322,cs),
(31,196,o),
(119,122,o),
(269,122,cs)
);
},
{
closed = 1;
nodes = (
(430,627,l),
(430,672,l),
(-20,672,l),
(-20,627,l)
);
}
);
width = 328;
},
{
layerId = "30C2FD74-1A74-41AC-9C29-B288AE1DBDD7";
shapes = (
{
closed = 1;
nodes = (
(384,166,l),
(215,458,l),
(163,428,l),
(332,136,l)
);
},
{
closed = 1;
nodes = (
(348,89,o),
(412,110,o),
(464,162,c),
(447,234,l),
(396,181,o),
(340,158,o),
(292,158,cs),
(179,158,o),
(113,211,o),
(113,302,cs),
(113,384,o),
(173,432,o),
(275,432,cs),
(309,432,o),
(351,421,o),
(373,407,c),
(394,467,l),
(369,488,o),
(312,504,o),
(262,504,cs),
(118,504,o),
(33,429,o),
(33,302,cs),
(33,168,o),
(128,89,o),
(290,89,cs)
);
},
{
closed = 1;
nodes = (
(447,602,l),
(447,672,l),
(-20,672,l),
(-20,602,l)
);
}
);
width = 334;
},
{
layerId = "9398AC28-6BE1-4A79-9C94-3CBC2F226CE7";
shapes = (
{
closed = 1;
nodes = (
(427,151,l),
(256,438,l),
(179,405,l),
(350,118,l)
);
},
{
closed = 1;
nodes = (
(379,51,o),
(454,79,o),
(498,139,c),
(478,248,l),
(447,196,o),
(391,175,o),
(324,175,cs),
(228,175,o),
(184,206,o),
(184,275,cs),
(184,337,o),
(215,366,o),
(303,366,cs),
(326,366,o),
(351,362,o),
(373,355,c),
(410,456,l),
(375,472,o),
(331,486,o),
(280,486,cs),
(129,486,o),
(40,408,o),
(40,275,cs),
(40,134,o),
(136,51,o),
(299,51,cs)
);
},
{
closed = 1;
nodes = (
(478,556,l),
(478,672,l),
(-20,672,l),
(-20,556,l)
);
}
);
width = 368;
}
);
metricLeft = "=aaMatra-deva";
metricRight = "=v-deva";
},
{
glyphname = "bh-deva";
lastChange = "2025-05-27 01:23:23 +0000";
layers = (
{
layerId = "C1DB0BE6-5704-4A8C-8C00-D80E72C16D98";
shapes = (
{
closed = 1;
nodes = (
(199,382,l),
(199,567,l),
(199,638,o),
(159,671,o),
(74,672,c),
(20,672,l),
(20,627,l),
(71,627,l),
(125,627,o),
(150,608,o),
(150,567,c),
(150,382,l)
);
},
{
closed = 1;
nodes = (
(461,336,l),
(461,381,l),
(159,381,l),
(159,336,l)
);
},
{
pos = (68,0);
ref = _knot.deva;
}
);
width = 371;
},
{
layerId = "30C2FD74-1A74-41AC-9C29-B288AE1DBDD7";
shapes = (
{
closed = 1;
nodes = (
(247,372,l),
(247,546,l),
(247,625,o),
(199,672,o),
(117,672,c),
(20,672,l),
(20,602,l),
(117,602,l),
(148,602,o),
(167,581,o),
(167,546,c),
(167,372,l)
);
},
{
closed = 1;
nodes = (
(492,302,l),
(492,372,l),
(180,372,l),
(180,302,l)
);
},
{
pos = (86,0);
ref = _knot.deva;
}
);
width = 402;
},
{
layerId = "9398AC28-6BE1-4A79-9C94-3CBC2F226CE7";
shapes = (
{
closed = 1;
nodes = (
(303,366,l),
(303,496,l),
(303,607,o),
(227,672,o),
(98,672,c),
(20,672,l),
(20,556,l),
(98,556,l),
(129,556,o),
(148,527,o),
(148,496,c),
(148,366,l)
);
},
{
closed = 1;
nodes = (
(505,240,l),
(505,366,l),
(180,366,l),
(180,240,l)
);
},
{
pos = (67,0);
ref = _knot.deva;
}
);
width = 415;
}
);
metricLeft = "=aaMatra-deva+40";
metricRight = "=aaMatra-deva-70";
},
{
glyphname = "m-deva";
lastChange = "2025-08-14 02:14:14 +0000";
layers = (
{
layerId = "C1DB0BE6-5704-4A8C-8C00-D80E72C16D98";
shapes = (
{
closed = 1;
nodes = (
(460,336,l),
(460,381,l),
(158,381,l),
(158,336,l)
);
},
{
ref = "g-deva";
}
);
width = 360;
},
{
layerId = "30C2FD74-1A74-41AC-9C29-B288AE1DBDD7";
shapes = (
{
closed = 1;
nodes = (
(482,302,l),
(482,372,l),
(170,372,l),
(170,302,l)
);
},
{
ref = "g-deva";
}
);
width = 382;
},
{
layerId = "9398AC28-6BE1-4A79-9C94-3CBC2F226CE7";
shapes = (
{
closed = 1;
nodes = (
(505,240,l),
(505,366,l),
(160,366,l),
(160,240,l)
);
},
{
ref = "g-deva";
}
);
width = 405;
}
);
metricLeft = "=aaMatra-deva";
metricRight = "=aaMatra-deva-80";
},
{
glyphname = "y-deva";
lastChange = "2025-08-14 01:45:37 +0000";
layers = (
{
layerId = "C1DB0BE6-5704-4A8C-8C00-D80E72C16D98";
shapes = (
{
closed = 1;
nodes = (
(358,170,o),
(438,198,o),
(487,245,c),
(465,287,l),
(422,242,o),
(352,215,o),
(293,215,cs),
(203,215,o),
(125,277,o),
(100,366,c),
(83,339,l),
(202,357,o),
(262,411,o),
(262,503,cs),
(262,546,o),
(245,592,o),
(200,627,c),
(396,627,l),
(396,672,l),
(-20,672,l),
(-20,627,l),
(137,627,l),
(191,592,o),
(213,547,o),
(213,508,cs),
(213,441,o),
(156,396,o),
(43,371,c),
(71,251,o),
(169,170,o),
(290,170,cs)
);
}
);
width = 357;
},
{
layerId = "30C2FD74-1A74-41AC-9C29-B288AE1DBDD7";
shapes = (
{
closed = 1;
nodes = (
(380,140,o),
(466,168,o),
(528,216,c),
(491,282,l),
(450,237,o),
(380,210,o),
(319,210,cs),
(234,210,o),
(149,265,o),
(123,340,c),
(112,312,l),
(230,341,o),
(299,412,o),
(299,487,cs),
(299,535,o),
(281,571,o),
(250,602,c),
(443,602,l),
(443,672,l),
(-20,672,l),
(-20,602,l),
(162,602,l),
(198,569,o),
(220,533,o),
(220,488,cs),
(220,438,o),
(153,385,o),
(40,363,c),
(58,229,o),
(171,140,o),
(313,140,cs)
);
}
);
width = 383;
},
{
layerId = "9398AC28-6BE1-4A79-9C94-3CBC2F226CE7";
shapes = (
{
closed = 1;
nodes = (
(411,121,o),
(527,166,o),
(588,213,c),
(512,319,l),
(481,282,o),
(403,254,o),
(358,254,cs),
(279,254,o),
(212,287,o),
(201,345,c),
(182,259,l),
(300,283,o),
(370,353,o),
(370,448,cs),
(370,487,o),
(348,527,o),
(311,556,c),
(483,556,l),
(483,672,l),
(-20,672,l),
(-20,556,l),
(161,556,l),
(196,537,o),
(216,503,o),
(216,465,cs),
(216,408,o),
(153,362,o),
(46,340,c),
(71,215,o),
(199,121,o),
(344,121,cs)
);
}
);
width = 428;
}
);
metricLeft = "=aaMatra-deva";
metricRight = "=gh-deva";
},
{
glyphname = "ra-deva";
lastChange = "2025-06-05 02:31:06 +0000";
layers = (
{
anchors = (
{
name = bottom;
pos = (336,0);
},
{
name = nukta;
pos = (99,0);
},
{
name = top;
pos = (280,516);
}
);
layerId = "C1DB0BE6-5704-4A8C-8C00-D80E72C16D98";
shapes = (
{
closed = 1;
nodes = (
(490,627,l),
(490,672,l),
(-20,672,l),
(-20,627,l)
);
},
{
pos = (90,0);
ref = _r.leg;
},
{
pos = (10,0);
ref = "_ra-top.component";
}
);
width = 450;
},
{
anchors = (
{
name = bottom;
pos = (353,0);
},
{
name = nukta;
pos = (99,0);
},
{
name = top;
pos = (286,526);
}
);
layerId = "30C2FD74-1A74-41AC-9C29-B288AE1DBDD7";
shapes = (
{
closed = 1;
nodes = (
(503,602,l),
(503,672,l),
(-20,672,l),
(-20,602,l)
);
},
{
pos = (90,0);
ref = _r.leg;
},
{
pos = (10,0);
ref = "_ra-top.component";
}
);
width = 463;
},
{
anchors = (
{
name = bottom;
pos = (364,0);
},
{
name = nukta;
pos = (89,0);
},
{
name = top;
pos = (273,536);
}
);
layerId = "9398AC28-6BE1-4A79-9C94-3CBC2F226CE7";
shapes = (
{
closed = 1;
nodes = (
(525,556,l),
(525,672,l),
(-20,672,l),
(-20,556,l)
);
},
{
pos = (70,0);
ref = _r.leg;
},
{
pos = (0,3);
ref = "_ra-top.component";
}
);
width = 485;
}
);
metricLeft = "=aaMatra-deva";
metricRight = "=aaMatra-deva*2";
unicode = 2352;
},
{
glyphname = "la-deva.loclMAR";
lastChange = "2025-08-27 00:17:51 +0000";
layers = (
{
anchors = (
{
name = bottom;
pos = (536,0);
},
{
name = candra;
pos = (564,516);
},
{
name = top;
pos = (538,516);
}
);
layerId = "C1DB0BE6-5704-4A8C-8C00-D80E72C16D98";
shapes = (
{
closed = 1;
nodes = (
(566,470,l),
(566,627,l),
(776,627,l),
(776,672,l),
(-20,672,l),
(-20,627,l),
(516,627,l),
(516,470,l)
);
},
{
closed = 1;
nodes = (
(241,0,l),
(140,130,o),
(102,222,o),
(102,328,cs),
(102,393,o),
(155,441,o),
(213,441,cs),
(291,441,o),
(350,388,o),
(350,317,c),
(394,317,l),
(394,414,o),
(315,487,o),
(209,487,cs),
(124,487,o),
(50,420,o),
(50,330,cs),
(50,220,o),
(85,127,o),
(181,0,c)
);
},
{
closed = 1;
nodes = (
(398,200,l),
(398,317,l),
(350,317,l),
(350,200,l)
);
},
{
closed = 1;
nodes = (
(567,0,l),
(663,127,o),
(698,220,o),
(698,330,cs),
(698,420,o),
(624,487,o),
(539,487,cs),
(433,487,o),
(354,414,o),
(354,317,c),
(398,317,l),
(398,388,o),
(456,441,o),
(534,441,cs),
(592,441,o),
(646,393,o),
(646,328,cs),
(646,222,o),
(608,130,o),
(507,0,c)
);
}
);
width = 756;
},
{
anchors = (
{
name = bottom;
pos = (533,0);
},
{
name = candra;
pos = (575,526);
},
{
name = top;
pos = (538,526);
}
);
layerId = "30C2FD74-1A74-41AC-9C29-B288AE1DBDD7";
shapes = (
{
closed = 1;
nodes = (
(575,450,l),
(575,602,l),
(797,602,l),
(797,672,l),
(-20,672,l),
(-20,602,l),
(495,602,l),
(495,450,l)
);
},
{
closed = 1;
nodes = (
(265,0,l),
(154,153,o),
(125,224,o),
(125,301,cs),
(125,378,o),
(162,424,o),
(224,424,cs),
(293,424,o),
(334,381,o),
(334,307,c),
(404,307,l),
(404,426,o),
(335,496,o),
(219,496,cs),
(110,496,o),
(45,425,o),
(45,305,cs),
(45,211,o),
(73,138,o),
(175,0,c)
);
},
{
closed = 1;
nodes = (
(414,190,l),
(414,307,l),
(334,307,l),
(334,190,l)
);
},
{
closed = 1;
nodes = (
(577,0,l),
(679,138,o),
(707,211,o),
(707,305,cs),
(707,425,o),
(642,496,o),
(533,496,cs),
(414,496,o),
(344,426,o),
(344,307,c),
(414,307,l),
(414,381,o),
(456,424,o),
(528,424,cs),
(590,424,o),
(627,378,o),
(627,301,cs),
(627,224,o),
(598,153,o),
(487,0,c)
);
}
);
width = 777;
},
{
anchors = (
{
name = bottom;
pos = (576,0);
},
{
name = candra;
pos = (641,536);
},
{
name = top;
pos = (571,536);
}
);
layerId = "9398AC28-6BE1-4A79-9C94-3CBC2F226CE7";
shapes = (
{
closed = 1;
nodes = (
(648,430,l),
(648,556,l),
(858,556,l),
(858,672,l),
(-20,672,l),
(-20,556,l),
(493,556,l),
(493,430,l)
);
},
{
closed = 1;
nodes = (
(333,0,l),
(234,115,o),
(198,182,o),
(198,267,cs),
(198,312,o),
(228,359,o),
(269,359,cs),
(319,359,o),
(339,312,o),
(339,267,c),
(439,267,l),
(439,398,o),
(370,496,o),
(253,496,cs),
(121,496,o),
(43,399,o),
(43,269,cs),
(43,178,o),
(66,110,o),
(158,0,c)
);
},
{
closed = 1;
nodes = (
(484,147,l),
(484,267,l),
(339,267,l),
(339,147,l)
);
},
{
closed = 1;
nodes = (
(666,0,l),
(758,110,o),
(781,178,o),
(781,269,cs),
(781,399,o),
(703,496,o),
(571,496,cs),
(453,496,o),
(384,398,o),
(384,267,c),
(484,267,l),
(484,312,o),
(504,359,o),
(555,359,cs),
(596,359,o),
(626,312,o),
(626,267,cs),
(626,182,o),
(590,115,o),
(491,0,c)
);
}
);
width = 838;
}
);
metricLeft = "=aaMatra-deva";
metricRight = "=aaMatra-deva";
},
